<svg xmlns="http://www.w3.org/2000/svg" viewBox="0 0 69.3 107.24"><defs><style>.cls-1{isolation:isolate;}.cls-2{fill:#31737c;}.cls-3{fill:#b4edae;}.cls-4{fill:#f0ee7e;}.cls-5{fill:#906007;}.cls-6,.cls-7,.cls-8{fill:#fff;}.cls-6{opacity:0.1;mix-blend-mode:overlay;}.cls-7{opacity:0.7;}.cls-8{opacity:0.4;}</style></defs><g class="cls-1"><g id="Layer_2" data-name="Layer 2"><g id="Layer_1-2" data-name="Layer 1"><path class="cls-2" d="M68,56.82c-1.8-8-5-15.55-8.14-23.08C57,26.84,53.68,20,51.32,12.89A20.5,20.5,0,0,0,45,3.79,16,16,0,0,0,38,.33,17.12,17.12,0,0,0,35,0a17.08,17.08,0,0,0-3,.3,16.18,16.18,0,0,0-7,3.39,20.67,20.67,0,0,0-6.44,9.05c-2.42,7.06-5.8,13.89-8.76,20.76-3.23,7.5-6.48,15-8.36,23-3.73,15.79-.13,33.19,12.87,43.87a32.35,32.35,0,0,0,5.23,3.52c4.65,2.5,9.93,3.12,15.12,3.33A30.27,30.27,0,0,0,49.46,104a31.93,31.93,0,0,0,5.27-3.46C67.83,90,71.6,72.64,68,56.82Z"/><path class="cls-3" d="M66,55.4C64.29,48,61.31,41,58.34,34c-2.72-6.41-5.83-12.78-8-19.36a19,19,0,0,0-6-8.45A15.1,15.1,0,0,0,37.8,2.94,16,16,0,0,0,35,2.64a16,16,0,0,0-2.84.27,15.29,15.29,0,0,0-6.58,3.16,19.09,19.09,0,0,0-6,8.39c-2.27,6.56-5.44,12.9-8.22,19.28-3,7-6.08,14-7.84,21.36C0,69.76,3.33,85.92,15.53,95.84a30.55,30.55,0,0,0,4.91,3.26,25.47,25.47,0,0,0,8.14,2.63c6.65,1,13.88.68,20-2.49A30.44,30.44,0,0,0,53.51,96C65.8,86.22,69.33,70.09,66,55.4Z"/><path class="cls-4" d="M63.68,55.53c-1.57-7-4.33-13.68-7.08-20.32-2.52-6.07-5.39-12.11-7.44-18.35a18.07,18.07,0,0,0-5.52-8,13.91,13.91,0,0,0-6.06-3,12.67,12.67,0,0,0-5.25,0,13.9,13.9,0,0,0-6.1,3,18.08,18.08,0,0,0-5.59,8C18.53,22.94,15.59,29,13,35c-2.81,6.61-5.64,13.26-7.27,20.26-3.24,13.9-.11,29.22,11.18,38.63A29.15,29.15,0,0,0,21.48,97c4,2.19,8.56,2.7,13.05,2.79a26,26,0,0,0,13-2.67,27.43,27.43,0,0,0,4.58-3C63.51,84.76,66.78,69.46,63.68,55.53Z"/><path class="cls-5" d="M53.11,65.2c0,11.85-8.26,21.46-18.45,21.46S16.21,77.05,16.21,65.2s8.26-24.86,18.45-24.86S53.11,53.34,53.11,65.2Z"/><path class="cls-6" d="M28.68,75.1c6.08,1.12,13-1.39,16.27-7.37,4.35-7.91,2.91-20.64-6-24.81-5.45-2.53-12.36.22-15.8,4.91A31,31,0,0,0,18,58.25,14.57,14.57,0,0,0,18,65.61,13.21,13.21,0,0,0,28.68,75.1Z"/><path class="cls-7" d="M24.63,48.24A8,8,0,0,0,23,52c-.66,5.8,6.8,4.83,9.52,1.81,1.25-1.39,2.89-4,2.43-5.93-.81-3.46-5.15-3.28-7.72-1.94A8.07,8.07,0,0,0,24.63,48.24Z"/><path class="cls-8" d="M27.21,12.47C29.57,10.56,34.85,8,37.38,11A2.6,2.6,0,0,1,37,15a8.39,8.39,0,0,1-3,.75,8.28,8.28,0,0,0-3.89,1.88c-1.12,1-1.11,2.05-1.79,3.31a3.89,3.89,0,0,1-1.89,1.8A2.49,2.49,0,0,1,24,22.41c-2.13-1.81.08-6.27,1.34-8A10.6,10.6,0,0,1,27.21,12.47Z"/></g></g></g></svg>