<svg xmlns="http://www.w3.org/2000/svg" xmlns:xlink="http://www.w3.org/1999/xlink" viewBox="0 0 111.81 159.99"><defs><style>.cls-1{fill:url(#linear-gradient);}</style><linearGradient id="linear-gradient" y1="79.99" x2="184.18" y2="79.99" gradientUnits="userSpaceOnUse"><stop offset="0.1" stop-color="#c0ecb3"/><stop offset="1" stop-color="#83d5c8"/></linearGradient></defs><g id="Layer_2" data-name="Layer 2"><g id="Layer_2-2" data-name="Layer 2"><path class="cls-1" d="M62.67,0H30.13A46.94,46.94,0,0,0,18.58,7.31C8.13,16.11.17,30.59,3.77,44.29c1.74,6.63,6,12.23,8.05,18.75.09.28.18.57.26.86a30.43,30.43,0,0,1-1.8,21c-2.17,4.75-6,8.44-8,13.28C-1.9,108.36,0,119.9,5.37,129.24c8,13.87,26.76,13.92,40.47,17.86,7.91,2.27,14.89,6.52,22.74,8.91a89.91,89.91,0,0,0,20.82,3.83,72.2,72.2,0,0,0,22.41-2V49.14A49.14,49.14,0,0,0,62.67,0Z"/></g></g></svg>