<svg xmlns="http://www.w3.org/2000/svg" viewBox="0 0 171.01 261.94"><defs><style>.cls-1{fill:#787ded;}</style></defs><g id="Layer_2" data-name="Layer 2"><g id="Layer_2-2" data-name="Layer 2"><path class="cls-1" d="M171,0a42.84,42.84,0,0,0-5.72.92c-17.12,4-30.92,17.83-47.73,23.15-21.91,6.94-46.18-1.36-68,5.81a66.33,66.33,0,0,0-21.7,12.64C12.17,55.7.26,77.39,5.65,97.91c2.61,9.94,8.93,18.33,12.06,28.09.14.43.27.85.39,1.28a45.63,45.63,0,0,1-2.7,31.48c-3.25,7.11-9,12.65-12,19.89C-2.85,193.89,0,211.18,8,225.16c12,20.78,40.09,20.86,60.62,26.76,8.71,2.5,16.67,6.6,25,10h29.2A47.29,47.29,0,0,0,171,214.08Z"/></g></g></svg>