<svg xmlns="http://www.w3.org/2000/svg" xmlns:xlink="http://www.w3.org/1999/xlink" viewBox="0 0 36.91 151.5"><defs><style>.cls-1{fill:url(#linear-gradient);}</style><linearGradient id="linear-gradient" x1="-0.27" y1="75.75" x2="36.65" y2="75.75" gradientUnits="userSpaceOnUse"><stop offset="0.1" stop-color="#7780e5"/><stop offset="0.2" stop-color="#8883e4"/><stop offset="0.43" stop-color="#ab8ae3"/><stop offset="0.64" stop-color="#c48ee3"/><stop offset="0.84" stop-color="#d391e2"/><stop offset="1" stop-color="#d892e2"/></linearGradient></defs><g id="Layer_2" data-name="Layer 2"><g id="Layer_1-2" data-name="Layer 1"><path class="cls-1" d="M20.3,113.19c-1.31,1.92-3.88,5.13-5,6.53,1-6.12,1.9-12.4,2.67-18.7,1.8-1.19,8.18-5.38,11.46-7.68a25.93,25.93,0,0,0,6-5.14c1-1.26,2.3-4,1-5.44-3.9-4.43-12.65,8.78-13.91,11-1.14,2-3.38,5.28-4.43,6.8.79-6.48,1.45-13,2-19.31,1.63-1.19,6.82-5,9.5-7.11a22.66,22.66,0,0,0,4.94-4.73c.78-1.14,1.82-3.55.61-4.78-3.59-3.66-10.58,8.2-11.58,10.16-.86,1.7-2.55,4.49-3.42,5.93.46-5.53.83-10.93,1.11-16.1,1.62-1.3,6.59-5.28,9.17-7.48a22.51,22.51,0,0,0,4.72-4.93c.74-1.17,1.67-3.62.41-4.8C31.72,43.87,25.23,56,24.32,58c-.78,1.69-2.3,4.48-3.13,6,.29-5.57.48-10.85.57-15.72,1.4-1.16,5.65-4.68,7.86-6.62a19.9,19.9,0,0,0,4.05-4.35c.62-1,1.4-3.16.29-4.17-3.29-3-8.77,7.64-9.54,9.39-.66,1.49-2,3.95-2.65,5.25.08-4.76.06-9.11-.05-12.92,1.22-1.13,5.44-5,7.59-7.13a20.23,20.23,0,0,0,3.8-4.56c.57-1.06,1.23-3.23.06-4.18-3.45-2.82-8.34,8.1-9,9.89-.6,1.6-1.84,4.3-2.44,5.58a104.08,104.08,0,0,0-.78-10.66h-.06c.25-2.95.72-8.83.89-12.14A26,26,0,0,0,21.38,4C21,2.52,19.72-.11,17.8,0c-5.73.34-.84,15,.07,17.23C18.59,19,19.58,22,20.18,23.9l-.24,0a99.09,99.09,0,0,1,.76,10.17c-1.21-1.89-3.77-5.87-5.26-8a20,20,0,0,0-3.83-4.55c-.94-.74-3-1.77-4.11-.79-3.38,2.91,6.52,9.63,8.16,10.6,1.47.87,3.91,2.56,5.06,3.38.12,3.82.14,8.21.06,13-1.06-1.87-3.51-6.16-4.92-8.49a19.39,19.39,0,0,0-3.58-4.74c-.9-.8-2.86-1.93-4.06-1-3.52,2.72,6,10,7.58,11s3.9,2.88,5,3.72c-.09,5-.28,10.33-.58,16-1.1-2-4-7.32-5.66-10.13a22.81,22.81,0,0,0-4-5.52c-1-.93-3.27-2.27-4.65-1.24-4.11,3.07,6.73,11.58,8.53,12.83s4.67,3.57,5.79,4.48c-.28,5.16-.65,10.56-1.11,16.07-1-2.09-3.68-7.43-5.2-10.29a22.58,22.58,0,0,0-3.8-5.68c-1-1-3.17-2.41-4.59-1.44-4.23,2.9,6.23,11.85,8,13.17s4.47,3.72,5.57,4.7c-.53,6.3-1.19,12.75-2,19.19-1-2.42-3.79-8.8-5.38-12.19a25.44,25.44,0,0,0-4-6.75c-1.07-1.18-3.5-3-5.19-1.93-5,3.07,6.44,14,8.39,15.61s5,4.6,6.15,5.77c-.75,6.19-1.63,12.38-2.62,18.4-.88-2.58-3.09-9-4.39-12.47a26.15,26.15,0,0,0-3.49-7c-1-1.26-3.27-3.22-5-2.32-5.26,2.68,5.35,14.44,7.16,16.21s4.54,4.91,5.66,6.19a255,255,0,0,1-7,31.36l1,.29a256.48,256.48,0,0,0,7-31.36c1.84-1,8.58-4.74,12.05-6.8a25.88,25.88,0,0,0,6.33-4.67c1.07-1.18,2.6-3.77,1.41-5.35C31.47,98.61,21.73,111.11,20.3,113.19Z"/></g></g></svg>