<svg xmlns="http://www.w3.org/2000/svg" xmlns:xlink="http://www.w3.org/1999/xlink" viewBox="0 0 41.27 35.47"><defs><style>.cls-1{fill:url(#linear-gradient);}</style><linearGradient id="linear-gradient" y1="17.73" x2="41.27" y2="17.73" gradientUnits="userSpaceOnUse"><stop offset="0.1" stop-color="#767de7"/><stop offset="0.21" stop-color="#8880e6"/><stop offset="0.43" stop-color="#ab87e5"/><stop offset="0.65" stop-color="#c48be4"/><stop offset="0.84" stop-color="#d38ee3"/><stop offset="1" stop-color="#d88fe3"/></linearGradient></defs><g id="Layer_2" data-name="Layer 2"><g id="Layer_1-2" data-name="Layer 1"><path class="cls-1" d="M32.05,21.16h4.68a.61.61,0,0,0,.61-.62V15.87a.61.61,0,0,0-.61-.62H32.05a.61.61,0,0,0-.61.62v4.67A.61.61,0,0,0,32.05,21.16Zm.62-4.68h3.45v3.45H32.67Zm-.62,13.79h4.68a.61.61,0,0,0,.61-.61V25a.61.61,0,0,0-.61-.61H32.05a.61.61,0,0,0-.61.61v4.68A.61.61,0,0,0,32.05,30.27Zm.62-4.67h3.45v3.45H32.67Zm-9.73-4.44h4.68a.61.61,0,0,0,.61-.62V15.87a.61.61,0,0,0-.61-.62H22.94a.62.62,0,0,0-.62.62v4.67A.62.62,0,0,0,22.94,21.16Zm.61-4.68H27v3.45H23.55ZM4.71,21.16H9.39a.61.61,0,0,0,.61-.62V15.87a.61.61,0,0,0-.61-.62H4.71a.61.61,0,0,0-.61.62v4.67A.61.61,0,0,0,4.71,21.16Zm.61-4.68H8.77v3.45H5.32ZM22.94,30.27h4.68a.61.61,0,0,0,.61-.61V25a.61.61,0,0,0-.61-.61H22.94a.61.61,0,0,0-.62.61v4.68A.61.61,0,0,0,22.94,30.27Zm.61-4.67H27v3.45H23.55Zm16-21.83H35.39v-1a2.78,2.78,0,0,0-5.56,0v1H11.44v-1a2.78,2.78,0,1,0-5.56,0v1H1.69A1.69,1.69,0,0,0,0,5.46V33.78a1.69,1.69,0,0,0,1.69,1.69H39.58a1.69,1.69,0,0,0,1.69-1.69V5.46A1.69,1.69,0,0,0,39.58,3.77Zm-8.52-1a1.56,1.56,0,0,1,3.11,0V5.42a1.56,1.56,0,1,1-3.11,0Zm-23.95,0a1.55,1.55,0,0,1,3.1,0V5.42a1.55,1.55,0,1,1-3.1,0ZM40,33.78a.46.46,0,0,1-.46.46H1.69a.47.47,0,0,1-.46-.46V11.16H40ZM40,9.93H1.23V5.46A.47.47,0,0,1,1.69,5H5.88v.42a2.78,2.78,0,1,0,5.56,0V5H29.83v.42a2.78,2.78,0,1,0,5.56,0V5h4.19a.46.46,0,0,1,.46.46ZM4.71,30.27H9.39a.61.61,0,0,0,.61-.61V25a.61.61,0,0,0-.61-.61H4.71A.61.61,0,0,0,4.1,25v4.68A.61.61,0,0,0,4.71,30.27Zm.61-4.67H8.77v3.45H5.32Zm8.5,4.67H18.5a.61.61,0,0,0,.62-.61V25a.61.61,0,0,0-.62-.61H13.82a.61.61,0,0,0-.61.61v4.68A.61.61,0,0,0,13.82,30.27Zm.62-4.67h3.45v3.45H14.44Zm-.62-4.44H18.5a.62.62,0,0,0,.62-.62V15.87a.62.62,0,0,0-.62-.62H13.82a.61.61,0,0,0-.61.62v4.67A.61.61,0,0,0,13.82,21.16Zm.62-4.68h3.45v3.45H14.44Z"/></g></g></svg>