<svg xmlns="http://www.w3.org/2000/svg" viewBox="0 0 366.61 345.66"><defs><style>.cls-1{fill:#6cd6c7;}</style></defs><g id="Layer_2" data-name="Layer 2"><g id="Layer_1-2" data-name="Layer 1"><path class="cls-1" d="M99,338.72c-10.35-6-22.69-6.51-34.62-7-5-.2-10.27-.4-15.28-1-23.95-3-41.62-18.41-47.24-41.3-5.11-20.77.6-43,14.9-58,.7-.74,1.41-1.47,2.11-2.2,4.69-4.88,9.54-9.93,12.93-15.74,7.55-13,5.34-30.32-5.92-46.38-1.39-2-2.87-4-4.3-5.92C16.87,154.82,12,148.25,8.9,140.6c-3.78-9.23-4.67-21-2.51-33.11C9.89,87.8,21,70.05,36.17,60,55.88,47,77.34,49.89,98.08,52.71c11,1.51,22.47,3.06,33.46,2.16a63,63,0,0,0,42.39-21.24C197.3,6.5,233.11-3,261,10.48c17,8.21,30.88,23.76,38.19,42.67,4.17,10.77,5,22.29,5.8,33.43.73,10.14,1.48,20.62,4.77,30.39,3.87,11.51,11.12,21.67,19.88,27.89,12.91,9.15,21.7,18,27.69,27.76,8.91,14.59,10.8,31.25,5,44.57-4.09,9.46-11.81,15.34-19.27,21s-14.75,11.24-18,20.09a33.34,33.34,0,0,0-1.75,11.7c0,5.48,1.05,11.21,2.05,16.74,1.78,9.84,3.62,20,.22,30-3.92,11.56-17.26,17.57-39.64,17.89-2.65,0-5.34,0-7.95,0-10-.09-20.41-.18-29.76,3.17L247,334.24c10-3.58,20.7-3.5,31.07-3.4,2.59,0,5.26,0,7.86,0,20.6-.29,32.74-5.44,36.08-15.29,3.08-9.09,1.41-18.34-.36-28.13-1-5.7-2.09-11.59-2.11-17.41a37,37,0,0,1,2-13c3.64-9.9,11.59-16,19.28-21.82,7.39-5.63,14.38-11,18.07-19.5,5.19-12,3.35-27.73-4.79-41-5.71-9.34-14.17-17.8-26.64-26.64-9.41-6.68-17.17-17.53-21.29-29.79-3.45-10.23-4.22-21-5-31.33-.82-11.36-1.59-22.1-5.55-32.33-7-18-20.2-32.82-36.3-40.61C233,1.17,199.07,10.31,176.83,36.13a66.85,66.85,0,0,1-45,22.55c-11.4.93-23-.65-34.29-2.18-21-2.86-40.77-5.56-59.28,6.7-14.29,9.47-24.81,26.28-28.13,45-2,11.42-1.22,22.43,2.28,31,3,7.21,7.66,13.58,12.21,19.74,1.44,2,2.93,4,4.35,6,12.14,17.31,14.42,36.19,6.09,50.49-3.62,6.21-8.63,11.42-13.47,16.46-.7.73-1.41,1.46-2.1,2.19C6.1,248.13.75,269,5.55,288.52c5.23,21.29,21.68,35.66,44,38.42,4.85.6,10,.8,15,1,12.4.48,25.22,1,36.39,7.49Z"/><path class="cls-1" d="M353.51,143.56c9.28,13.2,16.44,31.15,11.47,47.72s-20.79,26.7-27.72,42.39c-3.91,8.87-4,18.62-4.16,28.14-.2,12.46,2.24,25.69-6.18,36.23-5,6.23-12.5,9.91-20.1,12.32-15.27,4.86-31.26,7.14-44.82,16.31-22.28,15.07-49.63,20.34-76.18,18.71a172.36,172.36,0,0,1-39.71-7.3c-15-4.57-28.3-12.67-43.39-17-26.14-7.52-61.9-7.62-77.2-34.07-10.3-17.81-13.87-39.83-5.85-59.23,3.81-9.23,11.08-16.28,15.22-25.34a58.09,58.09,0,0,0,3.45-40.08c-.16-.54-.33-1.09-.5-1.63-4-12.43-12-23.12-15.36-35.77-6.87-26.13,8.3-53.75,28.25-70.54,8.28-7,17.54-12.78,27.63-16.09,27.82-9.14,58.72,1.43,86.62-7.4,21.41-6.78,39-24.39,60.79-29.48,16.76-3.91,34.87.26,49.11,10.49s24.57,26.24,29.27,43.87c4.37,16.34,4.23,34.28,12,49.12,6.62,12.7,18.89,19.55,28.86,28.76A62.42,62.42,0,0,1,353.51,143.56Z"/></g></g></svg>