<svg xmlns="http://www.w3.org/2000/svg" xmlns:xlink="http://www.w3.org/1999/xlink" viewBox="0 0 396.76 374.21"><defs><style>.cls-1{isolation:isolate;}.cls-2{fill:#40d8c7;}.cls-3,.cls-49{fill:none;}.cls-4{fill:url(#linear-gradient);}.cls-5{fill:#7a79f4;}.cls-6{fill:url(#linear-gradient-2);}.cls-7{fill:url(#linear-gradient-3);}.cls-8{fill:url(#linear-gradient-4);}.cls-9{fill:url(#linear-gradient-5);}.cls-10{fill:url(#linear-gradient-6);}.cls-11{fill:url(#linear-gradient-7);}.cls-12{fill:url(#linear-gradient-8);}.cls-13{fill:url(#linear-gradient-9);}.cls-14{fill:url(#linear-gradient-10);}.cls-15{fill:url(#linear-gradient-11);}.cls-16{fill:url(#linear-gradient-12);}.cls-17{fill:url(#linear-gradient-13);}.cls-18{fill:url(#linear-gradient-14);}.cls-19{fill:url(#linear-gradient-15);}.cls-20{fill:url(#linear-gradient-16);}.cls-21{fill:url(#linear-gradient-17);}.cls-22{fill:url(#linear-gradient-18);}.cls-23{fill:url(#linear-gradient-19);}.cls-24{fill:url(#linear-gradient-20);}.cls-25{fill:url(#linear-gradient-21);}.cls-26{fill:url(#linear-gradient-22);}.cls-27{fill:url(#linear-gradient-23);}.cls-28{fill:url(#linear-gradient-24);}.cls-29{fill:url(#linear-gradient-25);}.cls-30{fill:url(#linear-gradient-26);}.cls-31{fill:url(#linear-gradient-27);}.cls-32{fill:url(#linear-gradient-28);}.cls-33{fill:url(#linear-gradient-29);}.cls-34{fill:url(#linear-gradient-30);}.cls-35{fill:url(#linear-gradient-31);}.cls-36{fill:url(#linear-gradient-32);}.cls-37{fill:url(#linear-gradient-33);}.cls-38{fill:url(#linear-gradient-34);}.cls-39{fill:url(#linear-gradient-35);}.cls-40{fill:url(#linear-gradient-36);}.cls-41{fill:#462677;}.cls-42{fill:#ad2860;}.cls-43{fill:#ffb18b;}.cls-44{fill:#1c3955;}.cls-45{fill:#3d47c7;}.cls-46{fill:#33206e;}.cls-47{fill:#fff;}.cls-48{fill:#8452d1;}.cls-49{stroke:#fff;stroke-linecap:round;stroke-miterlimit:10;stroke-width:2.34px;}.cls-50,.cls-54{mix-blend-mode:multiply;}.cls-51,.cls-54{fill:#e4e4e4;}.cls-52{fill:#f8b68c;}.cls-53{fill:#12283a;}.cls-55{fill:#6335a7;}.cls-56{fill:#27356b;}.cls-57{fill:#583095;}</style><linearGradient id="linear-gradient" x1="-2116.54" y1="-646.45" x2="-2029.16" y2="-646.45" gradientTransform="matrix(-0.72, -0.69, -0.69, 0.72, -1661.33, -762.4)" gradientUnits="userSpaceOnUse"><stop offset="0.1" stop-color="#a4f1a8"/><stop offset="1" stop-color="#30dac8"/></linearGradient><linearGradient id="linear-gradient-2" x1="-2068.84" y1="-617.77" x2="-2029.97" y2="-617.77" gradientTransform="matrix(-0.63, -0.78, -0.78, 0.63, -1520.33, -999.47)" xlink:href="#linear-gradient"/><linearGradient id="linear-gradient-3" x1="-2108.11" y1="-588.38" x2="-2063.34" y2="-588.38" gradientTransform="matrix(0.33, -0.95, -0.95, -0.33, 372.98, -1906.38)" xlink:href="#linear-gradient"/><linearGradient id="linear-gradient-4" x1="256.82" y1="227.38" x2="266.94" y2="227.38" gradientTransform="translate(444.32 -67.58) rotate(80.77)" xlink:href="#linear-gradient"/><linearGradient id="linear-gradient-5" x1="237.51" y1="276.81" x2="280.43" y2="276.81" gradientTransform="translate(371.64 -85.12) rotate(60.38)" xlink:href="#linear-gradient"/><linearGradient id="linear-gradient-6" x1="216.13" y1="253.86" x2="220.41" y2="253.86" gradientTransform="translate(11.8 -9.69) rotate(2.61)" xlink:href="#linear-gradient"/><linearGradient id="linear-gradient-7" x1="112.22" y1="162.53" x2="199.6" y2="162.53" gradientTransform="matrix(1, 0, 0, 1, 0, 0)" xlink:href="#linear-gradient"/><linearGradient id="linear-gradient-8" x1="150.13" y1="145.88" x2="180.18" y2="145.88" gradientTransform="translate(138.05 -72.8) rotate(41.48)" xlink:href="#linear-gradient"/><linearGradient id="linear-gradient-9" x1="159.92" y1="191.21" x2="198.8" y2="191.21" gradientTransform="translate(159.34 -70.19) rotate(38.79)" xlink:href="#linear-gradient"/><linearGradient id="linear-gradient-10" x1="120.65" y1="220.6" x2="165.42" y2="220.6" gradientTransform="translate(305.12 13.59) rotate(71.02)" xlink:href="#linear-gradient"/><linearGradient id="linear-gradient-11" x1="207.29" y1="213.67" x2="299.36" y2="213.67" gradientUnits="userSpaceOnUse"><stop offset="0.1" stop-color="#7a79f4"/><stop offset="0.3" stop-color="#a47cf2"/><stop offset="0.5" stop-color="#c77ff0"/><stop offset="0.69" stop-color="#e081ee"/><stop offset="0.86" stop-color="#ef82ed"/><stop offset="1" stop-color="#f482ed"/></linearGradient><linearGradient id="linear-gradient-12" x1="220.32" y1="267.82" x2="264.79" y2="267.82" xlink:href="#linear-gradient-11"/><linearGradient id="linear-gradient-13" x1="241.84" y1="242.48" x2="285.41" y2="242.48" xlink:href="#linear-gradient-11"/><linearGradient id="linear-gradient-14" x1="262.18" y1="215.27" x2="301.64" y2="215.27" xlink:href="#linear-gradient-11"/><linearGradient id="linear-gradient-15" x1="274.35" y1="193.63" x2="306.2" y2="193.63" xlink:href="#linear-gradient-11"/><linearGradient id="linear-gradient-16" x1="285.9" y1="172.24" x2="310.03" y2="172.24" xlink:href="#linear-gradient-11"/><linearGradient id="linear-gradient-17" x1="210.74" y1="248.53" x2="225.82" y2="248.53" xlink:href="#linear-gradient-11"/><linearGradient id="linear-gradient-18" x1="231.53" y1="225.12" x2="246.49" y2="225.12" xlink:href="#linear-gradient-11"/><linearGradient id="linear-gradient-19" x1="251.38" y1="200.03" x2="266.68" y2="200.03" xlink:href="#linear-gradient-11"/><linearGradient id="linear-gradient-20" x1="266.02" y1="182.92" x2="278.52" y2="182.92" xlink:href="#linear-gradient-11"/><linearGradient id="linear-gradient-21" x1="278.27" y1="164.96" x2="288.49" y2="164.96" xlink:href="#linear-gradient-11"/><linearGradient id="linear-gradient-22" x1="294.68" y1="139.42" x2="308.25" y2="139.42" xlink:href="#linear-gradient-11"/><linearGradient id="linear-gradient-23" x1="158.99" y1="265.39" x2="172.74" y2="265.39" xlink:href="#linear-gradient-11"/><linearGradient id="linear-gradient-24" x1="144.48" y1="242.77" x2="158.23" y2="242.77" xlink:href="#linear-gradient-11"/><linearGradient id="linear-gradient-25" x1="132.32" y1="219.55" x2="146.07" y2="219.55" xlink:href="#linear-gradient-11"/><linearGradient id="linear-gradient-26" x1="122.32" y1="194.06" x2="136.39" y2="194.06" xlink:href="#linear-gradient-11"/><linearGradient id="linear-gradient-27" x1="114.8" y1="173.78" x2="127.05" y2="173.78" xlink:href="#linear-gradient-11"/><linearGradient id="linear-gradient-28" x1="109.14" y1="151.47" x2="121.04" y2="151.47" xlink:href="#linear-gradient-11"/><linearGradient id="linear-gradient-29" x1="129.77" y1="274.85" x2="161.17" y2="274.85" xlink:href="#linear-gradient-11"/><linearGradient id="linear-gradient-30" x1="114.81" y1="251.32" x2="146.43" y2="251.32" xlink:href="#linear-gradient-11"/><linearGradient id="linear-gradient-31" x1="104.2" y1="225.92" x2="134.27" y2="225.92" xlink:href="#linear-gradient-11"/><linearGradient id="linear-gradient-32" x1="93.23" y1="203.25" x2="122.77" y2="203.25" xlink:href="#linear-gradient-11"/><linearGradient id="linear-gradient-33" x1="91.79" y1="178.13" x2="115.07" y2="178.13" xlink:href="#linear-gradient-11"/><linearGradient id="linear-gradient-34" x1="88.97" y1="154.25" x2="109.5" y2="154.25" xlink:href="#linear-gradient-11"/><linearGradient id="linear-gradient-35" x1="101.58" y1="132.98" x2="111.81" y2="132.98" xlink:href="#linear-gradient-11"/><linearGradient id="linear-gradient-36" x1="106.11" y1="213.41" x2="166.34" y2="213.41" xlink:href="#linear-gradient-11"/></defs><g class="cls-1"><g id="Layer_2" data-name="Layer 2"><g id="Layer_1-2" data-name="Layer 1"><path class="cls-2" d="M165.84,275.38c-25.78,22.37-83.74-4.84-96.09-21.48-28.07-37.8,33.79-58.38,8.17-91-39.53-50.4-46.16-81-7.56-114.52,26.41-22.92,64-30.37,101.92-9.62,27.82,15.21,51.17-13.95,74-28C270.44-4.09,303.86.53,321.75,21.15c58.78,67.75-10.12,127.74-47.26,160Z"/><path class="cls-2" d="M396.75,206.86c.48-28.72-24.77-55.85-57-61.24-30.55-5.11-73.15,1.27-85.41-30.21-16.73-42.94-54.83-63.54-95.28-64.2-59.08-1-77,27.64-81.75,94.88C74.25,189.65,5.06,162.21.11,211.52c-2.17,21.71,26.81,83.77,66.28,84.42l21.24.35v-.67H304.78C351.4,288.68,395.75,267.74,396.75,206.86Z"/><path class="cls-2" d="M275.07,295.42c16.68-38.47,31.91-74.17,47-109,22.2-51.18,63.29-146.32-20-182.45-25.34-11-59,1.9-75.84,29.1-16,25.8-26.37,66.76-59,66.28-44.46-.64-77.09,26.32-92.88,62.72-23.07,53.18-4.34,79.92,53.63,109,12,6,15,15.42,14.94,26.2l89.69,1.48C244.62,298.89,260.27,296.06,275.07,295.42Z"/><rect class="cls-3" x="65.5" y="294.67" width="253.67" height="79.53"/><path class="cls-4" d="M242.87,186.43c-26.73,18.46-40.5,51.27-27.07,70.72s47.23,19.42,75.73-.27c38.3-26.45,63-95.51,63-95.51S281.17,160,242.87,186.43Z"/><polygon class="cls-5" points="215.19 256.27 216.41 258.04 353.93 163.06 354.54 161.37 353.79 161.31 352.66 161.33 215.19 256.27"/><polygon class="cls-5" points="329.29 162.19 328.83 178.31 330.98 178.39 331.55 162.15 329.29 162.19"/><polygon class="cls-5" points="311.77 191.8 338.83 196.63 339.63 194.88 312.15 189.69 311.77 191.8"/><rect class="cls-5" x="290.84" y="202.04" width="2.15" height="49.81" transform="translate(5.12 460.34) rotate(-77)"/><rect class="cls-6" x="243.98" y="186.87" width="2.15" height="48.14" transform="translate(-25.09 33.26) rotate(-7.39)"/><rect class="cls-7" x="249.83" y="234" width="2.15" height="46.6" transform="translate(-87.99 376.91) rotate(-65.16)"/><path class="cls-5" d="M282.8,200.52c-2.55-9.76-28.66,3.75-31.84-2.9-5-10.38,43.63-26.88,39-55.57-1.88-11.72-24.82,7.19-27.51,2.12-3-5.57,14.88-49.79-5.15-55.45s-28,41.36-33.4,44.55c-5,2.91-14.6-25.21-22.33-16.21-18.94,22,13.82,61.54,4.16,67.78-6.19,4-21.36-21.17-28.64-14.2-3.05,2.92-7.87,11.12-6.44,18.28,4.35,21.78,24.93,59.1,40.39,63.47s52.53-16.66,67.64-32.93C283.68,214.11,283.86,204.59,282.8,200.52Z"/><path class="cls-5" d="M210.08,252.1l43.27-149.27L212.07,252.67a1,1,0,0,1-2-.55Z"/><path class="cls-5" d="M231.27,178.1,284,146l-51.66,33.89a1,1,0,0,1-1.44-.3,1,1,0,0,1,.3-1.43Z"/><path class="cls-5" d="M218.06,225.48,273,207.26l-54.25,20.17a1,1,0,1,1-.73-1.94Z"/><path class="cls-5" d="M230.89,179.43l-26.28-55.92,28.14,55a1,1,0,1,1-1.84.94Z"/><path class="cls-5" d="M217.6,227.11l-35.66-45.59,37.27,44.28a1,1,0,0,1-1.59,1.34Z"/><path class="cls-5" d="M236.36,219.65l25.74,3.95-25.87-2.92a.52.52,0,1,1,.11-1Z"/><path class="cls-5" d="M208.93,215.39l1.82-19.63-.79,19.7a.52.52,0,0,1-1-.05Z"/><path class="cls-5" d="M248.37,168l21.47.59-21.48.44a.52.52,0,1,1,0-1Z"/><path class="cls-5" d="M221.68,159.31l2.17-18-1.13,18.07a.52.52,0,1,1-1-.06Z"/><path class="cls-5" d="M241.24,144.79l12.27-14.6-11.87,14.93a.26.26,0,0,1-.36,0,.27.27,0,0,1-.05-.37Z"/><path class="cls-5" d="M198.76,202.93l-14.89-4.75,15.18,3.75a.52.52,0,0,1-.25,1Z"/><path class="cls-5" d="M227.52,171.11l-19.88-9.42,20.3,8.48a.51.51,0,0,1-.39,1Z"/><path class="cls-5" d="M257.48,162.22l6.37-10.48-5.46,11a.53.53,0,0,1-.7.23.52.52,0,0,1-.23-.7Z"/><path class="cls-5" d="M245.56,129.93l-.8-9.43,1.06,9.4a.12.12,0,0,1-.11.14.13.13,0,0,1-.15-.11Z"/><rect class="cls-8" x="236.97" y="226.3" width="49.81" height="2.15" transform="translate(-4.55 449.4) rotate(-80.77)"/><rect class="cls-9" x="257.89" y="252.74" width="2.15" height="48.14" transform="translate(-109.65 365.16) rotate(-60.38)"/><rect class="cls-10" x="217.19" y="230.56" width="2.15" height="46.6" transform="translate(-11.35 10.21) rotate(-2.61)"/><path class="cls-11" d="M197.91,175c6.5,31.83-6.28,65-29.44,69.77S121,226.11,114,192.17c-9.32-45.6,20.71-112.51,20.71-112.51S188.59,129.42,197.91,175Z"/><polygon class="cls-5" points="169.52 244.59 167.41 245.02 133.96 81.28 134.69 79.63 135.27 80.11 136.08 80.9 169.52 244.59"/><polygon class="cls-5" points="152.34 97.71 141.51 109.66 139.9 108.22 150.75 96.11 152.34 97.71"/><polygon class="cls-5" points="144.48 131.21 121.61 115.95 122.25 114.14 145.67 129.41 144.48 131.21"/><rect class="cls-12" x="146.05" y="144.81" width="38.2" height="2.15" transform="translate(-55.21 145.98) rotate(-41.48)"/><rect class="cls-5" x="133.39" y="145.4" width="2.15" height="49.81" transform="translate(-80.69 198.51) rotate(-59.18)"/><rect class="cls-13" x="155.29" y="190.13" width="48.14" height="2.15" transform="translate(-80.23 154.53) rotate(-38.79)"/><rect class="cls-14" x="141.96" y="197.3" width="2.15" height="46.6" transform="translate(-112.1 284.1) rotate(-71.02)"/><path class="cls-15" d="M299.36,145.83A334.16,334.16,0,0,1,208.9,281.52c-.54-.6-1.08-1.2-1.61-1.81A333,333,0,0,0,299.36,145.83Z"/><path class="cls-16" d="M242.39,259.7c-12.09,2-22,10.06-22.07,10.06s6,8,18.44,6.43c5.9-.74,15.37-8.82,26-13.15A39.42,39.42,0,0,0,242.39,259.7Z"/><path class="cls-17" d="M262.81,234.39c-11.83,3.09-20.91,12-21,12s6.75,7.35,18.94,4.68c5.8-1.29,14.44-10.19,24.63-15.49A39.35,39.35,0,0,0,262.81,234.39Z"/><path class="cls-18" d="M282.21,222.21c-11,2.24-20-3.42-20-3.38A27.21,27.21,0,0,1,278.23,208c5.1-1.15,13.76,3.06,23.41,2.2C301.69,210.22,293.26,220,282.21,222.21Z"/><path class="cls-19" d="M291.64,199.12a26.4,26.4,0,0,1-17.29.35,23.06,23.06,0,0,1,11.9-11.27c4.11-1.69,12,.44,19.95-1.71C306.23,186.48,300.57,195.59,291.64,199.12Z"/><path class="cls-20" d="M299.34,176.56a20.9,20.9,0,0,1-13.44,1.21,17.72,17.72,0,0,1,8.67-9.43c3.12-1.51,9.35-.23,15.46-2.22C310.05,166.12,306.09,173.37,299.34,176.56Z"/><path class="cls-21" d="M225.49,246.62c1.88,11.61-4.79,22.83-4.81,22.78s-8.61-4.83-9.89-16.41c-.61-5.43,4.32-15.24,3.92-25.33C214.66,227.69,223.62,235.06,225.49,246.62Z"/><path class="cls-22" d="M246.1,223.07c2,11.68-4.43,23-4.45,23s-8.57-4.81-10.05-16.39c-.71-5.43,4-15.34,3.44-25.46C235,204.22,244.08,211.45,246.1,223.07Z"/><path class="cls-23" d="M252,201.46a36.44,36.44,0,0,0,9.89,17.66,23.33,23.33,0,0,0,4.27-18.64c-1.11-5-8.47-11.23-12.5-19.55C253.7,181,249.91,191,252,201.46Z"/><path class="cls-24" d="M266.37,184a31.2,31.2,0,0,0,7.78,15.34,20.3,20.3,0,0,0,4.1-15.72c-.75-4.35-6.7-9.88-9.76-17.13C268.49,166.53,264.9,175,266.37,184Z"/><path class="cls-25" d="M278.82,166.15a23.87,23.87,0,0,0,6.93,11.54,16.09,16.09,0,0,0,2.33-12.51c-.8-3.36-5.72-7.38-8.42-13A28.06,28.06,0,0,0,278.82,166.15Z"/><path class="cls-26" d="M306.83,141.39c-3.2,9.4-11.39,14.67-11.37,14.64s-2.22-9.27.83-18.24,10.49-14.95,10.51-15S310,132,306.83,141.39Z"/><path class="cls-5" d="M172,286.43c-.21.29-.43.55-.65.81s-.46.5-.72.75c-2.86,2.79-7.5,5-13.17,6.74-2.09.63-4.32,1.2-6.66,1.68H97.41l-.78-.19a14.12,14.12,0,0,1-3.6-1.49,25,25,0,0,1-10.1-12.21c-3.14-9.59,26.12-12.38,25.19-19.69-1.46-11.41-51.23,1.05-62.92-25.55-4.77-10.87,24.75-7.41,24.27-13.13-.53-6.28-39.49-33.78-25.73-49.38S89.66,194.36,96,194.1c5.74-.24-1.4-29.1,10-25.72,27.87,8.25,21.74,59.2,33.24,59.21,7.37,0,6.47-29.37,16.38-27.45,4.13.8,12.63,5.08,15.31,11.87C178.84,232.24,181.82,273.41,172,286.43Z"/><path class="cls-5" d="M170.63,288,54.74,184.46,172,286.46a1,1,0,0,1-1.36,1.57Z"/><path class="cls-5" d="M113.06,236.91l-6.16-61.48,8.22,61.24a1,1,0,0,1-2.05.27Z"/><path class="cls-5" d="M150.08,269.31l7.32-57.42-5.26,57.64a1,1,0,0,1-2.07-.19Z"/><path class="cls-5" d="M114.1,237.82l-61.78-.48,61.76-1.59a1,1,0,1,1,.06,2.07Z"/><path class="cls-5" d="M151.35,270.43,94.82,282.87l56-14.46a1,1,0,1,1,.52,2Z"/><path class="cls-5" d="M152.73,250.28l14.69-21.5L153.6,250.85a.52.52,0,0,1-.88-.55Z"/><path class="cls-5" d="M137,273.17l-16.91-10.12,17.42,9.22a.52.52,0,0,1,.21.7.52.52,0,0,1-.7.22Z"/><path class="cls-5" d="M111.35,217.13,121.17,198l-8.89,19.56a.51.51,0,0,1-.68.25.5.5,0,0,1-.26-.68Z"/><path class="cls-5" d="M92,237.43,76.7,227.7l15.81,8.84a.51.51,0,0,1,.2.7.52.52,0,0,1-.71.2Z"/><path class="cls-5" d="M87.34,213.52l-7.86-17.37,8.33,17.15a.25.25,0,0,1-.12.34.26.26,0,0,1-.35-.12Z"/><path class="cls-5" d="M121.4,277l-10.73,11.38,10-12.06a.52.52,0,1,1,.8.66Z"/><path class="cls-5" d="M105.14,237.27,88.05,251.12l16.42-14.64a.52.52,0,0,1,.74,0,.51.51,0,0,1,0,.73Z"/><path class="cls-5" d="M110.08,206.41l-6.7-10.28,7.54,9.68a.52.52,0,0,1-.09.72.51.51,0,0,1-.73-.09Z"/><path class="cls-5" d="M75.81,203.19,67,199.84,75.9,203a.14.14,0,0,1,.08.17.15.15,0,0,1-.17.08Z"/><path class="cls-27" d="M172.07,261.66c-1.88,8.92-10.77,20-10.77,20s-3.66-13.69-1.77-22.61,5.13-10.41,8.6-9.68S174,252.74,172.07,261.66Z"/><path class="cls-28" d="M157.56,239c-1.88,8.92-10.77,20-10.77,20s-3.66-13.7-1.78-22.62,5.14-10.41,8.6-9.68S159.45,230.12,157.56,239Z"/><path class="cls-29" d="M145.4,215.82c-1.88,8.92-10.77,20-10.77,20s-3.66-13.69-1.77-22.61,5.13-10.41,8.6-9.68S147.29,206.9,145.4,215.82Z"/><path class="cls-30" d="M135,191.67c-2.79,7.87-12.2,16.81-12.2,16.81s-1.65-12.88,1.14-20.74,5.93-8.82,9-7.73S137.81,183.81,135,191.67Z"/><path class="cls-31" d="M125.85,171.71c-2.43,6.84-10.63,14.63-10.63,14.63s-1.44-11.21,1-18.06,5.16-7.68,7.82-6.73S128.28,164.86,125.85,171.71Z"/><path class="cls-32" d="M119.87,149.45c-2.37,6.65-10.32,14.22-10.32,14.22s-1.4-10.89,1-17.54,5-7.47,7.6-6.55S122.23,142.8,119.87,149.45Z"/><path class="cls-33" d="M138.54,280.69c8.55,3.16,22.63,1.51,22.63,1.51s-9.64-10.39-18.2-13.54-11.54-1.2-12.77,2.12S130,277.54,138.54,280.69Z"/><path class="cls-34" d="M123.76,257.29c8.63,2.94,22.67.95,22.67.95s-9.9-10.15-18.53-13.09-11.57-.91-12.71,2.44S115.14,254.35,123.76,257.29Z"/><path class="cls-35" d="M112,230.75c8.1,4.17,22.28,4.26,22.28,4.26s-8.31-11.49-16.41-15.66-11.32-2.6-12.94.55S103.88,226.58,112,230.75Z"/><path class="cls-36" d="M102,209c8.1,2,20.74-.94,20.74-.94s-9.84-8.46-17.94-10.46-10.63.1-11.4,3.25S93.92,207,102,209Z"/><path class="cls-37" d="M97.57,181.45c6.22,3.74,17.5,4.56,17.5,4.56s-6-9.58-12.23-13.32S94,170,92.52,172.44,91.34,177.7,97.57,181.45Z"/><path class="cls-38" d="M93.47,156.15c5.36,4.6,16,7.21,16,7.21s-4.2-10.15-9.56-14.75-8-4-9.84-1.9S88.12,151.55,93.47,156.15Z"/><path class="cls-39" d="M111.81,128.77c0,7.27-5,17.37-5,17.37s-5.15-10.06-5.17-17.33,2.25-9,5.07-9S111.78,121.51,111.81,128.77Z"/><path class="cls-40" d="M164.29,288.57c-3.92-5.57-7.64-11.28-11.18-17.08s-6.94-11.7-10.17-17.68A373.94,373.94,0,0,1,125.48,217a300.11,300.11,0,0,1-12.9-38.62,213.08,213.08,0,0,1-6.47-40.12,213,213,0,0,0,7.08,40,299.14,299.14,0,0,0,13.46,38.29,372.07,372.07,0,0,0,17.94,36.39q5,8.85,10.39,17.42t11.36,16.78Z"/><path class="cls-41" d="M210.73,114.42c-3.85,9.8,13.33,28.64,9.24,32.73-2.21,2.21-25.82-4.65-26.57-1.32-2.08,9-10.6,4.4-16.25,10.66-2.72,3-5.31,7.68-8.79,11.45-3.15,3.4-7,6.05-12.34,6.05-13.2,0-15.74-7.9-15.74-13,0-8.31,6.64-8.9,7.71-17.82.74-6.18-4.08-11.59-1.72-17.25,2.76-6.57,10.51-7.25,13.72-11.27,6.38-8-1-24.44,6-37,11.86-21.46,33.39-15.79,36.19-9.83C210.31,66.28,223,83.2,210.73,114.42Z"/><path class="cls-42" d="M263.9,229.85c.67.9-5.19,10.36-5.19,10.36s-9.84,4.14-11,3.61l-2.63-10.28S259.68,224.21,263.9,229.85Z"/><path class="cls-43" d="M233.63,151.06c16.17,15.28,16.29,56.66,25.76,73,5.05,8.74,13.94,18.33,27.15,31.54-.59.89-4.71,3.56-6.09,5.44-3.35-1.41-40.77-16-45.81-35.5-5.24-20.3-9.46-38.85-9-51.42C226,165.19,231.75,160.2,233.63,151.06Z"/><path class="cls-42" d="M121.48,229.85c-.67.9,5.19,10.36,5.19,10.36s9.84,4.14,11,3.61l2.63-10.28S125.7,224.21,121.48,229.85Z"/><path class="cls-43" d="M151.75,151.06c-16.17,15.28-16.29,56.66-25.76,73-5,8.74-12.33,16.06-25.54,29.27.59.89,2,6.2,3.42,8.08,3.34-1.4,41.83-16.37,46.87-35.87,5.24-20.3,9.46-38.85,9-51.42C159.37,165.19,153.63,160.2,151.75,151.06Z"/><path class="cls-43" d="M228.33,147.17c-9.45,14.82-34.82,9.14-34.82,9.14s-27,5.68-36.49-9.14c5.07-.56,14.86-4.42,19.82-9.39,1.78-1.77,3.56-6.3,4.65-10.44a27.82,27.82,0,0,0,1.06-6.41H202.8a26.07,26.07,0,0,0,1,6c1.07,4.25,2.91,9,4.75,10.88C213.48,142.75,223.27,146.61,228.33,147.17Z"/><path class="cls-44" d="M153.05,266.61s-26.52-12.37-37.3-13.1S94.07,257,94.07,257l88.85,51.3,9.77-3.41V264.13Z"/><path class="cls-44" d="M232.38,267.23s26-13,36.82-13.72,22,3.6,22,3.6L202,308.33l-9.77-3.41V264.13Z"/><path class="cls-45" d="M222.11,236.88c-.24,4.6,8.29,22.08,10.27,30.6-7,4.08-20.55,6.77-39.69,6.77s-32.65-3.31-39.64-7.39c2-8.52,10.23-25.33,10-29.93-1.14-21.29-.7-24-1.54-26.08h0l-.12-.29,0,0c-1.1-2.51-3.51-3.95-4.69-9.19-3.06,12.86-2,16-6,26.9a29.65,29.65,0,0,1-13,15.59s.46-13.88-16.17-14l.25-.29c.09-.11.19-.21.29-.32l.32-.35c.12-.12.24-.24.36-.38l.18-.2.39-.44c.34-.4.7-.85,1.07-1.37.06-.09.13-.18.19-.28a18,18,0,0,0,1.09-1.91,2.81,2.81,0,0,0,.19-.39c.07-.13.14-.28.2-.42s.09-.2.14-.31c.19-.43.38-.91.56-1.41.08-.21.15-.42.22-.65a99.61,99.61,0,0,0,2.58-11c4.62-23.91,12.22-61.11,27.62-63,7.32,7.45,18.24,8.4,35.56,8.4s28.24-1,35.56-8.4c3.06,2.26,17.42,15,21.07,38l-19.95,7.09a35.9,35.9,0,0,1-.66,9.19v0c-1.51,6.53-5.27,7.6-5.27,11.58C223.11,218.22,222.76,224.74,222.11,236.88Z"/><path class="cls-46" d="M229.74,325.93c10.69.15,25.17,2.47,37-.41s16.39-17.19,3.85-20.94c-5-1.51-9.56-.69-22,.08-5.65.35-12.74,0-22.57.63-5.65.35-11.47,2.11-11.72,9.53C214,323.29,223.47,325.84,229.74,325.93Z"/><path class="cls-47" d="M220.93,306.13a27.28,27.28,0,0,1,3.27-.39c9.83-.63,16.92-.3,22.57-.66,12.47-.77,17-1.58,22-.12,12.53,3.62,8,17.54-3.87,20.39s-26.31.6-37,.48h-.14c.67.06,1.33.09,2,.1,10.69.15,25.17,2.47,37-.41s16.39-17.19,3.85-20.94c-5-1.51-9.56-.69-22,.08-5.65.35-12.74,0-22.57.63A22.2,22.2,0,0,0,220.93,306.13Z"/><path class="cls-43" d="M217.53,323.41c-2.32-.21-6-5.57-6.37-8s2.67-8.17,5-8.08c4.6.19,6.53-.32,17.95.6-.1,2.36-.2,4.73-.29,7.09a57.19,57.19,0,0,1-.55,8.07C225,324.57,221.46,323.76,217.53,323.41Z"/><path class="cls-48" d="M258.45,310.12l.21,6.78a1.19,1.19,0,0,1-1.11,1.24c-3.75.1-15.83.65-23.59,3.57a2.74,2.74,0,0,1-3.67-2.61l-.21-6.93a3,3,0,0,1,3.55-3.1c6.56,1.57,15.17.87,23.65,0A1.07,1.07,0,0,1,258.45,310.12Z"/><line class="cls-49" x1="254.52" y1="320.51" x2="254.32" y2="307.17"/><line class="cls-49" x1="250.18" y1="320.83" x2="249.98" y2="307.49"/><line class="cls-49" x1="245.85" y1="321.16" x2="245.65" y2="307.82"/><line class="cls-49" x1="241.51" y1="321.48" x2="241.31" y2="308.14"/><line class="cls-49" x1="237.17" y1="321.81" x2="236.97" y2="308.46"/><path class="cls-43" d="M199.42,297.07c12.73,6.23,15.76,9.75,21.51,10.31-.29,2.57,1.8,5.12,1.93,7.72a56.16,56.16,0,0,1-.41,8.43c-1.34,0-2.74,0-4.22,0-3.32-.07-12.79-3.32-24.56-5.82Z"/><path class="cls-44" d="M93.19,281.18c5.07,7.43,25.5,15.64,43.9,22.22,1.87.67,4.1,1.42,6.61,2.23,12.92,4.17,33.2,9.83,49.62,13.32l6.62-23.71c-7.76-3.8-16.36-7.91-24.61-11.82-19.5-9.24-37.05-17.31-37.05-17.31s-22.91-11.87-29.77-12.35-13.05-1.14-17,4.45S88.13,273.75,93.19,281.18Z"/><path class="cls-48" d="M200.36,294.17a71.52,71.52,0,0,1-7.07,25.17.67.67,0,0,1-.64.37l-8.5-.78a.64.64,0,0,1-.52-.89,175.35,175.35,0,0,0,9.63-27.45.64.64,0,0,1,.94-.39l5.84,3.34A.64.64,0,0,1,200.36,294.17Z"/><path class="cls-44" d="M93.19,281.18c5.07,7.43,25.5,15.64,43.9,22.22,1.87.67,4.1,1.42,6.61,2.23a138.46,138.46,0,0,0,26.35,1.57c10.84-.2,14.8-9.18,8.13-19.77a45.47,45.47,0,0,0-2.85-4c-19.5-9.24-37.05-17.31-37.05-17.31s-22.91-11.87-29.77-12.35-13.05-1.14-17,4.45S88.13,273.75,93.19,281.18Z"/><path class="cls-44" d="M201.44,315.76a.67.67,0,0,1-.53.92l-8.5.8a.64.64,0,0,1-.63-.38c-.26-.56-.49-1.1-.73-1.63-2.47.54-4.82,1.12-7.05,1.68.05-.1.08-.2.13-.3-14.31-3.49-29.84-8-40.43-11.53-2.51-.83-4.74-1.6-6.61-2.29l-3.15-1.16c.81.05,1.66.1,2.54.17l2.2.1c13.62.52,13.07,1,27.58,2.31,4.5-1.17,8.19-4.54,18.85-9.93-.14-1-.28-2.12-.41-3.25a.66.66,0,0,1,.32-.65l3.12-1.83c1.61.8,3.21,1.58,4.78,2.37.11-.42.23-.84.34-1.27a.64.64,0,0,1,.94-.4l5.84,3.42a.66.66,0,0,1,.32.66c-.12,1.13-.26,2.2-.41,3.23,10.67,5.41,14.35,8.77,18.85,9.93a12.57,12.57,0,0,1,2.13-.89l.12,0c.32-.1.66-.19,1-.27l.33-.07.85-.17.38-.06c.28-.05.57-.09.86-.12l.34,0c.4,0,.8-.08,1.2-.1.61-.05,1.22-.08,1.81-.11,1.78-.1,3.47-.16,5.07-.21,1.29,0,2.53-.06,3.72-.08-10.19,3.23-23.38,7-35.68,10C201.1,315,201.26,315.35,201.44,315.76Z"/><g class="cls-50"><path class="cls-51" d="M203.76,126.9c-3.38,4.25-7.35,6.79-10.92,6.79l-.4,0-.4,0c-3.43,0-7.25-2.37-10.55-6.35a27.82,27.82,0,0,0,1.06-6.41H202.8A26.07,26.07,0,0,0,203.76,126.9Z"/></g><path class="cls-52" d="M169.79,106.66a19.2,19.2,0,0,1-1.37-5.11c-.39-2.73-.8-6.93.14-6.93.42,0,.87.81,1.34,1.54.65,1,1.82,3.12,1.82,3.12.81,7.62,1.36,8.66,2,11.06A10.13,10.13,0,0,1,169.79,106.66Z"/><path class="cls-43" d="M192.89,67.23H192c-11.31,0-20.47,5.08-20.47,29.41,0,18.46,11.44,33.43,20.47,33.43l.44,0,.43,0c9,0,20.48-15,20.48-33.43C213.37,72.31,204.2,67.23,192.89,67.23Z"/><path class="cls-52" d="M215.12,106.72a18.47,18.47,0,0,0,1.37-5c.39-2.68.8-6.81-.14-6.81-.42,0-.87.79-1.34,1.52-.65,1-1.82,3.06-1.82,3.06-.81,7.49-1.36,8.51-2,10.87A10.07,10.07,0,0,0,215.12,106.72Z"/><path class="cls-46" d="M155.32,325.92c-10.69.15-25.17,2.47-37-.41s-16.39-17.19-3.85-20.94c5-1.51,9.56-.69,22,.08,5.65.35,12.74,0,22.57.63,5.65.35,11.46,2.11,11.72,9.53C171.07,323.28,161.59,325.83,155.32,325.92Z"/><path class="cls-47" d="M164.13,306.12a27.28,27.28,0,0,0-3.27-.39c-9.83-.63-16.92-.3-22.57-.66-12.47-.77-17-1.58-22-.12-12.53,3.62-8,17.54,3.87,20.39s26.31.6,37,.48h.14c-.67.06-1.33.09-2,.1-10.69.15-25.17,2.47-37-.41s-16.39-17.19-3.85-20.94c5-1.51,9.56-.69,22,.08,5.65.35,12.74,0,22.57.63A21.76,21.76,0,0,1,164.13,306.12Z"/><path class="cls-43" d="M167.53,323.4c2.31-.21,6-5.57,6.37-8s-2.67-8.17-5-8.08c-4.6.19-6.54-.32-17.95.6.1,2.36.19,4.73.29,7.09a57.19,57.19,0,0,0,.55,8.07C160.06,324.56,163.6,323.75,167.53,323.4Z"/><path class="cls-48" d="M126.61,310.11l-.21,6.78a1.19,1.19,0,0,0,1.11,1.24c3.75.1,15.83.65,23.59,3.57a2.73,2.73,0,0,0,3.66-2.61l.22-6.93a3,3,0,0,0-3.55-3.1c-6.56,1.57-15.17.87-23.65,0A1.07,1.07,0,0,0,126.61,310.11Z"/><line class="cls-49" x1="130.54" y1="320.5" x2="130.74" y2="307.16"/><line class="cls-49" x1="134.88" y1="320.82" x2="135.08" y2="307.48"/><line class="cls-49" x1="139.21" y1="321.15" x2="139.41" y2="307.81"/><line class="cls-49" x1="143.55" y1="321.47" x2="143.75" y2="308.13"/><line class="cls-49" x1="147.89" y1="321.8" x2="148.08" y2="308.45"/><path class="cls-48" d="M166.7,307.25a20.11,20.11,0,0,0-7.66-2.44,66.38,66.38,0,0,0-17.84,0l2.5.82A132.45,132.45,0,0,0,166.7,307.25Z"/><path class="cls-44" d="M166.7,307.25a20.11,20.11,0,0,0-7.66-2.44,66.38,66.38,0,0,0-17.84,0l2.5.82A132.45,132.45,0,0,0,166.7,307.25Z"/><path class="cls-43" d="M185.64,297.06c-12.73,6.23-15.76,9.75-21.51,10.31.29,2.57-1.8,5.12-1.93,7.72a54.87,54.87,0,0,0,.41,8.43c1.34,0,2.74,0,4.22,0,3.32-.07,12.79-3.32,24.56-5.82Z"/><path class="cls-44" d="M291.87,281.17c-5.07,7.43-25.5,15.64-43.9,22.22-1.87.67-4.1,1.42-6.61,2.23-12.92,4.17-33.2,9.83-49.62,13.32l-6.63-23.71c7.77-3.8,16.37-7.91,24.62-11.82,19.5-9.24,37.05-17.31,37.05-17.31s22.91-11.87,29.77-12.35,13.05-1.14,17,4.45S296.93,273.73,291.87,281.17Z"/><path class="cls-53" d="M184.7,294.16a71.52,71.52,0,0,0,7.07,25.17.67.67,0,0,0,.64.37l8.5-.78a.64.64,0,0,0,.52-.89,175.35,175.35,0,0,1-9.63-27.45.64.64,0,0,0-.94-.39L185,293.53A.64.64,0,0,0,184.7,294.16Z"/><path class="cls-44" d="M291.87,281.17c-5.07,7.43-25.5,15.64-43.9,22.22-1.87.67-4.1,1.42-6.61,2.23A138.46,138.46,0,0,1,215,307.19c-10.84-.2-14.8-9.18-8.13-19.77a45.47,45.47,0,0,1,2.85-4c19.5-9.24,37.05-17.31,37.05-17.31s22.91-11.87,29.77-12.35,13.05-1.14,17,4.45S296.93,273.73,291.87,281.17Z"/><path class="cls-43" d="M122.47,230.86c-6,6.72-14,14.39-22.27,22.65.59.89,4.31,5.68,5.69,7.56,2-.86,18.28-8.22,31.76-18.26C132.81,238.59,127.6,234.77,122.47,230.86Z"/><path class="cls-43" d="M100.45,253.36a7.31,7.31,0,0,1-2.8,1.13,21.93,21.93,0,0,0-15.72-7.14c-.54,0-4.13.09-4.13.63,0,3.55,9.56,3.43,9.56,9.31,0,.74-.79,1.07-3.5.8-3.34-.33-5.64-1.5-6.32-3s.56-3,.79-3.75c.41-1.23-.7-3.32-1.44-3.32-.44,0-3.09,4-3.09,6.74,0,6.28,7.44,7.87,5.73,8.15-1,.16-4.07.3-4.68-.09-1.41-.91-1.56-3.12-3.57-3.12-.65,0-2.38.12-2.38.78s3.2,3.32,3.2,3.61c-.58-.19-1.82-.34-1,.67a18.94,18.94,0,0,0,6.34,5.19c-.74,1.39,3.18,2.37,4.53,2.37,1,0,12.1-3.15,18-7.6a44.81,44.81,0,0,1,5.91-3.64C105.89,258.32,103.32,254.37,100.45,253.36Z"/><path class="cls-45" d="M156,192.23l0,0c.33-1.32.69-2.72,1.08-4.17l.07-40.89c-15.4,1.87-23,39.07-27.62,63a99.61,99.61,0,0,1-2.58,11c-1.89,5.66-4.39,7.36-5.45,8.72,16.63.1,16.17,14,16.17,14a29.65,29.65,0,0,0,13-15.59c4.08-10.91,3-14,6-26.9A36,36,0,0,1,156,192.23Z"/><path class="cls-43" d="M262.59,230.86c6.05,6.72,14,14.39,22.27,22.65-.59.89-4.31,5.68-5.69,7.56-2-.86-18.28-8.22-31.76-18.26C252.25,238.59,257.46,234.77,262.59,230.86Z"/><path class="cls-43" d="M284.61,253.36a7.31,7.31,0,0,0,2.8,1.13,21.93,21.93,0,0,1,15.72-7.14c.54,0,4.13.09,4.13.63,0,3.55-9.56,3.43-9.56,9.31,0,.74.79,1.07,3.5.8,3.34-.33,5.64-1.5,6.32-3s-.56-3-.79-3.75c-.41-1.23.7-3.32,1.44-3.32.44,0,3.09,4,3.09,6.74,0,6.28-7.45,7.87-5.73,8.15.94.16,4.07.3,4.67-.09,1.41-.91,1.57-3.12,3.58-3.12.65,0,2.38.12,2.38.78s-3.2,3.32-3.2,3.61c.58-.19,1.82-.34,1,.67a18.94,18.94,0,0,1-6.34,5.19c.74,1.39-3.18,2.37-4.53,2.37-1.05,0-12.1-3.15-18.05-7.6a44.81,44.81,0,0,0-5.91-3.64C279.17,258.32,281.74,254.37,284.61,253.36Z"/><path class="cls-45" d="M229.36,192.23l0,0c-.33-1.32-.69-2.72-1.08-4.17l-.07-40.89c15.4,1.87,23,39.07,27.62,63a99.61,99.61,0,0,0,2.58,11c1.89,5.66,4.39,7.36,5.45,8.72-16.63.1-16.17,14-16.17,14a29.65,29.65,0,0,1-13-15.59c-4.08-10.91-3-14-6.05-26.9A36,36,0,0,0,229.36,192.23Z"/><path class="cls-45" d="M263.9,229.85A39.79,39.79,0,0,1,261,226.5c-.06-.09-.13-.18-.19-.28a19.78,19.78,0,0,1-1.62-3c-.19-.43-.38-.91-.56-1.41-.08-.21-.15-.42-.23-.65a100,100,0,0,1-2.57-11c-2.86,3.6-6.74,6.26-11.43,6.26-5.78,0-7.62-5-7.91-10.87a53.25,53.25,0,0,0-3.18-14.72,104,104,0,0,0-13.47-25.67l0,.07-.05-.07s.64,29.67-3.79,33.65c-4.9,4.39-19.71.73-23.37.44-3.64.29-18.51,3.95-23.4-.44-4.39-3.94-3.81-33-3.79-33.64a1.46,1.46,0,0,0-.16.19,1.13,1.13,0,0,1-.1.13c-4.86,6.49-15.64,25-16.39,40.06-.29,5.82-2.14,10.87-7.91,10.87-4.69,0-8.58-2.66-11.43-6.26a99.61,99.61,0,0,1-2.58,11c-.07.23-.14.44-.22.65-.18.5-.37,1-.56,1.41-.05.11-.09.21-.14.31s-.13.29-.2.42a2.81,2.81,0,0,1-.19.39,18,18,0,0,1-1.09,1.91c-.06.1-.13.19-.19.28-.37.52-.73,1-1.07,1.37l-.39.44-.18.2c-.12.14-.24.26-.36.38l-.32.35c-.1.11-.2.21-.29.32l-.25.29c16.63.1,16.17,14,16.17,14a29.65,29.65,0,0,0,13-15.59c4.08-10.91,3-14,6-26.9a15.85,15.85,0,0,0,2.13,5.24c.17.27.34.52.51.77a27,27,0,0,1,1.79,2.66,5,5,0,0,1,.26.52l0,0,.12.29h0c0,.13.1.27.14.4a4.1,4.1,0,0,1,.14.53,3.12,3.12,0,0,1,.09.44c0,.12,0,.24,0,.36s0,.28,0,.43,0,.57.05,1c.19,3.77.59,13.82.79,18.21,0,.09,0,.16,0,.23.09-.77,2.3-18.78,6.94-20.18,2.34-.71,17.62-3.52,22.95-3.68,5.34.16,20.58,3,22.92,3.68,4.64,1.4,6.85,19.41,6.94,20.18.21-4.7.69-16.8.85-19.41a.43.43,0,0,1,0-.15c.31-4.29,3.75-4.91,5.25-11.43a.36.36,0,0,0,0-.1l0,.08c3,12.8,2,15.94,6.06,26.83a29.6,29.6,0,0,0,13,15.59S247.27,230,263.9,229.85Z"/><path class="cls-54" d="M135.75,232.42c-3.07-3.65-8.31-5.26-11.41-5.92.06-.09.13-.18.19-.28a20.69,20.69,0,0,0,1.62-3c8-.29,14.11,4.8,14.45,5.09-3.6-2.37-12.92-3.09-13.2-2.66S134.59,229,135.75,232.42Z"/><path class="cls-54" d="M249.63,232.42c3.07-3.65,8.31-5.26,11.41-5.92-.06-.09-.13-.18-.19-.28a20.69,20.69,0,0,1-1.62-3c-8-.29-14.11,4.8-14.45,5.09,3.6-2.37,12.92-3.09,13.2-2.66S250.79,229,249.63,232.42Z"/><path class="cls-55" d="M214.1,141.94c.83-8.25-2.88-10.65-4.27-18.14-1.57-8.49,2.47-21.72,2.47-26.39,0-9.12-5-14.53-8.74-18.67-2.29-2.52-4.13-4.56-4.13-6.68s-.22-1.91,1.39-3.67l.11-.12a4,4,0,0,1,1-.74h0l.25-.11a5.67,5.67,0,0,1,3.71-.17c10.18,3,17.6,14.46,17.6,23.59,0,14.24-7.19,31.73-6.54,36.48,1.05,7.58,4.25,9.3,7.11,18.95A47.1,47.1,0,0,1,214.1,141.94Z"/><path class="cls-56" d="M203.88,75.56a13.63,13.63,0,0,1-.32,3.18c-2.29-2.52-4.13-4.56-4.13-6.68s-.22-1.91,1.39-3.67l.11-.12a4.47,4.47,0,0,0,1-.74h0l.21-.22a.36.36,0,0,0,0,.11A25.66,25.66,0,0,1,203.88,75.56Z"/><path class="cls-55" d="M190,83.69c-7.65,2-15.61,4.63-16.32,16.54-1.13,18.85-7.4,20.7-8.27,32.28-.37,5,9.62,11.9,9.62,15.85,0,7.94-6.09,7.77-4.17,13.44,2,5.95,5.08,7.4,5.08,13.7,0,5.21-2.09,7.91-4.24,13.51-1.85,4.82.13,10.2-4,12.39a11.81,11.81,0,0,1-5.52,1c-11.38,0-8.32-11.5-11.5-23-.73-2.63-3.3-5.11-5.49-8.21A12.16,12.16,0,0,1,140.28,161c0-8.45,7.08-9.21,7.76-18.3-.66-7.64-3.54-6.26-2.24-15.34h0c1.66-7.58,10.82-8.52,14.17-12.71,6.37-8-1-24.44,6-37,11.24-20.34,31.15-16.31,35.6-10.76a5.33,5.33,0,0,1,.59.93C202.91,74.66,198.07,81.61,190,83.69Z"/><path class="cls-57" d="M201.56,66.83c-3.64-.09-7.48-.75-11.2-.75-12.08,0-21.05,12.17-21.05,22.6,0,2.78-2.5,25.21-5.7,28.82-12.37,14-6.29,21.26-6.29,30,0,7.18-3.92,10.07-3.92,15,0,6.5,15.66,17.68,14.3,39a11.81,11.81,0,0,1-5.52,1c-11.38,0-8.32-11.5-11.5-23-.73-2.63-3.3-5.11-5.49-8.21A12.16,12.16,0,0,1,140.28,161c0-8.45,7.08-9.21,7.76-18.3-.66-7.64-3.54-6.26-2.24-15.34h0c1.66-7.58,10.79-12.15,13-17,4.33-9.46.16-20.13,7.11-32.71C177.2,57.25,197.11,61.28,201.56,66.83Z"/></g></g></g></svg>