<svg xmlns="http://www.w3.org/2000/svg" viewBox="0 0 37.46 36.28"><defs><style>.cls-1{fill:#fff;}</style></defs><g id="Layer_2" data-name="Layer 2"><g id="Layer_1-2" data-name="Layer 1"><path class="cls-1" d="M31.69,36.28h-10a.64.64,0,0,1-.64-.64V25.53H16.46V35.64a.64.64,0,0,1-.64.64H5.76a.64.64,0,0,1-.64-.64v-19H.64a.64.64,0,0,1-.41-1.13l5.58-4.74V3.71a.64.64,0,0,1,.64-.64h4a.64.64,0,0,1,.64.64V6.26L18.31.15a.65.65,0,0,1,.83,0L37.23,15.52a.64.64,0,0,1,.19.71.66.66,0,0,1-.6.42H32.33v19A.64.64,0,0,1,31.69,36.28ZM22.28,35h8.77V16a.64.64,0,0,1,.64-.64h3.39L18.73,1.48,10.9,8.13a.64.64,0,0,1-1.05-.49V4.35H7.09v6.72a.62.62,0,0,1-.23.49L2.38,15.37H5.76A.64.64,0,0,1,6.4,16V35h8.78V24.89a.64.64,0,0,1,.64-.64h5.82a.64.64,0,0,1,.64.64Z"/></g></g></svg>