<svg xmlns="http://www.w3.org/2000/svg" xmlns:xlink="http://www.w3.org/1999/xlink" viewBox="0 0 57.12 52.16"><defs><style>.cls-1{fill:url(#linear-gradient);}.cls-2{fill:url(#linear-gradient-2);}.cls-3{fill:url(#linear-gradient-3);}.cls-4{fill:url(#linear-gradient-4);}.cls-5{fill:url(#linear-gradient-5);}</style><linearGradient id="linear-gradient" x1="-40.25" y1="-1614.21" x2="-28.81" y2="-1614.21" gradientTransform="matrix(0.97, -0.26, -0.26, -0.97, -347.33, -1523.12)" gradientUnits="userSpaceOnUse"><stop offset="0.1" stop-color="#b6efb0"/><stop offset="1" stop-color="#6bd8c9"/></linearGradient><linearGradient id="linear-gradient-2" x1="-41.23" y1="-1590.92" x2="-29.79" y2="-1590.92" xlink:href="#linear-gradient"/><linearGradient id="linear-gradient-3" x1="-61.24" y1="-1600.65" x2="-49.81" y2="-1600.65" xlink:href="#linear-gradient"/><linearGradient id="linear-gradient-4" x1="2542.64" y1="-1698.09" x2="2563.55" y2="-1698.09" gradientTransform="matrix(-0.47, 0.88, 0.88, 0.47, 2753.62, -1422.92)" xlink:href="#linear-gradient"/><linearGradient id="linear-gradient-5" x1="1770.07" y1="-2069.14" x2="1790.97" y2="-2069.14" gradientTransform="matrix(0.54, 0.84, 0.84, -0.54, 773.02, -2608.34)" xlink:href="#linear-gradient"/></defs><g id="Layer_2" data-name="Layer 2"><g id="Layer_1-2" data-name="Layer 1"><circle class="cls-1" cx="31.26" cy="46.44" r="5.72"/><circle class="cls-2" cx="24.37" cy="24.17" r="5.72"/><circle class="cls-3" cx="7.5" cy="38.69" r="5.72"/><path id="Brown" class="cls-4" d="M51.46,24.25c-3.28,2.7-11.77,3.48-11.77,3.48s2.28-8.1,5.66-10.88c3.22-2.65,11.77-3.48,11.77-3.48S54.74,21.55,51.46,24.25Z"/><path id="Brown-2" data-name="Brown" class="cls-5" d="M9.55,10.2c.79,4.18-2.62,12-2.62,12S.93,16.29.11,12C-.66,7.89,2.73,0,2.73,0S8.76,6,9.55,10.2Z"/></g></g></svg>