<svg xmlns="http://www.w3.org/2000/svg" xmlns:xlink="http://www.w3.org/1999/xlink" viewBox="0 0 488.7 259.97"><defs><style>.cls-1{fill:none;}.cls-2{fill:url(#linear-gradient);}.cls-3{fill:url(#linear-gradient-2);}.cls-4{clip-path:url(#clip-path);}.cls-5{fill:#f4f6f6;}.cls-6{fill:url(#linear-gradient-3);}.cls-7{clip-path:url(#clip-path-2);}.cls-8{fill:url(#linear-gradient-4);}.cls-9{fill:url(#linear-gradient-5);}.cls-10{fill:url(#linear-gradient-6);}.cls-11{fill:url(#linear-gradient-7);}.cls-12{fill:url(#linear-gradient-8);}.cls-13{fill:url(#linear-gradient-9);}.cls-14{fill:url(#linear-gradient-10);}.cls-15{fill:url(#linear-gradient-11);}.cls-16{fill:url(#linear-gradient-12);}.cls-17{fill:url(#linear-gradient-13);}.cls-18{fill:url(#linear-gradient-14);}.cls-19{fill:url(#linear-gradient-15);}.cls-20{fill:url(#linear-gradient-16);}.cls-21{fill:url(#linear-gradient-17);}.cls-22{fill:url(#linear-gradient-18);}.cls-23{fill:url(#linear-gradient-19);}.cls-24{fill:url(#linear-gradient-20);}.cls-25{fill:url(#linear-gradient-21);}.cls-26{fill:url(#linear-gradient-22);}.cls-27{fill:url(#linear-gradient-23);}.cls-28{fill:url(#linear-gradient-24);}.cls-29{fill:url(#linear-gradient-25);}.cls-30{clip-path:url(#clip-path-3);}.cls-31{clip-path:url(#clip-path-4);}.cls-32{fill:url(#linear-gradient-26);}</style><linearGradient id="linear-gradient" x1="265.13" y1="138.98" x2="395.73" y2="138.98" gradientUnits="userSpaceOnUse"><stop offset="0.1" stop-color="#b3efad"/><stop offset="1" stop-color="#66d8c8"/></linearGradient><linearGradient id="linear-gradient-2" x1="0.18" y1="202.7" x2="162.94" y2="202.7" xlink:href="#linear-gradient"/><clipPath id="clip-path" transform="translate(10.83)"><path class="cls-1" d="M129.17,250.72c10.6-2.18,27.79-5.39,32.35-16.88,1.46-3.67,1.39-7.77,1-11.7a77.47,77.47,0,0,0-8.85-28.88c-1.45-2.7-3.15-5.41-5.73-7.08s-6.24-2-8.6-.06-3.42,4.71-7,3c-6.47-3.1-10.24-11.33-14.61-16.61-3.18-3.84-10.36-10.87-16-8.11-3.85,1.88-3.3,8.51-7.78,9.54a5.56,5.56,0,0,1-4.51-1.45c-7.71-6.23-15.39-19.31-26.58-18.72a7.14,7.14,0,0,0-6,3.31c-1.18,2.2-.7,5-1.79,7.23-1.29,2.66-4.56,3.87-7.51,3.67s-5.69-1.55-8.36-2.82C32.52,162,25.49,159.08,18.12,159,6.23,158.87-6.25,169,3.5,180.72c3.79,4.58,10.35,5.54,16.28,5.85,5.49.28,22.18.67,17.29,10.11-.94,1.81-2.28,3.44-2.82,5.4-1.09,4,1.57,8.24,5.23,10.11s8,1.8,12.06,1.12,8-1.91,12.11-2.22c3-.23,6.83.62,7.56,3.57s-2.42,5.67-3.1,8.75c-.78,3.48,1.9,7,5.19,8.36s7,1.19,10.54,1l10.58-.67c3.78-.24,8.36-.08,10.29,3.17,1.18,2,.92,4.48,1.41,6.73,1,4.47,5.06,7.77,9.47,9S124.69,251.64,129.17,250.72Z"/></clipPath><linearGradient id="linear-gradient-3" x1="272.67" y1="210.79" x2="474.44" y2="210.79" xlink:href="#linear-gradient"/><clipPath id="clip-path-2" transform="translate(10.83)"><path class="cls-1" d="M312.18,204c-10.49,2.63-27.38,7.18-36.47-1.21-2.91-2.68-4.62-6.4-6-10.12a77.44,77.44,0,0,1-4.53-29.86c.14-3.07.5-6.25,2.1-8.87s4.75-4.52,7.73-3.78,5.13,2.77,7.64-.36c4.49-5.6,4.33-14.65,6-21.3,1.2-4.84,4.63-14.28,10.92-14.24,4.28,0,6.66,6.23,11.15,5.22a5.5,5.5,0,0,0,3.43-3.26c4.26-9,5.52-24.07,15.86-28.38a7.11,7.11,0,0,1,6.82.4c2,1.46,2.78,4.19,4.74,5.74,2.32,1.84,5.79,1.52,8.36,0s4.46-3.86,6.32-6.16c4.64-5.73,9.72-11.39,16.33-14.66,10.66-5.26,26.29-1.54,22.59,13.26-1.45,5.77-6.94,9.47-12.16,12.32-4.82,2.63-19.7,10.21-11.2,16.6,1.63,1.23,3.55,2.11,4.88,3.65,2.7,3.1,2.15,8.11-.34,11.38s-6.44,5.09-10.38,6.24-8.06,1.75-11.88,3.24c-2.84,1.1-5.89,3.51-5.27,6.49s4.63,4.06,6.58,6.54c2.21,2.8,1.3,7.12-1.05,9.79s-5.79,4.1-9.1,5.43l-9.83,4c-3.51,1.42-7.57,3.54-7.9,7.31-.21,2.3,1.11,4.43,1.64,6.68,1,4.45-1.19,9.2-4.64,12.21S316.62,202.89,312.18,204Z"/></clipPath><linearGradient id="linear-gradient-4" x1="227.24" y1="126.74" x2="293.58" y2="126.74" xlink:href="#linear-gradient"/><linearGradient id="linear-gradient-5" x1="121.75" y1="116.76" x2="234.37" y2="116.76" xlink:href="#linear-gradient"/><linearGradient id="linear-gradient-6" x1="60.75" y1="157.66" x2="172.23" y2="157.66" xlink:href="#linear-gradient"/><linearGradient id="linear-gradient-7" x1="34.81" y1="87.56" x2="62.68" y2="87.56" xlink:href="#linear-gradient"/><linearGradient id="linear-gradient-8" x1="46.57" y1="106.1" x2="72.42" y2="106.1" xlink:href="#linear-gradient"/><linearGradient id="linear-gradient-9" x1="64.71" y1="92.71" x2="72.42" y2="92.71" xlink:href="#linear-gradient"/><linearGradient id="linear-gradient-10" x1="59.43" y1="116.76" x2="85.3" y2="116.76" xlink:href="#linear-gradient"/><linearGradient id="linear-gradient-11" x1="78.76" y1="104.32" x2="85.79" y2="104.32" xlink:href="#linear-gradient"/><linearGradient id="linear-gradient-12" x1="70.67" y1="131.15" x2="100.44" y2="131.15" xlink:href="#linear-gradient"/><linearGradient id="linear-gradient-13" x1="93.28" y1="117.14" x2="101.27" y2="117.14" xlink:href="#linear-gradient"/><linearGradient id="linear-gradient-14" x1="85.67" y1="145.65" x2="115.38" y2="145.65" xlink:href="#linear-gradient"/><linearGradient id="linear-gradient-15" x1="109.24" y1="132.48" x2="117.03" y2="132.48" xlink:href="#linear-gradient"/><linearGradient id="linear-gradient-16" x1="98.58" y1="163.12" x2="132.6" y2="163.12" xlink:href="#linear-gradient"/><linearGradient id="linear-gradient-17" x1="126.95" y1="149.18" x2="135.75" y2="149.18" xlink:href="#linear-gradient"/><linearGradient id="linear-gradient-18" x1="114.9" y1="180.46" x2="148.54" y2="180.46" xlink:href="#linear-gradient"/><linearGradient id="linear-gradient-19" x1="144.89" y1="168.23" x2="153.67" y2="168.23" xlink:href="#linear-gradient"/><linearGradient id="linear-gradient-20" x1="332.89" y1="36.2" x2="347.16" y2="36.2" xlink:href="#linear-gradient"/><linearGradient id="linear-gradient-21" x1="331.66" y1="7.13" x2="345.93" y2="7.13" xlink:href="#linear-gradient"/><linearGradient id="linear-gradient-22" x1="306.69" y1="19.28" x2="320.96" y2="19.28" xlink:href="#linear-gradient"/><linearGradient id="linear-gradient-23" x1="99.57" y1="66.66" x2="113.84" y2="66.66" xlink:href="#linear-gradient"/><linearGradient id="linear-gradient-24" x1="31.16" y1="115.91" x2="45.42" y2="115.91" xlink:href="#linear-gradient"/><linearGradient id="linear-gradient-25" x1="28.35" y1="136.45" x2="42.62" y2="136.45" xlink:href="#linear-gradient"/><clipPath id="clip-path-3" transform="translate(10.83)"><path class="cls-1" d="M370,220.13l20.52,5.62c35.31-22.76,66.37-50.62,83.91-59.42-4.44-.4-55.16-3.42-87.54-1.07l-6.46,14-.17-13.46c-3.41.37-6.52.81-9.22,1.35-38.58,7.71-86.55,27.63-97.68,69.67-4.68,17.65,15.05,20.87,28.08,21.34,26.46.95,54.67-11.35,81-27.37Z"/></clipPath><clipPath id="clip-path-4" transform="translate(10.83)"><path class="cls-1" d="M165.39,128.13l-19.23-9.33C134.53,78.24,129.47,36.63,122,18.38c3.63,2.64,44,33.9,66.9,57.09l-4.41,14.89,9-10.06c2.34,2.53,4.4,4.93,6.08,7.12,24.07,31.34,47.17,78.13,27.77,117.28-8.14,16.44-25.18,5.82-35.34-2.45-20.63-16.78-33.83-44.74-43.13-74.25Z"/></clipPath><linearGradient id="linear-gradient-26" x1="4.79" y1="212.79" x2="466.71" y2="212.79" xlink:href="#linear-gradient"/></defs><g id="Layer_2" data-name="Layer 2"><g id="Layer_1-2" data-name="Layer 1"><path class="cls-2" d="M312.18,203.7c-10.49,2.63-27.38,7.18-36.47-1.21-2.91-2.68-4.62-6.4-6-10.12a77.44,77.44,0,0,1-4.53-29.86c.14-3.07.5-6.25,2.1-8.87s4.75-4.52,7.73-3.78,5.13,2.77,7.64-.36c4.49-5.6,4.33-14.65,6-21.3,1.2-4.84,4.63-14.28,10.92-14.24,4.28,0,6.66,6.23,11.15,5.22a5.5,5.5,0,0,0,3.43-3.26c4.26-9,5.52-24.07,15.86-28.38a7.11,7.11,0,0,1,6.82.4c2,1.46,2.78,4.19,4.74,5.74,2.32,1.84,5.79,1.52,8.36,0s4.46-3.86,6.32-6.16c4.64-5.73,9.72-11.39,16.33-14.66,10.66-5.26,26.29-1.54,22.59,13.26-1.45,5.77-6.94,9.47-12.16,12.32-4.82,2.63-19.7,10.21-11.2,16.6,1.63,1.23,3.55,2.11,4.88,3.65,2.7,3.1,2.15,8.11-.34,11.38s-6.44,5.09-10.38,6.24-8.06,1.75-11.88,3.24c-2.84,1.1-5.89,3.51-5.27,6.49s4.63,4.06,6.58,6.54c2.21,2.8,1.3,7.12-1.05,9.79s-5.79,4.1-9.1,5.43l-9.83,4c-3.51,1.42-7.57,3.54-7.9,7.31-.21,2.3,1.11,4.43,1.64,6.68,1,4.45-1.19,9.2-4.64,12.21S316.62,202.59,312.18,203.7Z" transform="translate(10.83)"/><path class="cls-3" d="M129.35,250.72c10.59-2.18,27.78-5.39,32.35-16.88,1.46-3.67,1.39-7.77,1-11.7a77.28,77.28,0,0,0-8.84-28.88c-1.45-2.7-3.16-5.41-5.73-7.08s-6.24-2-8.6-.06-3.43,4.71-7,3c-6.47-3.1-10.24-11.33-14.62-16.61-3.17-3.84-10.35-10.87-16-8.11-3.85,1.88-3.31,8.51-7.78,9.54a5.55,5.55,0,0,1-4.51-1.45c-7.71-6.23-15.39-19.31-26.58-18.72a7.13,7.13,0,0,0-6,3.31c-1.19,2.2-.7,5-1.79,7.23-1.3,2.66-4.56,3.87-7.51,3.67s-5.69-1.55-8.36-2.82C32.69,162,25.67,159.08,18.29,159c-11.88-.13-24.36,10-14.61,21.72C7.47,185.3,14,186.26,20,186.57c5.49.28,22.18.67,17.28,10.11-.93,1.81-2.28,3.44-2.82,5.4-1.08,4,1.58,8.24,5.24,10.11s8,1.8,12.06,1.12,8-1.91,12.11-2.22c3-.23,6.82.62,7.56,3.57s-2.42,5.67-3.11,8.75c-.77,3.48,1.91,7,5.19,8.36s7,1.19,10.55,1l10.58-.67c3.78-.24,8.36-.08,10.29,3.17,1.18,2,.91,4.48,1.41,6.73,1,4.47,5.06,7.77,9.46,9S124.87,251.64,129.35,250.72Z" transform="translate(10.83)"/><g class="cls-4"><path class="cls-5" d="M179.64,247.73c-15.22-9.4-30.86-18.57-46.48-27.27-10-5.55-19.92-10.07-30.44-14.86-4.2-1.91-8.54-3.88-12.83-5.91-6-2.81-12.14-5.72-18.31-8.37C45.09,180,16.66,172.64-10.83,165.55l1-3.75c27.63,7.12,56.21,14.48,83,26,6.23,2.67,12.43,5.6,18.43,8.43,4.27,2,8.6,4,12.79,5.88,10.13,4.61,20.6,9.38,30.71,15,15.68,8.72,31.37,17.93,46.64,27.35Z" transform="translate(10.83)"/><path class="cls-5" d="M48.41,233.5a35.32,35.32,0,0,1-8-.82l.9-3.77c19.69,4.71,67.54-14.7,76.61-18.49-4.55-18.39-17.95-50-25.82-60.74l3.13-2.3c8.32,11.33,22.62,45.28,26.84,63.75l.36,1.57-1.48.64C118.82,214.25,74.14,233.5,48.41,233.5Z" transform="translate(10.83)"/><path class="cls-5" d="M19.47,211.85V208c13.41,0,51.61-11.57,61.26-14.56-4.55-8.39-22.16-40.19-34.59-52.73L48.89,138c14.7,14.84,35.48,54,36.36,55.71l1.08,2.05-2.21.7C82.14,197.05,35.38,211.82,19.47,211.85Z" transform="translate(10.83)"/><path class="cls-5" d="M96.82,256l-.75-3.81c21.34-4.22,46.3-23.38,50.31-26.55,3.36-19.26-1.72-36.6-6.77-51.36l3.66-1.25c5.27,15.4,10.58,33.56,6.79,54l-.13.7-.55.45C148.23,229.16,120.94,251.24,96.82,256Z" transform="translate(10.83)"/></g><path class="cls-6" d="M370,219.61l20.52,5.62c35.31-22.76,66.37-50.62,83.91-59.42-4.44-.4-55.16-3.42-87.54-1.07l-6.46,14-.17-13.45c-3.41.36-6.52.81-9.22,1.34-38.58,7.71-86.55,27.63-97.68,69.67-4.68,17.66,15.05,20.87,28.08,21.34,26.46.95,54.67-11.35,81-27.37Z" transform="translate(10.83)"/><g class="cls-7"><path class="cls-5" d="M266.71,222.52l-3.26-2.09c9.67-15.1,19.84-30.19,30.2-44.86,6.68-9.45,14.06-18.28,21.19-26.83,3-3.52,6-7.17,9-10.84,4.18-5.14,8.5-10.46,13-15.58C356,100.39,378.52,81.38,400.35,63l2.5,3c-21.72,18.29-44.18,37.21-63.15,58.92-4.42,5.07-8.72,10.36-12.87,15.47-3,3.69-6.05,7.35-9,10.89-7.42,8.87-14.42,17.25-21,26.58C286.48,192.43,276.35,207.47,266.71,222.52Z" transform="translate(10.83)"/><path class="cls-5" d="M303.16,166.15l-.36-1.57c-4.19-18.48-6-55.29-3.4-69.1l3.81.72c-2.46,13.06-.83,47.39,3,65.94,9.81-.51,61.36-3.73,77.07-16.5l2.45,3c-18.3,14.88-78.45,17.35-81,17.45Z" transform="translate(10.83)"/><path class="cls-5" d="M328.31,135.22l.09-2.31c.07-1.88,1.83-46.23,8.66-66l3.66,1.27c-5.77,16.69-7.88,53-8.34,62.52,10-1.48,49.43-7.62,61.53-13.4l1.67,3.5c-14.36,6.86-62.91,13.79-65,14.08Z" transform="translate(10.83)"/><path class="cls-5" d="M324,196.42a184.23,184.23,0,0,1-38.45-4.59l-.69-.16-.42-.58c-12.27-16.81-15.35-35.48-17.27-51.65L271,139c1.84,15.5,4.76,33.33,16.13,49.24,5,1.12,35.79,7.59,56.86,2.16l1,3.75A85.49,85.49,0,0,1,324,196.42Z" transform="translate(10.83)"/></g><path class="cls-8" d="M279.12,70.89c2.39-.59,17.14-5.23,14-10.08-1-1.64-3.94-1.12-5.38-.55a25.31,25.31,0,0,0-6.42,4.2c-2.65,2.14-7.29,6.1-9.5,8a129.89,129.89,0,0,1,4.72-12.3l-.3-.13c1.45-2.12,3.79-5.46,5.34-7.4,2-2.47,13.44-18.73,6.48-21.27-2.34-.86-4.89,1.93-5.92,3.64a32.6,32.6,0,0,0-3.3,9.31c-1,4.16-2.62,11.59-3.42,15.34l0,0a132.58,132.58,0,0,0-4.93,12.92c-.27-1.8-.81-5.63-1-7.83-.17-2.46-2.17-17.79-7.48-15.59-1.79.75-1.79,3.68-1.48,5.2a25.73,25.73,0,0,0,3,7.06c1.88,3.41,5.66,9.81,6.74,11.63-1.55,4.67-3.18,10-4.85,16-.38-1.87-1.07-5.39-1.33-7.47-.3-2.45-3.13-17.64-8.32-15.15-1.75.84-1.58,3.77-1.19,5.27a25.22,25.22,0,0,0,3.4,6.88c2,3.21,6,9.14,7.26,11.09-1.69,6.06-3.42,12.68-5.12,19.68-.47-2.15-1.32-6.18-1.65-8.57-.4-2.81-3.92-20.25-9.84-17.29-2,1-1.76,4.36-1.28,6.08a29.58,29.58,0,0,0,4,7.87c2.38,3.67,7,10.44,8.57,12.65-1.58,6.49-3.12,13.31-4.6,20.31-.55-2.1-1.59-6.18-2-8.59-.5-2.79-4.76-20.07-10.55-16.86-2,1.08-1.57,4.43-1,6.13a29.14,29.14,0,0,0,4.35,7.69c2.54,3.59,7.54,10.23,9.12,12.32-1.69,8-3.29,16.31-4.72,24.62-.73-2.27-2.27-7.2-2.95-10.07-.75-3.17-6.67-22.76-13.14-18.73-2.17,1.35-1.53,5.19-.8,7.11,1.21,3.17,3.35,5.9,5.46,8.57,3.2,4.05,9.53,11.6,11.32,13.74-1.38,8.07-2.62,16.16-3.63,24.09-.88-2.15-2.85-7.05-3.76-9.91-1-3.11-8.41-22.18-14.55-17.67-2.06,1.52-1.13,5.3-.25,7.15,1.46,3.08,3.8,5.63,6.1,8.13,3.52,3.81,10.47,10.91,12.39,12.86a331.06,331.06,0,0,0-3,41.4H245a328.74,328.74,0,0,1,3-41.38c1.84-1.16,6.56-4.11,9.31-5.56s20.37-12.13,14.86-17.39c-1.86-1.77-5.41-.19-7.08,1-2.78,2-4.88,4.71-6.94,7.42-2.9,3.8-8,11-10.06,13.8,1-7.82,2.23-15.8,3.59-23.76,1.9-1,6.88-3.6,9.76-4.84s21.25-10.53,16.16-16.2c-1.72-1.91-5.38-.61-7.14.45a33.63,33.63,0,0,0-7.49,6.86c-3.22,3.62-9,10.48-11.18,13.09,1.43-8.26,3-16.47,4.69-24.46,1.73-.8,6.11-2.81,8.64-3.75s18.92-8.18,14.76-13.33c-1.4-1.73-4.64-.77-6.22.07a29.28,29.28,0,0,0-6.81,5.62c-2.94,3-8.2,8.6-10.25,10.81,1.48-7,3-13.82,4.59-20.31,1.73-.72,6.24-2.56,8.83-3.4s19.26-7.38,15.31-12.7c-1.33-1.79-4.6-1-6.22-.19a29.51,29.51,0,0,0-7,5.33c-3.08,2.87-8.65,8.35-10.75,10.42,1.73-7.11,3.48-13.83,5.2-20,1.63-.64,5.36-2.09,7.54-2.76,2.35-.73,16.82-6.16,13.46-10.84-1.13-1.57-4-.9-5.4-.25A25.33,25.33,0,0,0,276,80.6c-2.61,2.36-7.24,6.77-9.24,8.69,1.69-6,3.34-11.41,4.91-16.11C273.36,72.61,277,71.42,279.12,70.89Z" transform="translate(10.83)"/><path class="cls-9" d="M165.12,129l-19.23-9.32C134.26,79.15,129.2,37.54,121.75,19.28c3.63,2.64,44,33.91,66.9,57.1l-4.41,14.89,9-10.06c2.34,2.53,4.4,4.92,6.08,7.11,24.08,31.35,47.17,78.13,27.78,117.28-8.15,16.44-25.19,5.82-35.35-2.44-20.63-16.78-33.83-44.74-43.13-74.26Z" transform="translate(10.83)"/><path class="cls-10" d="M60.75,96.53c20.82,14,83.53,76.1,111.48,122.25" transform="translate(10.83)"/><path class="cls-11" d="M50.17,84.72a32.91,32.91,0,0,0-7.66-6.23c-1.77-.93-5.4-2-6.95,0-4.62,5.79,13.63,13.71,16.61,14.79,3.58,1.31,10.51,4.5,10.51,4.5S54.34,88.88,50.17,84.72Z" transform="translate(10.83)"/><path class="cls-12" d="M58.55,103.23a25.34,25.34,0,0,0-7.67-.24c-1.53.26-4.27,1.32-4.31,3.26-.12,5.75,14.88,2,17.24,1.31,2.82-.89,8.61-2.18,8.61-2.18S63.08,103.83,58.55,103.23Z" transform="translate(10.83)"/><path class="cls-13" d="M72.13,91.34A25.49,25.49,0,0,0,71,83.75c-.53-1.46-2-4-4-3.68-5.68.89.58,15,1.72,17.2,1.36,2.63,3.64,8.11,3.64,8.11S72.32,95.91,72.13,91.34Z" transform="translate(10.83)"/><path class="cls-14" d="M71.57,114.2a25.38,25.38,0,0,0-7.65-.66c-1.54.18-4.33,1.09-4.48,3-.44,5.74,14.75,2.86,17.14,2.25,2.87-.73,8.72-1.7,8.72-1.7S76.06,115.05,71.57,114.2Z" transform="translate(10.83)"/><path class="cls-15" d="M85.77,103.07a25.42,25.42,0,0,0-.68-7.64c-.44-1.49-1.83-4.08-3.76-3.88-5.72.57-.24,15,.78,17.26,1.21,2.71,3.19,8.3,3.19,8.3S85.72,107.65,85.77,103.07Z" transform="translate(10.83)"/><path class="cls-16" d="M84.68,128.3a29.35,29.35,0,0,0-8.79-.89c-1.77.18-5,1.18-5.2,3.4-.6,6.6,16.92,3.54,19.68,2.88,3.32-.79,10.07-1.81,10.07-1.81S89.84,129.35,84.68,128.3Z" transform="translate(10.83)"/><path class="cls-17" d="M101.22,115.74a29.24,29.24,0,0,0-.66-8.81c-.48-1.71-2-4.72-4.25-4.53-6.6.56-.54,17.28.59,19.88,1.36,3.13,3.54,9.6,3.54,9.6S101.08,121,101.22,115.74Z" transform="translate(10.83)"/><path class="cls-18" d="M99.79,143.06a29,29,0,0,0-8.74-1.26c-1.79.1-5,1-5.35,3.18-.88,6.56,16.76,4.24,19.55,3.7,3.35-.65,10.13-1.38,10.13-1.38S104.9,144.33,99.79,143.06Z" transform="translate(10.83)"/><path class="cls-19" d="M116.84,131.2a29.59,29.59,0,0,0-.28-8.82c-.42-1.74-1.84-4.81-4.07-4.71-6.61.28-1.26,17.24-.24,19.89,1.23,3.18,3.13,9.74,3.13,9.74S116.48,136.46,116.84,131.2Z" transform="translate(10.83)"/><path class="cls-20" d="M114.94,160.48a33.88,33.88,0,0,0-10-2c-2.06,0-5.86.81-6.33,3.33-1.4,7.49,19,5.88,22.23,5.43,3.88-.55,11.72-1,11.72-1S120.74,162.24,114.94,160.48Z" transform="translate(10.83)"/><path class="cls-21" d="M135.24,147.88c.41-3.37.82-6.81.2-10.15-.37-2-1.82-5.63-4.38-5.66-7.62-.07-2.48,19.73-1.47,22.84,1.21,3.73,3,11.37,3,11.37S134.51,153.89,135.24,147.88Z" transform="translate(10.83)"/><path class="cls-22" d="M131.38,178.2a33.72,33.72,0,0,0-9.78-2.73c-2-.14-5.91.35-6.57,2.83-2,7.36,18.49,7.33,21.74,7.13,3.92-.25,11.77-.08,11.77-.08S137,180.41,131.38,178.2Z" transform="translate(10.83)"/><path class="cls-23" d="M152.59,167.21c.67-3.34,1.34-6.73,1-10.11-.21-2-1.38-5.75-3.93-6-7.59-.66-4,19.48-3.23,22.65.93,3.82,2.13,11.58,2.13,11.58S151.4,173.15,152.59,167.21Z" transform="translate(10.83)"/><circle class="cls-24" cx="340.02" cy="36.2" r="7.13"/><circle class="cls-25" cx="338.8" cy="7.13" r="7.13"/><circle class="cls-26" cx="313.82" cy="19.28" r="7.13"/><circle class="cls-27" cx="106.7" cy="66.66" r="7.13"/><circle class="cls-28" cx="38.29" cy="115.91" r="7.13"/><circle class="cls-29" cx="35.48" cy="136.45" r="7.13"/><g class="cls-30"><path class="cls-5" d="M459.19,193.31c-1.36-.25-33.37-6.23-42.32-9.91l1.47-3.59c8.59,3.54,41.23,9.63,41.56,9.69Z" transform="translate(10.83)"/><path class="cls-5" d="M265.84,260l-2.44-3c27.21-22.11,60.18-41.62,98-58,32.46-14.05,67-22.55,100.48-30.78q7.53-1.85,15.08-3.73l.94,3.76q-7.56,1.89-15.1,3.74c-33.28,8.18-67.7,16.65-99.86,30.56C325.44,218.76,292.78,238.08,265.84,260Z" transform="translate(10.83)"/><path class="cls-5" d="M391.71,190.89l-3.55-1.55c6.57-15,24.11-41,24.86-42.05l3.2,2.18C416,149.73,398.14,176.23,391.71,190.89Z" transform="translate(10.83)"/><path class="cls-5" d="M354.48,205.46l-3.76-.9a290.88,290.88,0,0,1,18.59-51.71l3.49,1.69A287.3,287.3,0,0,0,354.48,205.46Z" transform="translate(10.83)"/><path class="cls-5" d="M431.81,225.69c-15.26-1.5-52.85-18.46-65.53-25.36l1.85-3.4c12.11,6.59,49.55,23.48,64.06,24.9Z" transform="translate(10.83)"/><path class="cls-5" d="M384.77,249.07c-20-1.88-38.61-10.53-66-25.85l1.89-3.38c26.9,15.06,45.14,23.56,64.45,25.38Z" transform="translate(10.83)"/><path class="cls-5" d="M312.89,227l-3.78-.87c.67-2.92,1.33-6,2-9.19,3.93-18.23,8.83-40.92,19.79-56.5l3.17,2.23c-10.51,14.93-15.31,37.19-19.17,55.08C314.23,220.91,313.56,224,312.89,227Z" transform="translate(10.83)"/></g><g class="cls-31"><path class="cls-5" d="M154.51,69.68c-9.21-3.14-37.36-19.79-38.56-20.5l2-3.33c.29.17,29,17.15,37.83,20.16Z" transform="translate(10.83)"/><path class="cls-5" d="M218.05,227.46c-5.89-34.37-17.8-70.57-35.41-107.61-15.11-31.8-35.53-61-55.28-89.17q-4.47-6.39-8.94-12.8l3.18-2.21c3,4.28,6,8.53,8.93,12.79,19.84,28.33,40.36,57.63,55.61,89.72,17.76,37.36,29.78,73.91,35.73,108.63Z" transform="translate(10.83)"/><path class="cls-5" d="M172.27,93.16,168.57,92c4.85-15.34,8.83-47.22,8.87-47.54l3.85.48C181.12,46.26,177.22,77.49,172.27,93.16Z" transform="translate(10.83)"/><path class="cls-5" d="M190.52,129.44l-3.43-1.81A288.55,288.55,0,0,0,206.92,77l3.74,1A293.82,293.82,0,0,1,190.52,129.44Z" transform="translate(10.83)"/><path class="cls-5" d="M181.55,115.94c-14.15-3.17-53.78-15.21-66.31-24.16l2.26-3.16c11.91,8.52,51.39,20.51,64.9,23.54Z" transform="translate(10.83)"/><path class="cls-5" d="M202.31,164.65c-30.81-6.52-50.61-12.29-67-24.09l2.27-3.14c15.8,11.4,35.22,17,65.51,23.44Z" transform="translate(10.83)"/><path class="cls-5" d="M207.74,173.23l-3.42-1.84c1.44-2.66,3-5.45,4.58-8.33,8.92-16.08,20-36.09,21.94-54.33l3.85.4c-2,19-13.32,39.42-22.4,55.81C210.7,167.8,209.16,170.57,207.74,173.23Z" transform="translate(10.83)"/></g><path class="cls-32" d="M456.35,252.9c-6.81-5-15.24-7.12-23.38-9.39s-16.52-4.95-22.67-10.74c-6.56-6.18-10.15-15.52-18-19.93-9.79-5.49-21.26-1.26-31.64-.63-9.17.55-19.95-1.51-27.72-6.63-12.27-8.08-16.75-23.75-28.83-31.93-14.23-9.64-32.64-6.87-47,1.25-7.92,4.47-14.82,10.8-23.31,14.07a36.33,36.33,0,0,1-30.22-2.08c-6.3-3.49-11.38-8.77-17.15-13.08s-12.84-7.74-19.94-6.59c-18.5,3-22.68,32.57-41.14,35.82-4.77.84-9.9-.32-14.36,1.55-6.85,2.87-9.07,11.28-13.64,17.14-10,12.86-31.81,9.52-46.21,11.16C40.53,234.1,30,237,21.15,242.91a39.51,39.51,0,0,0-13.7,15.68h455A31.84,31.84,0,0,0,456.35,252.9Z" transform="translate(10.83)"/></g></g></svg>