<svg xmlns="http://www.w3.org/2000/svg" xmlns:xlink="http://www.w3.org/1999/xlink" viewBox="0 0 23.78 26.94"><defs><style>.cls-1{fill:url(#linear-gradient);}.cls-2{fill:url(#linear-gradient-2);}.cls-3{fill:url(#linear-gradient-3);}.cls-4{fill:url(#linear-gradient-4);}.cls-5{fill:url(#linear-gradient-5);}.cls-6{fill:url(#linear-gradient-6);}</style><linearGradient id="linear-gradient" x1="1424.2" y1="-1621.58" x2="1430.11" y2="-1621.58" gradientTransform="matrix(0.92, 0.39, 0.39, -0.92, -672.68, -2042.29)" gradientUnits="userSpaceOnUse"><stop offset="0.1" stop-color="#98cbe5"/><stop offset="0.18" stop-color="#92c7e4"/><stop offset="0.93" stop-color="#5fa1da"/></linearGradient><linearGradient id="linear-gradient-2" x1="2312.91" y1="-1377.05" x2="2318.71" y2="-1377.05" gradientTransform="matrix(0.79, 0.61, 0.61, -0.79, -972.04, -2495.84)" xlink:href="#linear-gradient"/><linearGradient id="linear-gradient-3" x1="5263" y1="2325.69" x2="5274.04" y2="2325.69" gradientTransform="matrix(-1, 0, 0, 1, 5285.85, -2308.56)" gradientUnits="userSpaceOnUse"><stop offset="0.1" stop-color="#7780e5"/><stop offset="0.61" stop-color="#5363ca"/><stop offset="1" stop-color="#3d50b9"/></linearGradient><linearGradient id="linear-gradient-4" x1="4844.47" y1="1988.31" x2="4849.91" y2="1988.31" gradientTransform="matrix(-1, 0, 0, 1, 4857.86, -1967.76)" gradientUnits="userSpaceOnUse"><stop offset="0.1" stop-color="#7780e5"/><stop offset="0.2" stop-color="#8883e4"/><stop offset="0.43" stop-color="#ab8ae3"/><stop offset="0.64" stop-color="#c48ee3"/><stop offset="0.84" stop-color="#d391e2"/><stop offset="1" stop-color="#d892e2"/></linearGradient><linearGradient id="linear-gradient-5" x1="2396.46" y1="-396.24" x2="2407.49" y2="-396.24" gradientTransform="matrix(0.5, -0.87, -0.87, -0.5, -1535.31, 1901.73)" gradientUnits="userSpaceOnUse"><stop offset="0.1" stop-color="#d25879"/><stop offset="0.29" stop-color="#d36692"/><stop offset="0.77" stop-color="#d786cc"/><stop offset="1" stop-color="#d892e2"/></linearGradient><linearGradient id="linear-gradient-6" x1="482.54" y1="-1747.83" x2="494.3" y2="-1747.83" gradientTransform="matrix(0.99, 0.14, 0.14, -0.99, -240.7, -1788.07)" gradientUnits="userSpaceOnUse"><stop offset="0.1" stop-color="#c1ebb5"/><stop offset="1" stop-color="#85d4c8"/></linearGradient></defs><g id="Layer_2" data-name="Layer 2"><g id="Layer_1-2" data-name="Layer 1"><path id="Blue" class="cls-1" d="M9.19,6.49C9.2,4,12,0,12,0s2.75,4,2.74,6.51S11.94,13,11.94,13,9.18,8.93,9.19,6.49Z"/><path id="Brown" class="cls-2" d="M19.61,12.3c-2.08,1.2-6.89.84-6.89.84s2-4.3,4.17-5.54,6.89-.84,6.89-.84S21.68,11.1,19.61,12.3Z"/><path id="Brown-2" data-name="Brown" class="cls-3" d="M16.8,19.48C14.72,18.28,12.63,14,12.63,14s4.73-.4,6.87.83,4.17,5.52,4.17,5.52S18.87,20.68,16.8,19.48Z"/><path id="Blue-2" data-name="Blue" class="cls-4" d="M14.51,20.54c0,2.41-2.71,6.4-2.71,6.4S9.07,23,9.07,20.55s2.71-6.4,2.71-6.4S14.51,18.14,14.51,20.54Z"/><path id="Brown-3" data-name="Brown" class="cls-5" d="M4.15,14.77c2.07-1.2,6.87-.85,6.87-.85s-2,4.3-4.15,5.53S0,20.31,0,20.31,2.08,16,4.15,14.77Z"/><path id="Brown-4" data-name="Brown" class="cls-6" d="M6.88,7.64C9,8.84,11,13.16,11,13.16s-4.72.39-6.85-.84S0,6.8,0,6.8,4.82,6.44,6.88,7.64Z"/></g></g></svg>