<svg xmlns="http://www.w3.org/2000/svg" viewBox="0 0 315.22 285.52"><defs><style>.cls-1{fill:#a2e3c6;}.cls-2{fill:#4ab5f2;}.cls-3{fill:#2301af;}.cls-4{fill:#7adaf9;}.cls-5{fill:#7c5d08;}.cls-6{fill:#e6eff7;}.cls-7{fill:#33aafa;}.cls-8{fill:#27a2f9;}</style></defs><g id="Layer_2" data-name="Layer 2"><g id="Layer_1-2" data-name="Layer 1"><path class="cls-1" d="M129.33,117.19c-26.11,18.05-55.46,32.81-75.8,56.89s-28.7,61.88-8.16,85.8c19.62,22.87,55,23.06,85.54,23.51,56.84.86,63.18-.74,90.59-10.06s48.15-33,64.39-56.45c9.91-14.32,15.91-30.85,20.79-47.45,5.62-19.13,9.93-39,8.11-58.81-3.2-34.84-35.07-73.9-74.93-65.08C199.21,54.53,162.29,94.4,129.33,117.19Z"/><path class="cls-2" d="M167.62,159.64c5.36.79,21.23,6,23.78-2,2.25-7-10.93-20.46-15.15-24.86-18.2-19-41.4-32.47-65.59-42.72-6.21-2.63-12.81-5.11-19.52-4.42-19.34,2-28.51,37.19-33.34,52.16Q46.13,174,37.74,211.17c10.79,6.35,25.06-.68,32.54-10.72s10.79-22.58,17.35-33.24A22.39,22.39,0,0,1,94,160c3.51-2.32,7.86-2.87,12-3.24C126.87,154.87,147,156.59,167.62,159.64Z"/><path class="cls-3" d="M39.59,204.3v.15L19.33,212.1a8.4,8.4,0,0,0-5.12,6.79,8.67,8.67,0,0,0-.1,1.35v3.46h0v-3.46a8.67,8.67,0,0,1,.1-1.35H56.16l0,4.81h0l0-4.81.05-12.72A132.89,132.89,0,0,1,39.59,204.3Z"/><path class="cls-4" d="M14.21,218.89a8.67,8.67,0,0,0-.1,1.35v1.48a2,2,0,0,0,2,2h40l0-4.81Z"/><path class="cls-3" d="M36.3,243.86,25.08,265.38,5.77,275.22a7.83,7.83,0,0,0-5.52,6l43-1.75,13.85-34.61Z"/><path class="cls-4" d="M.09,282.4,0,284.45a1,1,0,0,0,1.07,1.07l40.65-1.64a1.43,1.43,0,0,0,1.37-1.36l.15-3.09-43,1.75A8.14,8.14,0,0,0,.09,282.4Z"/><path class="cls-5" d="M216.54,40.92l-.87,0c-25.6,1.12-40.21,20.87-49.71,42.24-16.47,37.05-25.15,47.58-39.77,61,0,0,.22-.62.08-.5a13.86,13.86,0,0,0-1.73,1.61c-.61.63-1.23,1.21-1.86,1.76a65.4,65.4,0,0,0,14.92,1.38,9.72,9.72,0,0,1,6.45-4.84,93.12,93.12,0,0,0,15.26-3.92,7.25,7.25,0,0,0,1.92-.81c1.83-1.38,3.67-2.74,5.49-4.1.17-.3.22-.33.14-.11l.06,0c1.8-4,5.1-7,9.25-7.47a59.61,59.61,0,0,0,7-7.33c2.17-2.74,5.8-3.6,9.23-3.1C206.83,96.25,220,69.49,222.31,45a13.68,13.68,0,0,1,.22-1.45A28.7,28.7,0,0,0,216.54,40.92Z"/><path class="cls-6" d="M220.67,41.84c-.1.51-.17,1-.22,1.55a75,75,0,0,1-1.14,8,15.07,15.07,0,0,0-2.8,4.54c-4.13,10.32-10.33,19.92-16,29.42q-2.37,3.94-4.93,7.77-6.85-.33-13.68-.88c-7.52-.61-15-1.34-22.49-2.35,1.86-3.35,3.71-6.76,5.58-10.25,10.43-19.41,24.79-39.41,48.86-40.54.3,0,3.77-.71,4.05-.71C220,39.09,218.81,40.69,220.67,41.84Z"/><path class="cls-7" d="M258.65,141.13c-.63,1.9-1.36,3.93-2.22,6.12-.11.29-.23.58-.35.87-.43,1.09-3.48,7.24-5.58,11.43-.24.47-.47.92-.67,1.34s-.5,1-.69,1.34l-.63,1.22a13.71,13.71,0,0,0-.71,1.52c-1.08,2.53-2.26,6.11-3.51,7.7-22.42,28.44-71.8,16.77-102.6,19.29-14.56,1.19-36.95.24-36.95.24S78.46,232.55,71.1,247.49c-1.75,3.56-3.58,7.31-6.84,9.58-3.94,2.74-9.12,2.71-13.91,2.43a233.53,233.53,0,0,1-24-2.66c-1.31-.21-2.77-.54-3.47-1.66a3.87,3.87,0,0,1-.07-3.61c10.85-23.11,33.81-65.52,53.08-94.51a11.24,11.24,0,0,1,3.49-3.79A11.26,11.26,0,0,1,84,152.19c16.51-1.52,33.51-4.7,50-4.92l3.27,0c8.77-.07,17.55,0,26.32.09q7.6.09,15.22.15l4.86.05,5.93.05,17.83.18c1.74,0,3.5,0,5.27-.06,9.55-.3,19.41-1.41,28.81-.88l.33-.46.26,0C248.27,147.18,253.92,145,258.65,141.13Z"/><path class="cls-3" d="M256.43,147.25c-.11.29-.23.58-.35.87-.43,1.09-3.48,7.24-5.58,11.43-.24.47-.47.92-.67,1.34s-.5,1-.69,1.34l-.63,1.22a13.71,13.71,0,0,0-.71,1.52c-25.39-3.21-58.08-8.93-58.29-17.39l23.1.12c4.6,0,9.19,0,13.78.06C236.23,147.81,246.31,147.53,256.43,147.25Z"/><path class="cls-3" d="M133.91,145.41c-1.11.37-2.18.79-3.18,1.21a.34.34,0,0,1-.41-.12c-.17-.22-.34-.45-.49-.68a.45.45,0,0,1-.07-.34Z"/><path class="cls-3" d="M280.46,150.53c.52-.12.34.71,0,0Z"/><path class="cls-6" d="M280.28,62.87A35.35,35.35,0,0,0,260.6,45.13c-13-5.05-25.42-6-39-5.89-18,.16-33.11,6.27-38.33,24.61-2.8,9.87-1.26,19.35-2.73,29.33a91.2,91.2,0,0,1-14.9,38.09c-10.64,15.54,30.28,23.62,39,25.3,9.78,1.87,19.91,3.47,29.62,1.28,7.38-1.66,14.15-2.65,20.13-7.28C275.65,134.08,293.38,89.69,280.28,62.87Z"/><path class="cls-3" d="M213.74,6.39c1-3.34,2.66-6.23,6.19-6.38,3.16-.14,4.68,2.55,7.83,2.91,2.26.26,6,.28,8.15,1.07,3.28,1.21,4.62,3.71,5.21,7.11a51.8,51.8,0,0,1,.64,12.31c-.14,2.21-.58,4.67-2.4,6-2.26,1.61-5.6.51-7.51-1.5a8.6,8.6,0,0,1-1.78-2.68c-.47-1.13-.67-2.36-1.1-3.52A7.09,7.09,0,0,0,224.11,17c-3-.63-8,2.89-10.05.62C211.71,15.08,212.8,9.52,213.74,6.39Z"/><path class="cls-5" d="M226.88,6.17h0a11.36,11.36,0,0,0-11.39,11.25V30.93c.35,2.75,1.92,6.3,9.07,6.78L215.48,39v4.11a11.36,11.36,0,0,0,11.39,11.25h0a11.35,11.35,0,0,0,11.38-11.25V17.42A11.35,11.35,0,0,0,226.88,6.17Z"/><rect class="cls-3" x="232.74" y="20.38" width="7.7" height="9.86" rx="0.7" transform="translate(473.17 50.62) rotate(-180)"/><path class="cls-5" d="M264.12,93.21c-7.13.2-14.92.51-22.43-.27-15.22,32.15-54.13,45-88.16,40.85-11.34-1.37-18.46-4.36-28.08-.74-4.4,2.93-8.73,6-12.82,9.27a7.84,7.84,0,0,0-.84,5c10.2.66,19.71-1.06,29.78-1.75,8.41-.57,16.87,1.91,25.14,3.68a212.09,212.09,0,0,0,53.16,4.21c27.13-1.08,47.91-18.08,58.32-42.16.24-.54.48-1.13.73-1.76A119.14,119.14,0,0,0,284,92.43C277.37,92.69,270.75,93,264.12,93.21Z"/><polygon class="cls-3" points="125.08 145.36 106.61 83.74 59.45 83.74 80.47 150.01 167.84 150.47 166.45 145.36 125.08 145.36"/><rect class="cls-8" x="60.8" y="283.16" width="173.63" height="0.88"/></g></g></svg>