<svg xmlns="http://www.w3.org/2000/svg" viewBox="0 0 30.44 23.23"><defs><style>.cls-1{fill:#fff;}</style></defs><g id="Layer_2" data-name="Layer 2"><g id="Layer_1-2" data-name="Layer 1"><path class="cls-1" d="M22.32,15.86a.29.29,0,0,1,0-.17V9.26a7.09,7.09,0,0,0-6.4-7V.67a.67.67,0,0,0-1.34,0V2.22a7.1,7.1,0,0,0-6.4,7v6.46c0,.07,0,.1-.07.14L6.4,17.54A1.49,1.49,0,0,0,6,18.65v.51a1.57,1.57,0,0,0,1.55,1.55h4.71a3,3,0,0,0,6,0h4.71a1.57,1.57,0,0,0,1.55-1.55v-.51A1.73,1.73,0,0,0,24,17.54Zm-7.1,6a1.67,1.67,0,0,1-1.58-1.18h3.2A1.76,1.76,0,0,1,15.22,21.89Zm7.91-2.73a.22.22,0,0,1-.2.2H7.51a.22.22,0,0,1-.2-.2v-.51a.18.18,0,0,1,.06-.13l1.69-1.68a1.53,1.53,0,0,0,.43-1.12V9.26a5.73,5.73,0,0,1,11.45,0v6.46a1.73,1.73,0,0,0,.44,1.12l1.68,1.68a.21.21,0,0,1,.07.13ZM6,15.15a.63.63,0,0,1-.47.2.64.64,0,0,1-.47-.2,5.7,5.7,0,0,1,0-8.08A.66.66,0,0,1,6,8a4.32,4.32,0,0,0-1.28,3.1A4.48,4.48,0,0,0,6,14.21.65.65,0,0,1,6,15.15ZM3.6,16.6a.65.65,0,0,1,0,.94.65.65,0,0,1-.94,0,9.1,9.1,0,0,1,0-12.86.66.66,0,0,1,.94.94,7.82,7.82,0,0,0,0,11Zm21.79-1.45a.67.67,0,1,1-.95-.94,4.37,4.37,0,0,0,0-6.2.67.67,0,1,1,.95-.94A5.73,5.73,0,0,1,25.39,15.15Zm5.05-4a9.06,9.06,0,0,1-2.66,6.43.66.66,0,0,1-.47.2.63.63,0,0,1-.47-.2.65.65,0,0,1,0-.94,7.82,7.82,0,0,0,0-11,.66.66,0,0,1,.94-.94A9.08,9.08,0,0,1,30.44,11.11Z"/></g></g></svg>