<svg xmlns="http://www.w3.org/2000/svg" viewBox="0 0 371.9 365.91"><defs><style>.cls-1{fill:#f6dcd2;}</style></defs><g id="Layer_2" data-name="Layer 2"><g id="Layer_1-2" data-name="Layer 1"><path class="cls-1" d="M358,152c9.83,14,17.41,33,12.15,50.51s-22,28.27-29.34,44.88c-4.14,9.39-4.25,19.71-4.41,29.78-.21,13.2,2.37,27.2-6.54,38.35-5.28,6.59-13.24,10.49-21.28,13.05-16.16,5.14-33.09,7.55-47.44,17.26-23.59,15.95-52.55,21.53-80.65,19.81a182.66,182.66,0,0,1-42-7.73c-15.86-4.84-30-13.41-45.93-18-27.68-7.95-65.52-8.06-81.72-36.06C-.06,285-3.84,261.66,4.64,241.12c4-9.77,11.73-17.23,16.12-26.82,6.06-13.25,7.69-28.35,3.64-42.43-.16-.58-.34-1.15-.52-1.73C19.65,157,11.14,145.67,7.61,132.28c-7.26-27.66,8.8-56.9,29.91-74.67,8.77-7.39,18.57-13.54,29.25-17,29.45-9.67,62.16,1.52,91.7-7.83,22.66-7.17,41.26-25.81,64.34-31.21,17.75-4.14,36.92.28,52,11.11s26,27.78,31,46.44c4.62,17.29,4.47,36.29,12.67,52,7,13.44,20,20.69,30.54,30.44A65,65,0,0,1,358,152Z"/></g></g></svg>