<svg viewBox="0 0 179.98 236.74" xmlns="http://www.w3.org/2000/svg"><path d="m34.8 54.74a86.64 86.64 0 0 0 -12-6.26 137.94 137.94 0 0 0 -20-8.34c-2.4-.76-3.71 2.63-2.07 4.14 5.1 4.72 10.88 8.45 16.27 12.72s9.78 10 14.47 15.19a1.22 1.22 0 0 0 1 .44c.74.81 1.52 1.6 2.35 2.36 2.39 2.16 5.62-.89 4.51-3.32a2.43 2.43 0 0 0 -.42-2.25c-.72-1-1.48-1.91-2.24-2.85 1.66-.81 2.6-3.12.76-4.64-.93-.77-1.84-1.55-2.74-2.32a2.84 2.84 0 0 0 .11-4.87z" fill="#5b7e80"/><path d="m38.34 18.2c-.82 4.8-2 9.45-2.86 14.22-8.48-11.74-17.48-23.7-29.4-31.96-1.75-1.21-4.76.09-3.83 2.54 5.08 13.21 12.75 25.12 20.03 37.23.95 1.58 3.1.35 2.85-1.2a3.09 3.09 0 0 0 1.87-1.46q1.2 1.43 2.44 2.73c1.46 1.57 3.7.35 4.22-1.35.11.12.22.24.34.35a2.14 2.14 0 0 0 .62.44c-.31 4.87-.13 10.73 3.69 14a1.17 1.17 0 0 0 1.89-1 3 3 0 0 0 3.17-.4 3 3 0 0 0 2.41-1.58 2.62 2.62 0 0 0 2.85-3c-1.19-9.91-5-19.2-5.71-29.2-.18-2.56-4.13-3.01-4.58-.36z" fill="#5b7e80"/><path d="m51.8 56.77c-10.51-9.5-20.24-19.77-30.49-29.56-2.31-2.2-5.25.94-3.95 3.43 7 13.36 12 27.65 19.66 40.68a1.15 1.15 0 0 0 1.16.64l.45.61a3.06 3.06 0 0 0 3.77 1c.71.9 1.4 1.82 2.09 2.75a3.18 3.18 0 0 0 5.51-.87 2.25 2.25 0 0 0 .71-1.17 3.11 3.11 0 0 0 .19-.67l.09-.46a3.43 3.43 0 0 0 .49-.28c3.75-2.63 3.1-7.22 1.19-10.86a2.48 2.48 0 0 0 -.94-1 3 3 0 0 0 .07-4.24z" fill="#7faab1"/><path d="m64.73 26.77c-4.75 10-7.79 20.57-7.15 31.71a2.18 2.18 0 0 0 3.42 1.6 3.77 3.77 0 0 0 2.65.84c.15.71.32 1.41.51 2.11a3 3 0 0 0 3.25 2.06 30.32 30.32 0 0 0 1.75 3.52c1.58 2.73 6.29 1.24 5.91-1.93-.7-5.91-2.9-11.42-4-17.25-1.27-7.15-1-14.41-1.49-21.63a2.62 2.62 0 0 0 -4.85-1.03z" fill="#5b7e80"/><path d="m50.29 34c-1-1.68-4.2-1.32-4.41.84-.7 7.33.33 14.52 1.1 21.8.84 8.06 1.26 15.93 4.9 23.33a1.2 1.2 0 0 0 1.62.51 2.59 2.59 0 0 0 2.71.09 3 3 0 0 0 4.79 1.09 2.35 2.35 0 0 0 1.46-2.66c0-.23-.1-.48-.16-.72-.17-.77-.33-1.54-.49-2.31 1.15 1.58 2.38 3.09 3.66 4.58a3.33 3.33 0 0 0 1.14.85c.24.29.47.59.7.9 2 2.7 6.3.73 5.3-2.53-.23-.78-.48-1.56-.73-2.33a2.88 2.88 0 0 0 -.13-.74 2.77 2.77 0 0 0 1.82-4.1c-8.45-12.43-15.36-25.79-23.28-38.6zm6.25 30.85a2.77 2.77 0 0 0 -.73.26l-1.23-3.8c.66 1.18 1.32 2.36 1.96 3.55z" fill="#779e9e"/><path d="m43 88.83a103.09 103.09 0 0 0 -12.23-7.83c-4.55-2.63-9.21-5.07-13.92-7.41a2.64 2.64 0 0 0 -2.46 0q-4.61-1.72-9.34-3.19c-2.92-.9-4.08 3.45-1.66 4.83 13.76 7.85 27.06 16.4 39.29 26.51a1.85 1.85 0 0 0 2.44-2.74c-.89-.82-1.81-1.61-2.72-2.4a3.19 3.19 0 0 0 1.25-4.3 2.38 2.38 0 0 0 -.65-3.47z" fill="#5b7e80"/><path d="m63.81 85.83c-11.23-8.28-23.42-17.07-37.44-19.61a2.26 2.26 0 0 0 -2.59 2.88c5 12.6 14.8 21.2 23.64 31a1.18 1.18 0 0 0 1.56.14l1.12 1.12a2.69 2.69 0 0 0 4.32-1.36 2.72 2.72 0 0 0 .81-.07l.47.26a2.36 2.36 0 0 1 .28.12c.1.57.22 1.15.37 1.73 1 3.76 6.68 1.88 5.73-1.85-.7-2.76-.36-5.4 1.83-7.35a2.84 2.84 0 0 0 .09-3.7 2.07 2.07 0 0 0 -.19-3.31z" fill="#7695a4"/><path d="m65.75 101.47a28.78 28.78 0 0 0 -12.2-3.47 93.33 93.33 0 0 0 -9.67-1.34c-7.36-.71-14.91-2-22.19-.21-2.23.56-1.88 3.35-.32 4.36 8.74 5.66 19.33 6.67 28.94 10.28a46.52 46.52 0 0 1 4.69 2.7 3.31 3.31 0 0 0 4.47-.28 73 73 0 0 0 7.29-7 3.3 3.3 0 0 0 -1.01-5.04z" fill="#7393a4"/><path d="m75.74 51.2a100.18 100.18 0 0 0 -3.37 11.92 1.94 1.94 0 0 0 -.62 1.32c-.08 1-.13 2-.16 3 0 .34-.12.67-.17 1a30.81 30.81 0 0 0 -.16 5.84 2.92 2.92 0 0 0 -.69 1.72 26.34 26.34 0 0 0 .93 7.82 19.39 19.39 0 0 1 -.38 2.52.86.86 0 0 0 1.46.77 35.33 35.33 0 0 0 3.85 7.37c-1.73 1.79-.4 5.31 2.44 4.31a32.39 32.39 0 0 0 3.48-1.47 2.16 2.16 0 0 0 1.13-1.12c.32-.22.64-.44 1-.69a2.87 2.87 0 0 0 1-2.89 2.74 2.74 0 0 0 .46-1.53 2.41 2.41 0 0 0 0-1c-1.79-6.69-4.34-13.09-5.42-19.91-1-6-.28-12.09-.61-18.12-.09-2.06-3.41-3.06-4.17-.86z" fill="#73949a"/><path d="m79.22 91.64a26 26 0 0 0 -2.28-1.54c-3.88-4.86-7.76-9.75-11.51-14.74-1.62-2.15-4.55-1-4.71 1.55-.29 4.41-1.09 8.76-1.38 13.17a35.6 35.6 0 0 0 .1 6.69 13.47 13.47 0 0 0 2.56 5.73c.84 1.31 1.61 3.58 3.53 3.25s3.55-2.27 4.9-3.37a57.56 57.56 0 0 1 6.45-4.75 3 3 0 0 0 .7-.4c.43-.25.86-.49 1.31-.72 1.73-.85 1.78-3.75.33-4.87z" fill="#628993"/><path d="m153.66 223.65c-1.49-.78-3.12-1-4.61-1.88a2.56 2.56 0 0 0 -2.91.27 5.1 5.1 0 0 0 -2.08-1.79c-1.12-.47-2.68.53-2.14 1.85a19.37 19.37 0 0 1 1.28 4.55c.26 1.74-.19 3.72.68 5.25a2.29 2.29 0 0 0 2.07 1c3.8-.3 6.24-2.29 8.51-5.21a2.66 2.66 0 0 0 -.8-4.04z" fill="#ffdd15"/><path d="m170.18 152.25c.32.73.63 1.44.91 2.16.53 1.2 1 2.41 1.46 3.61.39 1 .78 2 1.14 3.08a108.68 108.68 0 0 1 4.57 17c.24 1.39.44 2.76.61 4.14a66.58 66.58 0 0 1 .52 8.65 51.45 51.45 0 0 1 -.73 8.36 41.37 41.37 0 0 1 -2.16 8 12.23 12.23 0 0 1 -4.58 4.44c.35 2.07-.72 5-2.39 7.15-.48.56-1 1.1-1.51 1.63-1.94 1.69-4.25 2.3-6.15.35a6.72 6.72 0 0 1 -1.35 1.37c-6 4.63-12.42 2.66-17.82-1.24 2.22 3.8 3.47 8.13 1.17 11.35 5.06 2 8.67-2.11 10.1-6.65.39-1.27 2.56-1.35 2.5.19a8.26 8.26 0 0 1 -1.07 3.8 54 54 0 0 1 -10.66 4.3 7 7 0 0 1 -1.59-.81 7.94 7.94 0 0 1 -1.05.92 10.72 10.72 0 0 1 -1.39.87 54.06 54.06 0 0 1 -11.82 1.08 23 23 0 0 1 -3.37-1.28 8.21 8.21 0 0 1 -1 1.05 57.9 57.9 0 0 1 -21.23-6.2 62.38 62.38 0 0 1 -6.22-3.69 63.09 63.09 0 0 1 -5.14-3.88c-1.93-1.61-3.84-3.29-5.74-5-.55-.5-1.09-1-1.63-1.5-.39-.36-.79-.73-1.17-1.11a164.39 164.39 0 0 1 -25.59-30.74c-.27-.41-.54-.83-.79-1.25-1.41-2.24-2.74-4.52-4-6.81a85.75 85.75 0 0 1 -8.79-23.59c-.11-.62-.23-1.25-.33-1.86a51.33 51.33 0 0 1 -.47-15.14 24.49 24.49 0 0 1 2.51-8.4 21.28 21.28 0 0 1 1.22-2 46.78 46.78 0 0 1 6.18-7.2c3.88-3.9 7.08-7.72 10.74-11.1l.88-.8a40.29 40.29 0 0 1 10.81-7.06 61.15 61.15 0 0 1 12.5-4q1.47-.3 2.91-.51a53.77 53.77 0 0 1 26.3 2.7c1.2.44 2.39.91 3.56 1.42 10.84 4.69 20.58 12.52 28.87 22 1.61 1.85 3.19 3.76 4.69 5.74a130.48 130.48 0 0 1 15.59 26.46z" fill="#ffdd15"/><g fill="#c7a22e"><path d="m149.74 144.46c-.8-1.44-1.59-2.79-2.28-4a14.79 14.79 0 0 0 7.13-14.74c-1.5-2-3.08-3.89-4.69-5.74a1.7 1.7 0 0 0 0 1.51c5.46 10.92-4.76 20.66-15.68 16.72a25.6 25.6 0 0 1 -8.56-5.57 27.87 27.87 0 0 0 -6.71-8.1 20.82 20.82 0 0 0 3.11-2.19c7.53-6.47 5.19-17.93-1-24.38-1.17-.51-2.36-1-3.56-1.42a1 1 0 0 0 .19 1.44c7.44 6.2 9.15 18 .57 24.09-9.36 6.6-17.81.79-26.2-3.59l-.82-1.24c7.3-4.84 6.56-18.21 0-23.4a9.59 9.59 0 0 0 -1.24-.79c-.89-.52-1.85.48-1.72 1.32a1 1 0 0 0 .42.63c7.2 5.09 6.33 18.35-2.42 21.21-5.64 1.87-12.49-1.13-17.07-5.4a45.14 45.14 0 0 0 -3.58-5 .91.91 0 0 0 -.66-.36.85.85 0 0 0 -.88.8 1 1 0 0 0 .26.68c.67.76 1.34 1.57 2 2.41a16.78 16.78 0 0 0 1.76 2.58c3.65 5.92 5.17 13-1.25 18-4 3.14-9.37 4.85-13.6 1.42-2.39-1.93-3.63-5-6.07-6.82a21.28 21.28 0 0 0 -1.22 2 19.71 19.71 0 0 0 8.19 8.67c2.9 1.55 6.25 1 9.26-.27 3.07 6.59 7.51 14 2.39 20.71-7.35 9.59-17.57 2.46-21.88-5.59a.47.47 0 0 1 0-.1c-.1-.16-.38 0-.31.15.21.62.44 1.21.69 1.81 3.5 8.05 11.14 13.71 19.86 8.67a17.56 17.56 0 0 0 2.15-1.48 3 3 0 0 0 .3.48c-.13 0-.29.11-.19.26 1.24 1.91 2.75 4.13 4.47 6.31a28.92 28.92 0 0 1 4.52 11.28 7.91 7.91 0 0 1 -7.42 9.19c-3.88.32-7.68-2.2-10.53-4.52a.27.27 0 0 0 -.43.3.06.06 0 0 0 0 .06 9 9 0 0 0 .78 1.19 13.81 13.81 0 0 0 11.37 5.26 6.48 6.48 0 0 0 .84 1.85 11.08 11.08 0 0 0 2.62 2.84 1 1 0 0 0 .55.23c5.25 6.16 9.46 11.46 10.21 20.57a1.12 1.12 0 0 0 1.18 1.07 1.14 1.14 0 0 0 1.14-1.2 26.42 26.42 0 0 0 -6-15.83 33.32 33.32 0 0 0 6.84 4.8 14.78 14.78 0 0 0 17.1-1.66l.59.62a1 1 0 0 0 .22 1c4.77 4.64 16.18 17 5.59 22-7.19 3.46-18.2-4.24-23.83-8.31 1.9 1.72 3.81 3.4 5.74 5a63.09 63.09 0 0 0 5.17 3.86c5.45 3.1 11.48 4.53 16.53.71.2-.14.38-.31.57-.47a41.69 41.69 0 0 0 8.35 7c-2.79 1.73-5.53 1.56-9 .53a68.62 68.62 0 0 1 -9.87-4.13.34.34 0 0 0 -.41.07 57.9 57.9 0 0 0 21.23 6.2 8.21 8.21 0 0 0 1-1.05 23 23 0 0 0 3.37 1.28 14.6 14.6 0 0 0 11.82-1.12 10.72 10.72 0 0 0 1.39-.87 7.94 7.94 0 0 0 1.05-.92 7 7 0 0 0 1.59.81c4 1.52 8.6-.58 10.66-4.3a8.26 8.26 0 0 0 1.07-3.8c.06-1.54-2.11-1.46-2.5-.19-1.43 4.54-5 8.62-10.1 6.65 2.3-3.22 1-7.55-1.17-11.35 5.4 3.9 11.87 5.87 17.82 1.24a6.72 6.72 0 0 0 1.35-1.37c1.9 1.95 4.21 1.34 6.15-.35a10.27 10.27 0 0 0 1.51-1.63c1.67-2.19 2.74-5.08 2.39-7.15a12.23 12.23 0 0 0 4.58-4.44 15.93 15.93 0 0 0 2.16-8 25 25 0 0 0 -3.16-12.55 12.07 12.07 0 0 0 2-3.9c1 2.49 2 5 1.65 7.77a.28.28 0 0 0 .54.11 14.63 14.63 0 0 0 -.8-8.44 16.73 16.73 0 0 0 -.82-2 19.57 19.57 0 0 0 .21-2.19 108.68 108.68 0 0 0 -4.57-17c-.36-1-.75-2-1.14-3.08a.92.92 0 0 0 -.5 1.22c2.82 8.34 7.6 24.1-3.78 28.15-4.06 1.44-8.23-1.14-11.74-4.78a33.13 33.13 0 0 0 -6.46-10.2 4.83 4.83 0 0 1 .45-.26c8.74-5.47 5.5-15.6 1.22-24 5.76 6.18 12.95 12.61 19.35 6.23-.28-.72-.59-1.43-.91-2.16a.91.91 0 0 0 -.34.26c-5.97 6.9-14.23-2.02-20.15-7.82zm-56.6-24.13c3.73 2.8 7.4 5.56 12.1 6.75a18.22 18.22 0 0 0 11.19-1.26c1.53 1.93 3.15 3.93 4.89 5.83 5 7.57 7.56 17.59-1.49 23.1-6.24 3.81-15.6 1.23-22.14-3.38a41.25 41.25 0 0 0 -4.35-7c6.66-6.23 4.2-16.37-.2-24.04zm34.59 66.82c5.5-5 5.14-11.89 2.42-18.4 5.22 5.05 11.56 8 18.92 4.22 3.3 7.93 12.06 19.55 2.18 26.07-6 3.94-13.92-1-19.63-6.3a46.87 46.87 0 0 0 -3.89-5.59zm-3.48-25.4c4.76 8.45 7.41 20.78-2.56 25.33-6.06 2.78-12.88-.55-18.36-5.19a44.87 44.87 0 0 0 -7.9-8.62 17 17 0 0 0 4.82-11 22.49 22.49 0 0 0 -1.25-7.66c6.59 4.7 15.61 6.66 22.41 2.91.89 1.37 1.83 2.8 2.84 4.23zm-56-29.64c6-4.57 5.69-11 3.17-17 4.92 3.69 11.6 5.27 17.25 3.37 4.76 8.3 10.39 17.9.8 25.24-9 6.9-19.63-1.84-24.67-9.39a24.34 24.34 0 0 0 3.44-2.22zm-.57 8.47c5.72 6.42 13.44 10.8 22.12 6.27.42-.23.82-.46 1.22-.7 5.71 8.18 10.94 22.75-1.69 27.77-4.74 1.89-9.8-.88-14.14-4.73a29.47 29.47 0 0 0 -5.77-7.37.79.79 0 0 0 -.07-.92c-.54-.66-1.08-1.29-1.67-1.9a5 5 0 0 0 -.58-.56c5.31-4.99 3.4-11.57.57-17.86zm14.08 56.85c-3.53-2.53-6-6.92-10.1-8.61-.25-.11-.52.23-.29.43a28.48 28.48 0 0 1 4.45 4.9c-.46-.44-.94-.89-1.41-1.32a1 1 0 0 0 -.35-.84c-.79-.72-1.58-1.43-2.34-2.18-.33-.34-.65-.74-1-1.12a8.24 8.24 0 0 0 5.65-4.42c1.94-3.77 1.69-8 .23-11.91 4.25 3.59 9.2 5.73 14.49 3.78a10.51 10.51 0 0 0 3-1.71 70.37 70.37 0 0 0 6.63 7.94c3.49 5.45 5.53 11.9 1.51 16.74-5.7 6.89-14.74 2.43-20.48-1.68zm22.68 4.46-.59-.47c.18-.16.36-.3.54-.47 4.12-3.91 3.93-9 1.88-13.81 5.47 3.93 11.76 5.94 17.95 2.53.36-.2.67-.41 1-.62 3.37 6.28 12.6 17.65 5.35 23.4-4.55 3.61-11.22.56-17.14-3.51a24.58 24.58 0 0 0 -8-7.22.83.83 0 0 0 -1 .17zm54.68 17.34c-2.84 3.73-9.12 2.93-12.85 1.52a26.53 26.53 0 0 1 -5.84-3.19 32.4 32.4 0 0 0 -3.18-3.53.73.73 0 0 0 -1.13.05l-.68-.6c-.14-.13-.39.06-.26.22s.49.57.74.86a.89.89 0 0 0 .21.77c3.79 4.34 10.53 14.43 2.27 17.84a16.61 16.61 0 0 1 -12.29-.12 1.52 1.52 0 0 0 -2.19-.9 44.86 44.86 0 0 1 -9.43-6.27c3.69-3.43 3.44-8.27 1.4-12.78 5.16 3.58 10.86 5.44 16.54 2.18 6-3.42 4.86-10.8 1.89-17.44 5.28 4.47 11.75 7.34 17.54 4.06a12.86 12.86 0 0 0 2.76-2c.14.25.26.5.41.76a1.29 1.29 0 0 0 0 1.34c2.56 4.48 7.97 12.13 4.08 17.23zm3.41.55c1.28-2.42 1.11-5.44.26-8.47a7.71 7.71 0 0 0 5.85 1.54c-.18 3.15-2.81 8.07-6.12 6.93zm6.81-29.14a12.33 12.33 0 0 0 3.58-1.57c2.68 6.33 4.42 15.21-1.94 19.74-3.53 2.52-6.83 1.12-9.7-1.47a40.17 40.17 0 0 0 -4-6.82 1.27 1.27 0 0 0 -1.85-.31l-.47-.66c3.19-3.29 3.83-7.76 3-12.26 3.04 2.94 6.73 4.6 11.37 3.35zm-20.39-20.91c-7.59 6.05-15.78.33-21.55-6.3a52.38 52.38 0 0 0 -4.83-6.61c6.75-4.46 7.59-12.07 5.29-19.14a21.17 21.17 0 0 0 12.82 4.52 14.08 14.08 0 0 0 4.77-.83.26.26 0 0 0 .11.2l1 1c4.29 8.11 10.82 20.43 2.38 27.16z"/><path d="m61.58 142.63c-3.71.62-6.5-1.19-9.91-2.27a1.46 1.46 0 0 0 -1.76 1.5 42.06 42.06 0 0 1 .39 6c0 1.33-.59 3.15.21 4.31a.69.69 0 0 0 .93.2c1.42-.74 1.31-2.93 1.42-4.32a35.24 35.24 0 0 0 .07-4.11c3 1.2 5.94 2.29 9.11 1.16 1.33-.42 1.03-2.72-.46-2.47z"/><path d="m88.2 129.81a27 27 0 0 1 -10.2-4.65c-.42-.3-1.19 0-.93.61 1.48 3.33 2 7.07-.38 10.14-.3.42.28 1 .62.54 2.24-2.76 2.37-6.13 1.44-9.34a28 28 0 0 0 9.19 4.17.75.75 0 0 0 .26-1.47z"/><path d="m113.33 105a33.25 33.25 0 0 1 -10.26-1.9c-.74-.26-1.24.61-1.1 1.23a30.49 30.49 0 0 1 -.19 14.15.86.86 0 0 0 1.68.36 31.5 31.5 0 0 0 .68-13.47 39.36 39.36 0 0 0 9.3 1.65c1.3.07 1.19-1.97-.11-2.02z"/><path d="m88.09 157.63c-3.47-.15-7-.57-10.06-2.4-.73-.43-1.82.44-1.45 1.25a22 22 0 0 1 1.78 10.18.82.82 0 0 0 1.61.12 18.08 18.08 0 0 0 -.42-8.64 31.2 31.2 0 0 0 8.66 1.73c1.42.13 1.31-2.18-.12-2.24z"/><path d="m116.52 136.15a20.39 20.39 0 0 1 -11.12-2.61 1.23 1.23 0 0 0 -1.69 1.47 19.92 19.92 0 0 1 1.29 6.47c.07 1.53-.24 3.51.64 4.81a.25.25 0 0 0 .4 0c1-1.29.86-3.35 1-4.94a17.6 17.6 0 0 0 -.3-4.4 20.38 20.38 0 0 0 10 1.79 1.31 1.31 0 0 0 -.22-2.59z"/><path d="m141.4 120.23a30.6 30.6 0 0 1 -10.84-3.78 1.11 1.11 0 0 0 -1.53 1.32c1.06 3.37 2.17 7.41.5 10.76-.21.41.42.88.71.47 2-2.81 2-6.17 1.39-9.41a25.79 25.79 0 0 0 9.32 2.83c1.4.13 1.9-1.97.45-2.19z"/><path d="m87.77 104.48a34.56 34.56 0 0 0 -8-2.16.91.91 0 0 0 -1.08.92c0 2.35.06 4.71 0 7.07 0 .76 1.12.67 1.16-.06.11-2 .16-4 .45-6a52.25 52.25 0 0 1 6.49 2c1.29.49 2.21-1.35.98-1.77z"/><path d="m65.61 121a22.63 22.63 0 0 1 -6.69-2.64c-.91-.55-1.92.5-1.64 1.41.75 2.5 1.44 5.17.52 7.72-.18.52.44 1 .85.56 1.53-1.81 1.61-4.27 1.31-6.6a29.08 29.08 0 0 0 5.22 1.65 1.07 1.07 0 0 0 .43-2.1z"/><path d="m67 171c-3 .51-6.31.38-8.77-1.53a4.88 4.88 0 0 0 -.73-.62c-.44-.31-1 .29-.56.64a5.68 5.68 0 0 1 1.14 7.64c-.23.31.19.7.44.4a6.16 6.16 0 0 0 .82-6.47 11.91 11.91 0 0 0 7.66 1.17c.8-.12.74-1.33 0-1.23z"/><path d="m94.14 186.06c-2.51.16-5.51-.17-7.41-2a.92.92 0 0 0 -1.48 1c1.1 3.16 3.14 6 1.9 9.47-.3.86.91 1.54 1.32.65a10.64 10.64 0 0 0 0-8.18 13.71 13.71 0 0 0 5.82 1 1 1 0 0 0 -.15-1.94z"/><path d="m121.24 166.5c-4.12.87-7.86-.21-11.79-1.37-1.29-.39-1.72 1.27-1 2.07 2.37 2.7 5.73 7.16 3.27 10.76-.51.75.52 1.72 1.11 1 2.39-3.14 1.32-7.2-.61-10.48 3.22.89 6.44 1.39 9.82.42 1.54-.48.74-2.73-.8-2.4z"/><path d="m144.87 153.5c-3.23 2.54-6.87 1-9.27-1.89a1 1 0 0 0 -1.6 1.09c1.62 3 3.5 6.09 1.87 9.48a.45.45 0 0 0 .81.4 9.42 9.42 0 0 0 .58-7c2.89 1.81 6.46 2.36 9-.54.74-.85-.46-2.27-1.39-1.54z"/><path d="m164.11 141.16a48.83 48.83 0 0 1 -5-3.35c-1-.81-2.06.36-1.57 1.37a6.21 6.21 0 0 1 .22 5.8c-.54 1.06 1.08 1.85 1.66.82a7.21 7.21 0 0 0 .86-4.62c1 .6 2 1.18 2.92 1.8s1.99-1.11.91-1.82z"/><path d="m168.85 170.67c-2.76-.1-5.2-2.08-6.87-4.15-.89-1.1-2.74 0-1.88 1.23 2 2.64 2.21 5.72 1.71 8.87-.05.25.35.42.44.16a14.57 14.57 0 0 0 1-5.5 10.58 10.58 0 0 0 5.41 2.31 1.47 1.47 0 1 0 .19-2.92z"/><path d="m148 185c-2.92-.54-5.73-1.55-7.73-3.83-.6-.69-1.81.36-1.21 1.06a9.2 9.2 0 0 1 1.3 9.89c-.25.48.45.8.73.37a9.86 9.86 0 0 0 1.06-7.65 20.44 20.44 0 0 0 5.42 2.23 1.06 1.06 0 0 0 .43-2.07z"/><path d="m125.31 199.52a10.46 10.46 0 0 1 -8.17-3.23c-.78-.87-2 .54-1.22 1.41a10.38 10.38 0 0 1 3 8.32c-.07.74 1 1.28 1.32.47a8.43 8.43 0 0 0 -.24-6.19 10 10 0 0 0 5.42 1 .9.9 0 0 0 -.11-1.78z"/><path d="m107.9 214.66c-3-.71-6-1.29-8.69-2.89-.9-.53-1.73.81-1 1.48 2.26 2.06 3.93 4.83 2.9 7.95-.16.48.67.76.85.29a8 8 0 0 0 -.36-6.53 30.08 30.08 0 0 0 5.9 1.59 1 1 0 0 0 .4-1.89z"/><path d="m133.75 223.09a14.57 14.57 0 0 1 -6.44-2.33c-1-.77-2.83.48-1.85 1.62 1.82 2.13 2.26 4.8 2.44 7.52a.67.67 0 0 0 1.33-.07 18.8 18.8 0 0 0 -.29-5.41 19.35 19.35 0 0 0 4.29 1.16c1.61.24 2.13-2.24.52-2.49z"/><path d="m154.28 210.24a23.13 23.13 0 0 1 -7.54-2.72c-.78-.4-1.75.59-1.18 1.33a12.36 12.36 0 0 1 2.73 5.8.52.52 0 0 0 1-.06 12.57 12.57 0 0 0 -1-4.18 14.8 14.8 0 0 0 5.8 1.66.93.93 0 0 0 .19-1.83z"/><path d="m170 199.07a27.64 27.64 0 0 1 -5.08-3.5c-.68-.66-1.8.33-1.26 1.09a6.1 6.1 0 0 1 .66 6.37.42.42 0 0 0 .76.38 7.23 7.23 0 0 0 .94-4.48c.9.68 1.84 1.29 2.78 1.94a1.09 1.09 0 1 0 1.2-1.8z"/></g></svg>