<svg xmlns="http://www.w3.org/2000/svg" viewBox="0 0 379.46 357.78"><defs><style>.cls-1{fill:#e788e9;}</style></defs><g id="Layer_2" data-name="Layer 2"><g id="Layer_1-2" data-name="Layer 1"><path class="cls-1" d="M102.45,349.29C91.73,343,79,342.55,66.61,342.07c-5.22-.21-10.62-.42-15.8-1.06C26,337.94,7.73,322,1.9,298.26c-5.28-21.49.63-44.5,15.43-60l2.18-2.28c4.86-5.05,9.88-10.27,13.38-16.29,7.82-13.43,5.53-31.38-6.12-48-1.44-2.06-3-4.13-4.45-6.13-4.85-6.57-9.87-13.37-13.11-21.29C5.3,134.67,4.38,122.5,6.61,110,10.23,89.57,21.76,71.2,37.44,60.81c20.4-13.51,42.61-10.48,64.08-7.56,11.43,1.56,23.26,3.17,34.63,2.24A65.19,65.19,0,0,0,180,33.5c24.19-28.08,61.25-37.93,90.13-24,17.55,8.49,32,24.59,39.53,44.16,4.32,11.15,5.17,23.08,6,34.61.75,10.49,1.53,21.34,4.94,31.45,4,11.91,11.51,22.43,20.58,28.87,13.35,9.47,22.46,18.6,28.65,28.74,9.23,15.09,11.18,32.33,5.22,46.12-4.23,9.79-12.22,15.88-19.94,21.76s-15.27,11.63-18.63,20.8a34.26,34.26,0,0,0-1.82,12.1c0,5.68,1.09,11.6,2.13,17.33,1.84,10.19,3.74,20.72.22,31.09-4.05,12-17.86,18.18-41,18.51-2.73,0-5.53,0-8.23,0-10.38-.1-21.12-.18-30.79,3.29l-1.34-3.73c10.34-3.7,21.43-3.61,32.17-3.52,2.67,0,5.44.05,8.14,0,21.31-.3,33.88-5.63,37.34-15.83,3.19-9.4,1.46-19-.37-29.12-1.07-5.89-2.17-12-2.19-18a38.5,38.5,0,0,1,2.05-13.48c3.76-10.25,12-16.52,19.95-22.58,7.66-5.84,14.89-11.35,18.71-20.19,5.37-12.42,3.47-28.7-5-42.49-5.91-9.66-14.66-18.42-27.57-27.58-9.74-6.91-17.77-18.14-22-30.83-3.56-10.59-4.36-21.69-5.13-32.43-.85-11.76-1.65-22.87-5.74-33.46-7.22-18.65-20.91-34-37.57-42C241.17-.09,206.05,9.36,183,36.08a69.17,69.17,0,0,1-46.56,23.35c-11.8,1-23.84-.68-35.49-2.26-21.7-3-42.2-5.75-61.36,6.94C24.83,73.91,13.94,91.3,10.5,110.64c-2.1,11.82-1.26,23.22,2.37,32.09,3.05,7.46,7.92,14.05,12.63,20.43,1.49,2,3,4.11,4.5,6.21,12.57,17.92,14.93,37.46,6.31,52.26-3.75,6.43-8.93,11.82-14,17l-2.17,2.27C6.32,255.52.78,277.12,5.74,297.32c5.42,22,22.45,36.91,45.55,39.77,5,.62,10.34.83,15.48,1,12.83.49,26.1,1,37.67,7.75Z"/><path class="cls-1" d="M365.9,148.6c9.61,13.65,17,32.23,11.87,49.38s-21.52,27.64-28.68,43.88c-4,9.18-4.16,19.28-4.32,29.13-.2,12.9,2.32,26.59-6.39,37.49-5.16,6.45-12.94,10.26-20.81,12.76-15.8,5-32.35,7.39-46.39,16.88-23.05,15.6-51.37,21.05-78.85,19.36a178,178,0,0,1-41.1-7.55c-15.51-4.73-29.29-13.11-44.91-17.6-27.06-7.78-64.06-7.88-79.9-35.26-10.66-18.44-14.36-41.22-6.06-61.31,3.94-9.55,11.47-16.84,15.76-26.22,5.92-12.95,7.52-27.72,3.56-41.48-.16-.57-.34-1.13-.52-1.7-4.13-12.86-12.45-23.92-15.9-37-7.1-27,8.6-55.63,29.24-73,8.58-7.22,18.17-13.23,28.61-16.66,28.79-9.45,60.78,1.49,89.66-7.66,22.15-7,40.34-25.24,62.91-30.51,17.35-4,36.1.27,50.83,10.86s25.43,27.16,30.31,45.41c4.51,16.91,4.37,35.48,12.38,50.84,6.86,13.14,19.56,20.23,29.87,29.77A64,64,0,0,1,365.9,148.6Z"/></g></g></svg>