<svg xmlns="http://www.w3.org/2000/svg" xmlns:xlink="http://www.w3.org/1999/xlink" viewBox="0 0 378.42 288"><defs><style>.cls-1{fill:none;}.cls-2{fill:#83a2f3;}.cls-3{fill:#f6dcd2;}.cls-4{fill:url(#linear-gradient);}.cls-5{fill:url(#linear-gradient-2);}.cls-6{clip-path:url(#clip-path);}.cls-7{fill:#3b47c3;}.cls-8{fill:url(#linear-gradient-3);}.cls-9{clip-path:url(#clip-path-2);}.cls-10{fill:url(#linear-gradient-4);}.cls-11{fill:url(#linear-gradient-5);}.cls-12{fill:url(#linear-gradient-6);}.cls-13{fill:url(#linear-gradient-7);}.cls-14{fill:url(#linear-gradient-8);}.cls-15{fill:url(#linear-gradient-9);}.cls-16{fill:url(#linear-gradient-10);}.cls-17{fill:url(#linear-gradient-11);}.cls-18{fill:url(#linear-gradient-12);}.cls-19{fill:url(#linear-gradient-13);}.cls-20{fill:url(#linear-gradient-14);}.cls-21{fill:url(#linear-gradient-15);}.cls-22{fill:url(#linear-gradient-16);}.cls-23{fill:url(#linear-gradient-17);}.cls-24{fill:url(#linear-gradient-18);}.cls-25{fill:url(#linear-gradient-19);}.cls-26{fill:url(#linear-gradient-20);}.cls-27{fill:url(#linear-gradient-21);}.cls-28{fill:url(#linear-gradient-22);}.cls-29{fill:url(#linear-gradient-23);}.cls-30{fill:url(#linear-gradient-24);}.cls-31{fill:url(#linear-gradient-25);}.cls-32{clip-path:url(#clip-path-3);}.cls-33{fill:url(#linear-gradient-26);}.cls-34{clip-path:url(#clip-path-4);}.cls-35{fill:#eca27d;}.cls-36{clip-path:url(#clip-path-5);}.cls-37{fill:#d77d60;}.cls-38{fill:#213854;}.cls-39{clip-path:url(#clip-path-6);}.cls-40{fill:#17203c;}.cls-41{fill:#4f96c2;}</style><linearGradient id="linear-gradient" x1="205.3" y1="178.55" x2="306.44" y2="178.55" gradientUnits="userSpaceOnUse"><stop offset="0.1" stop-color="#b3efad"/><stop offset="1" stop-color="#66d8c8"/></linearGradient><linearGradient id="linear-gradient-2" x1="0.14" y1="227.89" x2="126.17" y2="227.89" xlink:href="#linear-gradient"/><clipPath id="clip-path" transform="translate(8.38)"><path class="cls-1" d="M100,265.07c8.2-1.68,21.51-4.17,25-13.07,1.13-2.84,1.07-6,.77-9.06A60,60,0,0,0,119,220.58a14.37,14.37,0,0,0-4.44-5.48c-2-1.3-4.83-1.57-6.66,0s-2.65,3.65-5.45,2.31c-5-2.4-7.93-8.77-11.32-12.86-2.46-3-8-8.42-12.39-6.28-3,1.45-2.56,6.58-6,7.38a4.3,4.3,0,0,1-3.49-1.12c-6-4.82-11.92-14.95-20.58-14.49A5.48,5.48,0,0,0,44,192.55c-.92,1.7-.54,3.86-1.39,5.6-1,2.06-3.53,3-5.82,2.83a18.55,18.55,0,0,1-6.47-2.17c-5.16-2.45-10.6-4.7-16.31-4.76-9.2-.1-18.87,7.73-11.32,16.82,2.94,3.54,8,4.29,12.61,4.52,4.25.23,17.17.53,13.38,7.84a23.1,23.1,0,0,0-2.18,4.18c-.84,3.07,1.22,6.38,4.05,7.83s6.2,1.39,9.34.87,6.21-1.48,9.38-1.72c2.34-.18,5.28.48,5.85,2.76s-1.87,4.39-2.4,6.78c-.6,2.69,1.48,5.4,4,6.47s5.41.92,8.16.75l8.2-.52c2.92-.19,6.47-.07,8,2.45.92,1.54.71,3.46,1.1,5.21.76,3.46,3.91,6,7.33,7S96.56,265.79,100,265.07Z"/></clipPath><linearGradient id="linear-gradient-3" x1="211.14" y1="234.15" x2="367.39" y2="234.15" xlink:href="#linear-gradient"/><clipPath id="clip-path-2" transform="translate(8.38)"><path class="cls-1" d="M241.74,228.9c-8.13,2-21.2,5.55-28.25-.94-2.25-2.07-3.57-5-4.61-7.84A59.68,59.68,0,0,1,205.37,197a14.41,14.41,0,0,1,1.62-6.87c1.24-2,3.68-3.5,6-2.93s4,2.15,5.91-.27c3.48-4.34,3.35-11.35,4.63-16.5.94-3.75,3.59-11.06,8.46-11,3.32,0,5.16,4.83,8.63,4a4.24,4.24,0,0,0,2.66-2.53c3.3-6.93,4.27-18.64,12.28-22a5.49,5.49,0,0,1,5.28.31c1.56,1.13,2.16,3.24,3.67,4.44,1.8,1.42,4.49,1.18,6.48,0a18.63,18.63,0,0,0,4.89-4.77c3.59-4.44,7.52-8.82,12.64-11.35,8.26-4.07,20.36-1.2,17.5,10.27-1.12,4.46-5.38,7.33-9.42,9.54-3.73,2-15.25,7.9-8.67,12.85a22.59,22.59,0,0,1,3.78,2.83c2.09,2.4,1.66,6.28-.26,8.81s-5,3.94-8.05,4.83-6.23,1.35-9.2,2.51c-2.19.85-4.55,2.72-4.08,5s3.59,3.14,5.1,5.06c1.71,2.17,1,5.51-.81,7.58s-4.49,3.17-7,4.21l-7.62,3.08c-2.72,1.1-5.86,2.74-6.12,5.66-.16,1.78.87,3.43,1.27,5.17.81,3.45-.92,7.12-3.59,9.45S245.17,228,241.74,228.9Z"/></clipPath><linearGradient id="linear-gradient-4" x1="175.96" y1="169.07" x2="227.34" y2="169.07" xlink:href="#linear-gradient"/><linearGradient id="linear-gradient-5" x1="94.28" y1="161.34" x2="181.48" y2="161.34" xlink:href="#linear-gradient"/><linearGradient id="linear-gradient-6" x1="47.04" y1="193.01" x2="133.37" y2="193.01" xlink:href="#linear-gradient"/><linearGradient id="linear-gradient-7" x1="26.96" y1="138.73" x2="48.54" y2="138.73" xlink:href="#linear-gradient"/><linearGradient id="linear-gradient-8" x1="36.06" y1="153.08" x2="56.08" y2="153.08" xlink:href="#linear-gradient"/><linearGradient id="linear-gradient-9" x1="50.11" y1="142.72" x2="56.08" y2="142.72" xlink:href="#linear-gradient"/><linearGradient id="linear-gradient-10" x1="46.02" y1="161.34" x2="66.05" y2="161.34" xlink:href="#linear-gradient"/><linearGradient id="linear-gradient-11" x1="60.99" y1="151.71" x2="66.43" y2="151.71" xlink:href="#linear-gradient"/><linearGradient id="linear-gradient-12" x1="54.73" y1="172.49" x2="77.78" y2="172.49" xlink:href="#linear-gradient"/><linearGradient id="linear-gradient-13" x1="72.23" y1="161.63" x2="78.42" y2="161.63" xlink:href="#linear-gradient"/><linearGradient id="linear-gradient-14" x1="66.34" y1="183.71" x2="89.35" y2="183.71" xlink:href="#linear-gradient"/><linearGradient id="linear-gradient-15" x1="84.59" y1="173.51" x2="90.63" y2="173.51" xlink:href="#linear-gradient"/><linearGradient id="linear-gradient-16" x1="76.33" y1="197.24" x2="102.68" y2="197.24" xlink:href="#linear-gradient"/><linearGradient id="linear-gradient-17" x1="98.31" y1="186.44" x2="105.12" y2="186.44" xlink:href="#linear-gradient"/><linearGradient id="linear-gradient-18" x1="88.97" y1="210.67" x2="115.02" y2="210.67" xlink:href="#linear-gradient"/><linearGradient id="linear-gradient-19" x1="112.2" y1="201.19" x2="119" y2="201.19" xlink:href="#linear-gradient"/><linearGradient id="linear-gradient-20" x1="257.77" y1="98.96" x2="268.82" y2="98.96" xlink:href="#linear-gradient"/><linearGradient id="linear-gradient-21" x1="256.83" y1="76.45" x2="267.87" y2="76.45" xlink:href="#linear-gradient"/><linearGradient id="linear-gradient-22" x1="237.48" y1="85.86" x2="248.53" y2="85.86" xlink:href="#linear-gradient"/><linearGradient id="linear-gradient-23" x1="77.1" y1="122.54" x2="88.15" y2="122.54" xlink:href="#linear-gradient"/><linearGradient id="linear-gradient-24" x1="24.13" y1="160.68" x2="35.17" y2="160.68" xlink:href="#linear-gradient"/><linearGradient id="linear-gradient-25" x1="21.95" y1="176.59" x2="33" y2="176.59" xlink:href="#linear-gradient"/><clipPath id="clip-path-3" transform="translate(8.38)"><path class="cls-1" d="M286.52,241.38l15.89,4.36c27.34-17.63,51.39-39.2,65-46-3.45-.31-42.72-2.64-67.8-.83l-5,10.88-.14-10.42c-2.64.28-5,.63-7.13,1-29.88,6-67,21.39-75.65,54-3.62,13.67,11.66,16.16,21.75,16.52,20.49.74,42.34-8.78,62.71-21.19Z"/></clipPath><linearGradient id="linear-gradient-26" x1="3.71" y1="235.7" x2="361.4" y2="235.7" xlink:href="#linear-gradient"/><clipPath id="clip-path-4" transform="translate(8.38)"><path class="cls-1" d="M128.07,170.14l-14.89-7.22c-9-31.4-12.93-63.62-18.69-77.76,2.8,2,34.05,26.25,51.8,44.21l-3.41,11.53,7-7.79c1.81,2,3.4,3.81,4.7,5.51,18.65,24.27,36.53,60.5,21.51,90.81-6.3,12.73-19.5,4.51-27.37-1.89-16-13-26.19-34.64-33.39-57.5Z"/></clipPath><clipPath id="clip-path-5" transform="translate(8.38)"><path class="cls-2" d="M207.13,240.91c-3-8-5.84-16.18-6.59-24.71a35.64,35.64,0,0,1,.66-11.7c.93-3.66,3.22-6.81,4.11-10.48,1.94-7.94.26-16.25-.93-24.18a47.75,47.75,0,0,1,0-6.66.56.56,0,0,0-.48-.67c-2.7-1-5.51-1.66-8.14-2.8-2.83-1.22-6.52-2.42-9.37-3.58-5.72-2.33-10.15-3.11-15.85-.6q-6.24,2.75-12.7,4.93c-2,.73-4.17,1.38-6.28,1.93a.44.44,0,0,0-.28.14.48.48,0,0,0-.06.29,51.78,51.78,0,0,1-.76,10.49c-.93,4.72-2.15,9.23-1.9,14.09a32.31,32.31,0,0,0,1.37,7.86c.77,2.55,2.15,4.85,2.87,7.41,2.34,8.24,3,18.71.14,26.9-1.37,3.93-3.71,7.45-5.17,11.34a1.35,1.35,0,0,0,.84,2c8.19,4.28,17.38,5.57,26.36,6.23.79.06,1.56.12,2.32.16v0h.32v0c.76,0,1.52-.1,2.31-.16,9-.66,18.17-2,26.37-6.23a1.35,1.35,0,0,0,.84-2Z"/></clipPath><clipPath id="clip-path-6" transform="translate(8.38)"><path class="cls-2" d="M214.6,229a41.68,41.68,0,0,1,.08,4.47,23.12,23.12,0,0,1-4.75,13.85c-5.55,6.79-16.08,9.69-24.5,10.64-13,1.47-30.65.17-39.67-10.63a23.25,23.25,0,0,1-5-13.1c-.95-12.18,4.42-25.33,11.25-35.18,3-4.29,6.14-8,11-10.1,5.07-2.18,10.72-2.63,16.16-3,10.31-.69,19.49,1.64,24.52,11.27S213.79,217.9,214.6,229Z"/></clipPath></defs><g id="Layer_2" data-name="Layer 2"><g id="Layer_1-2" data-name="Layer 1"><path class="cls-3" d="M126.36,262.69c-8.13-4.74-17.81-5.12-27.18-5.48-4-.16-8.07-.32-12-.8C68.37,254.08,54.5,242,50.08,224c-4-16.3.48-33.76,11.7-45.56l1.66-1.73c3.68-3.83,7.49-7.79,10.15-12.35,5.93-10.2,4.2-23.81-4.65-36.43-1.09-1.55-2.25-3.12-3.37-4.64-3.68-5-7.49-10.15-9.95-16.15-3-7.25-3.66-16.49-2-26C56.4,65.64,65.14,51.7,77,43.82c15.48-10.25,32.33-8,48.62-5.73,8.67,1.18,17.64,2.4,26.27,1.69a49.49,49.49,0,0,0,33.29-16.67C203.57,1.8,231.69-5.68,253.6,4.92c13.32,6.45,24.25,18.66,30,33.51,3.27,8.46,3.92,17.51,4.55,26.25.57,8,1.16,16.2,3.74,23.87,3,9,8.73,17,15.62,21.9,10.13,7.19,17,14.11,21.73,21.8,7,11.45,8.49,24.54,4,35-3.21,7.43-9.27,12-15.14,16.52s-11.58,8.82-14.13,15.77a26.35,26.35,0,0,0-1.38,9.19,77.09,77.09,0,0,0,1.62,13.14c1.39,7.73,2.83,15.72.17,23.59-3.08,9.07-13.55,13.8-31.13,14.05-2.08,0-4.2,0-6.25,0-7.88-.07-16-.13-23.36,2.5l-1-2.83c7.84-2.81,16.25-2.74,24.4-2.67,2,0,4.13,0,6.17,0,16.18-.23,25.71-4.27,28.33-12,2.42-7.14,1.11-14.4-.28-22.09a80.65,80.65,0,0,1-1.66-13.67,28.93,28.93,0,0,1,1.56-10.23c2.85-7.78,9.1-12.53,15.14-17.13,5.81-4.43,11.29-8.61,14.19-15.32,4.07-9.42,2.63-21.77-3.76-32.23-4.48-7.33-11.13-14-20.92-20.93-7.39-5.24-13.48-13.76-16.72-23.38-2.71-8-3.31-16.46-3.9-24.61-.64-8.92-1.24-17.35-4.35-25.39-5.48-14.15-15.86-25.77-28.51-31.89C231.61-2.39,205,4.79,187.5,25.06a52.49,52.49,0,0,1-35.32,17.71c-9,.74-18.1-.51-26.93-1.71-16.46-2.24-32-4.36-46.55,5.26C67.47,53.76,59.21,67,56.61,81.63c-1.6,9-1,17.61,1.79,24.34,2.31,5.66,6,10.67,9.58,15.51,1.14,1.53,2.31,3.11,3.42,4.7,9.53,13.6,11.32,28.42,4.78,39.66-2.84,4.87-6.77,9-10.58,12.92L64,180.48c-10.53,11.06-14.73,27.46-11,42.78,4.11,16.72,17,28,34.56,30.17,3.81.47,7.84.63,11.74.78,9.74.38,19.81.77,28.58,5.88Z" transform="translate(8.38)"/><path class="cls-3" d="M326.24,112.74c7.29,10.36,12.91,24.46,9,37.47s-16.33,21-21.77,33.29c-3.07,7-3.15,14.62-3.27,22.1-.15,9.78,1.76,20.17-4.85,28.44-3.91,4.89-9.82,7.78-15.79,9.68-12,3.82-24.54,5.61-35.19,12.81-17.49,11.83-39,16-59.82,14.69a135.57,135.57,0,0,1-31.19-5.73c-11.76-3.59-22.22-10-34.07-13.35-20.53-5.91-48.61-6-60.62-26.76-8.09-14-10.89-31.27-4.6-46.51,3-7.25,8.7-12.78,12-19.89a45.69,45.69,0,0,0,2.7-31.48c-.12-.43-.25-.86-.39-1.28-3.14-9.76-9.45-18.16-12.06-28.09-5.4-20.52,6.52-42.21,22.18-55.39a66.33,66.33,0,0,1,21.7-12.64c21.84-7.17,46.11,1.12,68-5.81C195,19,208.8,5.14,225.93,1.14c13.16-3.07,27.38.21,38.56,8.24s19.29,20.6,23,34.45c3.43,12.83,3.32,26.92,9.4,38.57,5.2,10,14.83,15.35,22.66,22.58A49.54,49.54,0,0,1,326.24,112.74Z" transform="translate(8.38)"/><path class="cls-4" d="M241.74,228.66c-8.13,2-21.2,5.56-28.25-.93a19.31,19.31,0,0,1-4.61-7.84,59.7,59.7,0,0,1-3.51-23.12A14.41,14.41,0,0,1,207,189.9c1.24-2,3.68-3.5,6-2.93s4,2.14,5.91-.28c3.48-4.33,3.35-11.34,4.63-16.49.94-3.75,3.59-11.06,8.46-11,3.32,0,5.16,4.83,8.63,4a4.2,4.2,0,0,0,2.66-2.52c3.3-6.93,4.27-18.64,12.28-22a5.55,5.55,0,0,1,5.28.31c1.56,1.14,2.16,3.25,3.67,4.45,1.8,1.42,4.49,1.17,6.48,0a18.63,18.63,0,0,0,4.89-4.77c3.59-4.44,7.52-8.83,12.64-11.35,8.26-4.08,20.36-1.2,17.5,10.26-1.12,4.47-5.38,7.34-9.42,9.54-3.73,2-15.25,7.91-8.67,12.86a22.59,22.59,0,0,1,3.78,2.83c2.09,2.4,1.66,6.28-.26,8.81s-5,3.94-8.05,4.83-6.23,1.35-9.2,2.51c-2.19.85-4.55,2.72-4.08,5s3.59,3.15,5.1,5.07c1.71,2.17,1,5.51-.81,7.58s-4.49,3.17-7,4.21L259.74,204c-2.72,1.1-5.86,2.74-6.12,5.66-.16,1.78.87,3.43,1.27,5.17.81,3.45-.92,7.12-3.59,9.45S245.17,227.8,241.74,228.66Z" transform="translate(8.38)"/><path class="cls-5" d="M100.16,265.07c8.21-1.68,21.52-4.17,25-13.07,1.14-2.84,1.08-6,.77-9.06a59.85,59.85,0,0,0-6.84-22.36,14.37,14.37,0,0,0-4.44-5.48c-2-1.3-4.83-1.57-6.67,0s-2.65,3.65-5.44,2.31c-5-2.4-7.94-8.77-11.32-12.86-2.46-3-8-8.42-12.39-6.28-3,1.45-2.56,6.58-6,7.38a4.28,4.28,0,0,1-3.49-1.12c-6-4.82-11.92-14.95-20.58-14.49a5.51,5.51,0,0,0-4.63,2.56c-.92,1.7-.54,3.86-1.38,5.6-1,2.06-3.54,3-5.82,2.83a18.48,18.48,0,0,1-6.47-2.17c-5.16-2.45-10.61-4.7-16.31-4.76C5,194-4.7,201.78,2.85,210.87c2.94,3.54,8,4.29,12.61,4.52,4.25.23,17.17.53,13.38,7.84a21.9,21.9,0,0,0-2.18,4.18c-.84,3.07,1.22,6.38,4.05,7.83s6.2,1.39,9.34.87,6.2-1.48,9.38-1.72c2.34-.18,5.28.48,5.85,2.76s-1.87,4.39-2.4,6.78c-.61,2.69,1.47,5.4,4,6.47s5.42.92,8.17.75l8.19-.52c2.93-.19,6.47-.07,8,2.45.92,1.54.71,3.46,1.09,5.21.77,3.46,3.92,6,7.33,7S96.7,265.79,100.16,265.07Z" transform="translate(8.38)"/><g class="cls-6"><path class="cls-7" d="M139.11,262.76c-11.79-7.28-23.9-14.38-36-21.12-7.72-4.3-15.42-7.8-23.57-11.51-3.25-1.47-6.61-3-9.94-4.57-4.62-2.18-9.39-4.43-14.17-6.48-20.51-8.8-42.53-14.47-63.81-20l.74-2.91c21.4,5.51,43.53,11.21,64.25,20.1,4.83,2.07,9.63,4.33,14.27,6.52,3.31,1.56,6.66,3.09,9.91,4.56,7.84,3.57,15.95,7.26,23.78,11.62,12.14,6.76,24.29,13.88,36.11,21.18Z" transform="translate(8.38)"/><path class="cls-7" d="M37.48,251.74a26.91,26.91,0,0,1-6.22-.64l.7-2.92c15.24,3.66,52.3-11.38,59.32-14.32-3.52-14.23-13.9-38.74-20-47l2.42-1.78c6.44,8.77,17.51,35.07,20.79,49.37l.27,1.21-1.14.5C92,236.83,57.41,251.74,37.48,251.74Z" transform="translate(8.38)"/><path class="cls-7" d="M15.08,235v-3c10.38,0,40-9,47.44-11.28-3.53-6.5-17.17-31.12-26.79-40.83l2.13-2.11C49.24,189.25,65.33,219.61,66,220.89l.84,1.59-1.71.54C63.61,223.51,27.4,235,15.08,235Z" transform="translate(8.38)"/><path class="cls-7" d="M75,269.17l-.59-2.94c16.52-3.27,35.85-18.11,39-20.56,2.6-14.92-1.34-28.34-5.25-39.77l2.84-1c4.08,11.93,8.19,26,5.26,41.83l-.1.54-.43.35C114.78,248.38,93.65,265.48,75,269.17Z" transform="translate(8.38)"/></g><path class="cls-8" d="M286.52,241l15.89,4.35c27.34-17.62,51.39-39.19,65-46-3.45-.31-42.72-2.64-67.8-.83l-5,10.88L294.46,199c-2.64.28-5,.63-7.13,1-29.88,6-67,21.39-75.65,53.95-3.62,13.67,11.66,16.16,21.75,16.52,20.49.74,42.34-8.79,62.71-21.19Z" transform="translate(8.38)"/><g class="cls-9"><path class="cls-7" d="M206.52,243.24,204,241.62c7.49-11.69,15.36-23.38,23.39-34.74,5.17-7.32,10.88-14.16,16.41-20.77,2.28-2.73,4.65-5.56,6.95-8.4,3.24-4,6.58-8.1,10-12.06,14.84-17,32.32-31.71,49.22-45.95L312,122c-16.82,14.16-34.21,28.81-48.9,45.62-3.43,3.93-6.75,8-10,12-2.32,2.86-4.69,5.69-7,8.43-5.74,6.87-11.16,13.36-16.26,20.58C221.84,219.94,214,231.59,206.52,243.24Z" transform="translate(8.38)"/><path class="cls-7" d="M234.75,199.58l-.28-1.21c-3.24-14.31-4.64-42.81-2.63-53.51l2.95.56c-1.9,10.11-.64,36.69,2.34,51.06,7.61-.39,47.52-2.89,59.69-12.78l1.89,2.33C284.54,197.55,238,199.46,236,199.54Z" transform="translate(8.38)"/><path class="cls-7" d="M254.23,175.64l.07-1.8c0-1.45,1.42-35.79,6.7-51.08l2.84,1c-4.47,12.92-6.1,41-6.46,48.41,7.73-1.15,38.27-5.9,47.64-10.37l1.3,2.7C295.2,169.8,257.6,175.16,256,175.39Z" transform="translate(8.38)"/><path class="cls-7" d="M250.88,223a142.53,142.53,0,0,1-29.77-3.56l-.53-.12-.33-.45c-9.5-13-11.89-27.47-13.38-40l3-.35c1.43,12,3.69,25.81,12.5,38.13,3.86.86,27.71,5.87,44,1.67l.74,2.9A66.19,66.19,0,0,1,250.88,223Z" transform="translate(8.38)"/></g><path class="cls-10" d="M216.14,125.82c1.85-.46,13.27-4,10.87-7.81-.81-1.26-3-.86-4.17-.42a19.72,19.72,0,0,0-5,3.25c-2.05,1.66-5.64,4.73-7.35,6.19a99.59,99.59,0,0,1,3.65-9.52l-.23-.11c1.12-1.63,2.93-4.23,4.13-5.72,1.53-1.92,10.41-14.51,5-16.48-1.81-.66-3.79,1.5-4.59,2.82a25.48,25.48,0,0,0-2.55,7.21c-.79,3.22-2,9-2.64,11.88l-.05,0a100.8,100.8,0,0,0-3.81,10c-.21-1.39-.63-4.36-.75-6.07-.13-1.9-1.67-13.77-5.79-12.06-1.39.57-1.38,2.85-1.14,4a19.9,19.9,0,0,0,2.33,5.46c1.46,2.64,4.38,7.59,5.22,9-1.2,3.61-2.46,7.77-3.75,12.36-.3-1.46-.83-4.18-1-5.79-.24-1.9-2.43-13.66-6.45-11.73-1.35.65-1.22,2.92-.91,4.08a19.87,19.87,0,0,0,2.62,5.33c1.56,2.49,4.62,7.08,5.63,8.59-1.31,4.69-2.65,9.81-4,15.23-.36-1.66-1-4.78-1.28-6.64-.3-2.17-3-15.67-7.62-13.38-1.54.77-1.35,3.38-1,4.71a22.62,22.62,0,0,0,3.11,6.09c1.84,2.84,5.45,8.09,6.63,9.79-1.22,5-2.41,10.31-3.56,15.74-.43-1.63-1.23-4.79-1.57-6.66-.4-2.16-3.69-15.54-8.18-13.06-1.51.84-1.21,3.44-.79,4.76a23.09,23.09,0,0,0,3.37,6c2,2.78,5.84,7.92,7.06,9.54-1.31,6.22-2.54,12.63-3.65,19.06-.57-1.76-1.76-5.57-2.29-7.79-.58-2.46-5.16-17.63-10.17-14.51-1.69,1.05-1.19,4-.62,5.5a26.21,26.21,0,0,0,4.22,6.64c2.48,3.14,7.38,9,8.77,10.64-1.07,6.25-2,12.52-2.81,18.66-.68-1.67-2.21-5.47-2.91-7.68-.77-2.4-6.51-17.17-11.26-13.68-1.6,1.18-.88,4.1-.2,5.54a26.22,26.22,0,0,0,4.73,6.29c2.72,3,8.1,8.45,9.59,10a256.11,256.11,0,0,0-2.31,32.06h1a255.81,255.81,0,0,1,2.31-32c1.42-.9,5.07-3.18,7.21-4.31s15.77-9.4,11.5-13.47c-1.43-1.37-4.18-.14-5.48.78a26,26,0,0,0-5.37,5.74c-2.25,3-6.22,8.49-7.79,10.69.78-6.06,1.72-12.23,2.78-18.39,1.47-.78,5.32-2.8,7.55-3.76s16.46-8.15,12.52-12.54c-1.33-1.48-4.17-.47-5.53.35a26.1,26.1,0,0,0-5.8,5.31c-2.49,2.8-7,8.11-8.66,10.13,1.11-6.39,2.33-12.75,3.63-18.94,1.34-.62,4.73-2.17,6.69-2.9s14.66-6.33,11.43-10.32c-1.08-1.34-3.59-.6-4.81.05a22.94,22.94,0,0,0-5.28,4.36c-2.27,2.3-6.34,6.66-7.93,8.36,1.14-5.42,2.34-10.69,3.55-15.72,1.34-.56,4.84-2,6.84-2.63S224,148.1,221,144c-1-1.38-3.56-.74-4.81-.15a22.72,22.72,0,0,0-5.45,4.13c-2.39,2.22-6.7,6.46-8.33,8.07,1.34-5.51,2.7-10.71,4-15.47,1.26-.5,4.15-1.62,5.83-2.14,1.83-.56,13-4.77,10.43-8.39-.87-1.22-3.09-.7-4.18-.19a19.76,19.76,0,0,0-4.79,3.51c-2,1.83-5.6,5.24-7.15,6.73,1.3-4.63,2.58-8.84,3.8-12.47C211.67,127.15,214.49,126.23,216.14,125.82Z" transform="translate(8.38)"/><path class="cls-11" d="M127.86,170.84,113,163.62C104,132.22,100,100,94.28,85.86c2.81,2,34.05,26.26,51.8,44.21l-3.41,11.53,7-7.79c1.81,2,3.4,3.81,4.71,5.51,18.64,24.27,36.52,60.5,21.51,90.82-6.31,12.73-19.51,4.5-27.37-1.9-16-13-26.2-34.64-33.4-57.5Z" transform="translate(8.38)"/><path class="cls-12" d="M47,145.67c16.13,10.81,64.69,58.93,86.33,94.67" transform="translate(8.38)"/><path class="cls-13" d="M38.85,136.53a25.43,25.43,0,0,0-5.93-4.83c-1.37-.71-4.18-1.53-5.39,0C24,136.17,38.09,142.3,40.4,143.14c2.77,1,8.14,3.48,8.14,3.48S42.08,139.75,38.85,136.53Z" transform="translate(8.38)"/><path class="cls-14" d="M45.34,150.86a19.75,19.75,0,0,0-5.94-.18c-1.19.2-3.31,1-3.34,2.52-.09,4.46,11.53,1.58,13.35,1,2.19-.68,6.67-1.68,6.67-1.68S48.85,151.33,45.34,150.86Z" transform="translate(8.38)"/><path class="cls-15" d="M55.85,141.66a19.69,19.69,0,0,0-.85-5.88c-.41-1.13-1.59-3.08-3.07-2.85-4.4.69.45,11.63,1.33,13.32,1.05,2,2.82,6.28,2.82,6.28S56,145.2,55.85,141.66Z" transform="translate(8.38)"/><path class="cls-16" d="M55.42,159.36a19.77,19.77,0,0,0-5.92-.51c-1.2.14-3.36.84-3.47,2.34-.34,4.44,11.42,2.21,13.27,1.74,2.22-.57,6.75-1.32,6.75-1.32S58.9,160,55.42,159.36Z" transform="translate(8.38)"/><path class="cls-17" d="M66.42,150.74a19.91,19.91,0,0,0-.53-5.92c-.34-1.15-1.42-3.15-2.91-3-4.43.44-.19,11.63.6,13.37.94,2.09,2.47,6.42,2.47,6.42S66.38,154.29,66.42,150.74Z" transform="translate(8.38)"/><path class="cls-18" d="M65.57,170.28a22.68,22.68,0,0,0-6.8-.69c-1.38.14-3.88.91-4,2.63-.47,5.11,13.1,2.74,15.24,2.23,2.57-.61,7.8-1.4,7.8-1.4S69.57,171.09,65.57,170.28Z" transform="translate(8.38)"/><path class="cls-19" d="M78.38,160.55a22.57,22.57,0,0,0-.51-6.82c-.37-1.33-1.57-3.66-3.29-3.51-5.11.43-.42,13.38.46,15.4,1,2.42,2.74,7.43,2.74,7.43S78.27,164.63,78.38,160.55Z" transform="translate(8.38)"/><path class="cls-20" d="M77.27,181.7a22.63,22.63,0,0,0-6.77-1c-1.38.08-3.91.75-4.14,2.46-.68,5.09,13,3.29,15.14,2.87,2.59-.5,7.85-1.07,7.85-1.07S81.23,182.69,77.27,181.7Z" transform="translate(8.38)"/><path class="cls-21" d="M90.48,172.53a23,23,0,0,0-.22-6.84c-.32-1.34-1.42-3.72-3.15-3.65-5.12.22-1,13.35-.19,15.41,1,2.46,2.43,7.54,2.43,7.54S90.2,176.59,90.48,172.53Z" transform="translate(8.38)"/><path class="cls-22" d="M89,195.19a26.38,26.38,0,0,0-7.72-1.52c-1.59,0-4.54.63-4.9,2.58-1.09,5.8,14.71,4.55,17.21,4.2,3-.42,9.08-.76,9.08-.76S93.49,196.56,89,195.19Z" transform="translate(8.38)"/><path class="cls-23" d="M104.72,185.44a26.24,26.24,0,0,0,.16-7.86c-.29-1.57-1.41-4.36-3.4-4.38-5.9-.06-1.92,15.28-1.13,17.68.94,2.89,2.33,8.81,2.33,8.81S104.16,190.1,104.72,185.44Z" transform="translate(8.38)"/><path class="cls-24" d="M101.74,208.92a26.38,26.38,0,0,0-7.58-2.12c-1.59-.11-4.57.28-5.09,2.2-1.52,5.69,14.32,5.67,16.84,5.51,3-.19,9.11-.06,9.11-.06S106.1,210.62,101.74,208.92Z" transform="translate(8.38)"/><path class="cls-25" d="M118.16,200.41a26.32,26.32,0,0,0,.76-7.83c-.17-1.58-1.07-4.46-3-4.63-5.87-.51-3.09,15.08-2.5,17.54.72,2.95,1.65,9,1.65,9S117.24,205,118.16,200.41Z" transform="translate(8.38)"/><circle class="cls-26" cx="263.3" cy="98.96" r="5.52"/><circle class="cls-27" cx="262.35" cy="76.45" r="5.52"/><circle class="cls-28" cx="243.01" cy="85.86" r="5.52"/><circle class="cls-29" cx="82.63" cy="122.54" r="5.52"/><circle class="cls-30" cx="29.65" cy="160.68" r="5.52"/><circle class="cls-31" cx="27.48" cy="176.59" r="5.52"/><g class="cls-32"><path class="cls-7" d="M355.58,220.62c-1.06-.2-25.84-4.83-32.78-7.68l1.15-2.77c6.64,2.73,31.92,7.45,32.18,7.5Z" transform="translate(8.38)"/><path class="cls-7" d="M205.86,272.23,204,269.9c21.08-17.12,46.6-32.22,75.87-44.89,25.14-10.87,51.91-17.46,77.8-23.83l11.68-2.88.73,2.91-11.69,2.89C332.58,210.44,305.93,217,281,227.77,252,240.32,226.72,255.28,205.86,272.23Z" transform="translate(8.38)"/><path class="cls-7" d="M303.32,218.75l-2.74-1.21c5.08-11.6,18.66-31.7,19.24-32.55l2.48,1.68C322.16,186.87,308.3,207.39,303.32,218.75Z" transform="translate(8.38)"/><path class="cls-7" d="M274.49,230l-2.91-.69a225.68,225.68,0,0,1,14.4-40l2.7,1.3A222.25,222.25,0,0,0,274.49,230Z" transform="translate(8.38)"/><path class="cls-7" d="M334.37,245.69c-11.81-1.16-40.92-14.29-50.74-19.64l1.43-2.63c9.38,5.1,38.37,18.18,49.6,19.29Z" transform="translate(8.38)"/><path class="cls-7" d="M298,263.8c-15.48-1.46-29.9-8.16-51.09-20l1.47-2.62c20.83,11.66,34.95,18.24,49.9,19.65Z" transform="translate(8.38)"/><path class="cls-7" d="M242.28,246.66l-2.92-.67c.52-2.26,1-4.65,1.56-7.12,3.05-14.11,6.84-31.68,15.33-43.74l2.46,1.72c-8.15,11.57-11.87,28.8-14.85,42.66C243.32,242,242.8,244.39,242.28,246.66Z" transform="translate(8.38)"/></g><path class="cls-33" d="M353.38,266.76c-5.28-3.87-11.8-5.51-18.11-7.27s-12.79-3.83-17.55-8.32c-5.08-4.78-7.86-12-14-15.43-7.59-4.25-16.47-1-24.51-.49-7.1.43-15.45-1.17-21.46-5.13-9.5-6.26-13-18.39-22.33-24.73-11-7.46-25.27-5.31-36.42,1-6.13,3.46-11.47,8.37-18,10.9a28.13,28.13,0,0,1-23.41-1.62c-4.87-2.7-8.81-6.79-13.28-10.12s-9.94-6-15.44-5.11c-14.33,2.3-17.56,25.23-31.86,27.74-3.69.65-7.66-.25-11.12,1.2-5.3,2.23-7,8.74-10.55,13.27-7.77,10-24.64,7.38-35.79,8.65-8.18.93-16.36,3.16-23.18,7.76A30.54,30.54,0,0,0,5.77,271.17H358.06A25,25,0,0,0,353.38,266.76Z" transform="translate(8.38)"/><g class="cls-34"><path class="cls-7" d="M119.64,124.88c-7.13-2.43-28.93-15.32-29.85-15.87l1.53-2.58c.22.13,22.45,13.28,29.29,15.61Z" transform="translate(8.38)"/><path class="cls-7" d="M168.85,247.06c-4.56-26.61-13.79-54.65-27.42-83.33-11.7-24.62-27.52-47.2-42.81-69q-3.47-4.94-6.92-9.91l2.46-1.71q3.45,5,6.92,9.9c15.36,22,31.25,44.63,43.06,69.48,13.75,28.93,23.06,57.23,27.67,84.12Z" transform="translate(8.38)"/><path class="cls-7" d="M133.4,143.07l-2.87-.91c3.75-11.87,6.84-36.56,6.87-36.8l3,.37C140.25,106.75,137.23,130.93,133.4,143.07Z" transform="translate(8.38)"/><path class="cls-7" d="M147.53,171.16l-2.66-1.4a222.89,222.89,0,0,0,15.36-39.19l2.89.79A227.87,227.87,0,0,1,147.53,171.16Z" transform="translate(8.38)"/><path class="cls-7" d="M140.59,160.71c-11-2.46-41.65-11.78-51.35-18.72L91,139.55c9.23,6.6,39.8,15.89,50.26,18.23Z" transform="translate(8.38)"/><path class="cls-7" d="M156.66,198.43c-23.86-5.05-39.19-9.52-51.86-18.66l1.75-2.43c12.24,8.83,27.27,13.19,50.73,18.15Z" transform="translate(8.38)"/><path class="cls-7" d="M160.86,205.07l-2.64-1.43c1.11-2.06,2.31-4.22,3.54-6.45,6.91-12.45,15.5-27.94,17-42.07l3,.32c-1.55,14.73-10.31,30.52-17.34,43.21C163.16,200.87,162,203,160.86,205.07Z" transform="translate(8.38)"/></g><path class="cls-35" d="M221.69,217.84c-4.46-2.05-7.57-7.74-9.76-11.56-2-3.46-3.77-7-5.5-10.65-1.61-3.36-3.53-6.54-4.46-10.2a23.12,23.12,0,0,1-.55-5.25q-.09-3.78,0-7.55a22.39,22.39,0,0,1,1.49-8.76,1.38,1.38,0,0,1,1.92-1c4.93,1.24,7,5.5,9.21,9.66l6.75,12.93c4.36,8.36,7.58,16.54,8.39,26,.23,2.59.15,6.77-3.21,7.13A8,8,0,0,1,221.69,217.84Z" transform="translate(8.38)"/><path class="cls-35" d="M134.32,217.69c4.45-2.05,7.56-7.74,9.75-11.56,2-3.46,3.78-7,5.5-10.65,1.62-3.36,3.54-6.54,4.47-10.2a23.69,23.69,0,0,0,.54-5.25c.06-2.52,0-5,0-7.55a22.58,22.58,0,0,0-1.5-8.76,1.38,1.38,0,0,0-1.92-1c-4.93,1.24-7,5.5-9.21,9.66q-3.37,6.47-6.74,12.93c-4.37,8.36-7.59,16.54-8.4,26-.22,2.59-.14,6.77,3.22,7.13A8,8,0,0,0,134.32,217.69Z" transform="translate(8.38)"/><path class="cls-2" d="M207.13,240.91c-3-8-5.84-16.18-6.59-24.71a35.64,35.64,0,0,1,.66-11.7c.93-3.66,3.22-6.81,4.11-10.48,1.94-7.94.26-16.25-.93-24.18a47.75,47.75,0,0,1,0-6.66.56.56,0,0,0-.48-.67c-2.7-1-5.51-1.66-8.14-2.8-2.83-1.22-6.52-2.42-9.37-3.58-5.72-2.33-10.15-3.11-15.85-.6q-6.24,2.75-12.7,4.93c-2,.73-4.17,1.38-6.28,1.93a.44.44,0,0,0-.28.14.48.48,0,0,0-.06.29,51.78,51.78,0,0,1-.76,10.49c-.93,4.72-2.15,9.23-1.9,14.09a32.31,32.31,0,0,0,1.37,7.86c.77,2.55,2.15,4.85,2.87,7.41,2.34,8.24,3,18.71.14,26.9-1.37,3.93-3.71,7.45-5.17,11.34a1.35,1.35,0,0,0,.84,2c8.19,4.28,17.38,5.57,26.36,6.23.79.06,1.56.12,2.32.16v0h.32v0c.76,0,1.52-.1,2.31-.16,9-.66,18.17-2,26.37-6.23a1.35,1.35,0,0,0,.84-2Z" transform="translate(8.38)"/><g class="cls-36"><path class="cls-35" d="M197,159.72c.38-1.17,1.81-3.78,1.09-4.8s-3.43-.81-4.48-.78l-34.79,1.17c.68,2.49.7,4.81,1.66,7.26a23.27,23.27,0,0,0,3.25,5.85,18.45,18.45,0,0,0,11,6.89,18.87,18.87,0,0,0,19.51-8.78A36.59,36.59,0,0,0,197,159.72Z" transform="translate(8.38)"/><path class="cls-7" d="M178,180.63a22.58,22.58,0,0,1-4.18-.39,23.06,23.06,0,0,1-13.72-8.41,27.37,27.37,0,0,1-4-7,25.17,25.17,0,0,1-1.31-5.21,32.47,32.47,0,0,0-.67-3.23l-.5-1.83,42.75-1.41c2.35-.11,5-.08,6.12,1.51s.15,3.92-.65,5.79c-.17.4-.32.76-.42,1.05a40.87,40.87,0,0,1-3.32,8C194.1,176.34,186.09,180.63,178,180.63Zm-20.57-23.24c.12.57.21,1.13.31,1.68a21.74,21.74,0,0,0,1.14,4.61,24.85,24.85,0,0,0,3.57,6.29,20.08,20.08,0,0,0,11.93,7.32c8.17,1.57,17.06-2.34,21.12-9.3a39.19,39.19,0,0,0,3.07-7.48h0c.11-.34.29-.78.5-1.27a10.62,10.62,0,0,0,.93-2.89c-.27-.16-1.14-.35-3.52-.25l-.39,0Z" transform="translate(8.38)"/></g><path class="cls-35" d="M168.76,168.39c3.63,4.13,10.61,4.46,15.5,2.77,3.32-1.15,5.67-3.77,5.74-7.38.08-4-3.45-6.89-4.35-10.65a25.66,25.66,0,0,1-.4-6.49c.06-2.53.08-5.06.2-7.59a26.78,26.78,0,0,0-7.19-.68c-2.2.09-4.4-.14-6.6,0a.83.83,0,0,0-.49.14.68.68,0,0,0-.16.48c-.3,3.41,0,6.87-.24,10.29a17.19,17.19,0,0,1-2.76,8.91A8.32,8.32,0,0,0,168.76,168.39Z" transform="translate(8.38)"/><path class="cls-37" d="M185.51,152.63a26.94,26.94,0,0,1-.31-6c.06-2.53.08-5.06.2-7.59a26.78,26.78,0,0,0-7.19-.68c-2.2.09-4.39-.14-6.59,0a.84.84,0,0,0-.5.14.73.73,0,0,0-.16.48c-.29,3.41,0,6.87-.24,10.29a22.35,22.35,0,0,1-.37,2.93c.35.3.7.59,1.06.86a11.28,11.28,0,0,0,9.63,1.75A14.8,14.8,0,0,0,185.51,152.63Z" transform="translate(8.38)"/><path class="cls-38" d="M256.37,253.38a30.24,30.24,0,0,1-6.45,5.83c-12.67,8.84-29.36,13.24-44.36,17.13-13.4,3.48-25.88,5-39.59,3.61-9.36-.92-18.68-3.83-27.72-6.52A162.35,162.35,0,0,1,111.13,263c-6.83-3.46-12.94-7.75-14-15.92-.31-2.38-.09-6.13,1.72-8s6.45-2.48,9-3.14a137.79,137.79,0,0,1,21-3.59,428.81,428.81,0,0,1,52.06-1.77c10.3.21,20.61.44,30.89,1.1,7.9.5,15.78,1.29,23.65,2.2,6.43.74,14.73.43,19.6,5.45,3.51,3.6,4.85,9,1.87,13.36C256.73,252.92,256.55,253.15,256.37,253.38Z" transform="translate(8.38)"/><path class="cls-2" d="M214.6,229a41.68,41.68,0,0,1,.08,4.47,23.12,23.12,0,0,1-4.75,13.85c-5.55,6.79-16.08,9.69-24.5,10.64-13,1.47-30.65.17-39.67-10.63a23.25,23.25,0,0,1-5-13.1c-.95-12.18,4.42-25.33,11.25-35.18,3-4.29,6.14-8,11-10.1,5.07-2.18,10.72-2.63,16.16-3,10.31-.69,19.49,1.64,24.52,11.27S213.79,217.9,214.6,229Z" transform="translate(8.38)"/><g class="cls-39"><path class="cls-2" d="M192.27,207.85c0-1,1-1.68,1.69-2,4-1.59,8.16-3.58,11.14-7.6a33.89,33.89,0,0,0,3.86-7.4c.17-.41.43-.89.79-.83s.54.8.55,1.37c0,3.24-.35,6.43.41,9.5.8,3.25,1.73,6.5,2.31,9.83,1.06,6.07.63,12.43,1.48,18.56a89.33,89.33,0,0,1,.83,14.36c0,.81-.05,1.62-.09,2.43-.38,6.68-1.77,14.12-7.14,16.17-2.42.93-14.74,3.91-15.32-.91-.26-2.22,1.37-4,2.82-5.19,4.49-3.8,9.11-7.65,12.31-13.23,4.49-7.81,5.24-20.93-1.14-27.35a19,19,0,0,0-11.62-5.75,3.22,3.22,0,0,1-2.42-.89A1.77,1.77,0,0,1,192.27,207.85Z" transform="translate(8.38)"/><path class="cls-2" d="M163.87,207.85c0-1-1-1.68-1.69-2-4-1.59-8.16-3.58-11.15-7.6a34.77,34.77,0,0,1-3.86-7.4c-.17-.41-.42-.89-.78-.83s-.54.8-.55,1.37c0,3.24.34,6.43-.41,9.5-.81,3.25-1.73,6.5-2.31,9.83-1.06,6.07-.63,12.43-1.48,18.56a88.19,88.19,0,0,0-.83,14.36q0,1.22.09,2.43c.38,6.68,1.77,14.12,7.14,16.17,2.42.93,14.74,3.91,15.31-.91.27-2.22-1.36-4-2.81-5.19-4.49-3.8-9.11-7.65-12.31-13.23-4.49-7.81-5.24-20.93,1.14-27.35A19,19,0,0,1,161,209.85a3.22,3.22,0,0,0,2.42-.89A1.77,1.77,0,0,0,163.87,207.85Z" transform="translate(8.38)"/></g><path class="cls-35" d="M177.17,285.63c3.15.73,6.5,1,9.44,1.52,1.32.23,2.65.46,4,.61a59.34,59.34,0,0,0,6.4.23h4.66a4,4,0,0,0,4.41-2.67c1-1.75,2.17-3.41,3-5.25a14,14,0,0,1,1.41-3c.69-.94,1.35-2.16.86-3.34-.58-1.38-2.36-1.73-3.86-1.75a26.59,26.59,0,0,0-3.79.19c-5,.61-9.73,2.58-14.71,3.13a59.18,59.18,0,0,1-9.6,0c-2.55-.13-6.46-.78-8.74.68-.93.6-2.37,2-2.49,3.19-.14,1.44,1.47,2.94,2.49,3.7A17.8,17.8,0,0,0,177.17,285.63Z" transform="translate(8.38)"/><path class="cls-37" d="M209,280.28l.09-.2a14,14,0,0,1,1.41-3c.69-.94,1.35-2.16.86-3.34-.58-1.38-2.36-1.73-3.86-1.75a26.59,26.59,0,0,0-3.79.19c-5,.61-9.73,2.58-14.71,3.13a48.21,48.21,0,0,1-7.88.05c-1.9.85-8.76,3.08-12,6a9.19,9.19,0,0,0,1.55,1.44,17.8,17.8,0,0,0,6.56,2.77c2,.46,4.06.74,6.05,1,6.66-1.17,13.22-3.22,19.71-4.84Q205.93,281.07,209,280.28Z" transform="translate(8.38)"/><path class="cls-35" d="M160.26,265.87c4.37,2.54,8.78,5.11,13.24,7.44l.27.13c1.9.91,3.87,1.67,5.77,2.61a34.63,34.63,0,0,1,3.52,2c.53.35,1,.71,1.54,1.11a3.05,3.05,0,0,1,.66.58,1.34,1.34,0,0,1,0,1,2.66,2.66,0,0,1-.54.82,10,10,0,0,1-3.24,2.2c-.73.35-1.47.67-2.23,1a13.39,13.39,0,0,1-2.2.78,3.55,3.55,0,0,1-1.12-.1l-1.18-.17q-1.17-.19-2.34-.42c-3.55-.69-7-1.66-10.51-2.7S155,280,151.56,279c-16.29-4.7-33.23-10-47.42-19.49-3.26-2.2-6.55-5.45-8-9.2-3.65-9.84,6.81-17.47,15.74-13.76,14.91,6.19,27.19,17.3,41.25,25.24C155.53,263.11,157.89,264.49,160.26,265.87Z" transform="translate(8.38)"/><path class="cls-35" d="M194.67,265.87c-4.36,2.54-8.77,5.11-13.23,7.44-2.44,1.27-16.8,6.23-12.87,11.42.77,1,2.23,1.13,3.5,1.15,10.77.1,21.1-3.94,31.3-6.88,16.29-4.7,33.23-10,47.42-19.49,3.27-2.2,6.56-5.45,8-9.2,3.66-9.84-6.81-17.47-15.73-13.76-14.91,6.19-27.2,17.3-41.26,25.24C199.4,263.11,197,264.49,194.67,265.87Z" transform="translate(8.38)"/><path class="cls-37" d="M173.49,273.31c-1.33-.69-2.65-1.41-4-2.14a44.48,44.48,0,0,1-7,1.22c-5,.38-10-.67-15-.35a26.54,26.54,0,0,0-3.76.51c-1.47.3-3.16,1-3.47,2.44a1.93,1.93,0,0,0,0,.63c3.77,1.19,7.54,2.3,11.29,3.38,5.1,1.47,10.23,3.21,15.44,4.58l.05,0c2.79-1.05,6-1.94,9-3.24a18.84,18.84,0,0,0,5.31-3.32C178.16,275.23,174.59,273.89,173.49,273.31Z" transform="translate(8.38)"/><path class="cls-35" d="M177.45,285.63c-3.15.73-6.49,1-9.43,1.52-1.33.23-2.66.46-4,.61a59.61,59.61,0,0,1-6.41.23H153a4,4,0,0,1-4.42-2.67c-1-1.75-2.17-3.41-3-5.25a13.5,13.5,0,0,0-1.41-3c-.68-.94-1.35-2.16-.86-3.34.58-1.38,2.37-1.73,3.87-1.75a26.73,26.73,0,0,1,3.79.19c5,.61,9.72,2.58,14.7,3.13a59.17,59.17,0,0,0,9.6,0c2.55-.13,6.46-.78,8.74.68.93.6,2.38,2,2.49,3.19.14,1.44-1.47,2.94-2.49,3.7A17.8,17.8,0,0,1,177.45,285.63Z" transform="translate(8.38)"/><path class="cls-35" d="M139.89,230.05c-5.95-3.45-12.62-9.15-13.07-16.62-.24-4.09,2.93-8.19,7.23-7.39a13,13,0,0,1,5,2.41,48.9,48.9,0,0,1,6.12,5.11c1.2,1.19,2.34,2.43,3.53,3.64a34.45,34.45,0,0,0,10.08,7.54l10.19,4.86c1.56.74,3.26,1.65,3.77,3.29a3.54,3.54,0,0,1-1.21,3.71c-1.88,1.53-5,1-7.2.72-2.85-.37-5.7-.79-8.51-1.38A54.45,54.45,0,0,1,139.89,230.05Z" transform="translate(8.38)"/><path class="cls-35" d="M173.55,227l4.85-1.23a5.37,5.37,0,0,1,2.66-.21.93.93,0,0,1,.35.16.69.69,0,0,1,0,.85,1.87,1.87,0,0,1-.72.55c-.86.44-7,2-6.12,3.64a.64.64,0,0,0,.31.25,7,7,0,0,0,2.39.46c4.51.28,9-.28,13.51-.53a1.47,1.47,0,0,1,1.24.33,1,1,0,0,1-.19,1.28,2.87,2.87,0,0,1-1.28.57,35.59,35.59,0,0,1-3.81.87,12.37,12.37,0,0,0-3.48.7,47.34,47.34,0,0,0,9.37.21,2.43,2.43,0,0,1,1.11.08.79.79,0,0,1,.53.87,1.08,1.08,0,0,1-.61.61c-2.95,1.59-6.49,1.43-9.84,1.22a26.5,26.5,0,0,0,4.82,1.25c1.39.09,3-.13,4.16.76.19.14.39.36.33.6a.59.59,0,0,1-.22.3,4.24,4.24,0,0,1-2.57.77,22.34,22.34,0,0,1-8.08-1.08,52.24,52.24,0,0,1,5.47,2.42c.52.27,1.12.8.86,1.32a21,21,0,0,1-5-.19,55.37,55.37,0,0,1-12.88-3.15,38.13,38.13,0,0,1-5.92-2.89c-1.57-1-3.43-1.94-3.67-4a3.36,3.36,0,0,1,1.73-3.1,7.17,7.17,0,0,1,2.71-.82,10.26,10.26,0,0,0,2.38-.8,36.42,36.42,0,0,1,4.69-1.88Z" transform="translate(8.38)"/><path class="cls-35" d="M211.56,199.69a66.1,66.1,0,0,1,10,4.21c3.11,1.62,6.24,3.46,7.35,6.93,1.26,3.9-.8,8.66-5.15,9-3.37.22-7.19-1.82-10.23-3.14-6.09-2.65-11.64-6.32-17.73-9a31.39,31.39,0,0,0-13.27-2.93,10.52,10.52,0,0,1-2.57-.14,2.82,2.82,0,0,1-2-1.49,2.69,2.69,0,0,1,.45-2.59,6.54,6.54,0,0,1,2.16-1.67,15.66,15.66,0,0,1,6.08-1.84A57.69,57.69,0,0,1,211.56,199.69Z" transform="translate(8.38)"/><path class="cls-35" d="M170,199.12a7.86,7.86,0,0,1-5-1.33c-.62-.43-1-1.13-.38-1.78a1.8,1.8,0,0,1,1.24-.51,5.72,5.72,0,0,1,1.36.19l3.26.76a19.32,19.32,0,0,0,2.39.44,18.06,18.06,0,0,0,2.44,0l3.42-.12" transform="translate(8.38)"/><path class="cls-35" d="M171.62,209.92l-1.15.45a12.84,12.84,0,0,1-4.75,1.19c-.51,0-1.21-.12-1.19-.76s.81-1,1.33-1.31q2.23-1.17,4.38-2.51a15.67,15.67,0,0,0-3.84,1.57,13.57,13.57,0,0,1-3.54,1.64,2.08,2.08,0,0,1-2.11-.31.67.67,0,0,1-.19-.3c-.17-.68.76-1.17,1.2-1.51a29.84,29.84,0,0,1,2.89-1.88l1.6-.92a4.59,4.59,0,0,1,1.41-.72,10.11,10.11,0,0,0-2.64.76c-1.7.75-3.39,1.57-5.15,2.21-.47.16-1.7.62-2.16.26s-.08-1.24.34-1.62a21.88,21.88,0,0,1,6.55-3.74,16.2,16.2,0,0,1,3.12-1.15,22.91,22.91,0,0,0-6.61,2.36,9.8,9.8,0,0,1-1.49.73c-.36.13-1.36.39-1.61,0s.27-1.12.5-1.41c2-2.48,5.53-3.93,8.5-4.66a56.17,56.17,0,0,1,13.15-1.75,37.89,37.89,0,0,1,6.56.55,10.28,10.28,0,0,1,3.53,1c1,.57,2.23,1.71,1.51,2.89a2.81,2.81,0,0,1-1.29,1,29.6,29.6,0,0,1-4,1.14c-2.25.69-4.18,2.1-6.22,3.28-.45.25-.89.49-1.35.71C176.5,208.1,174.06,209,171.62,209.92Z" transform="translate(8.38)"/><path class="cls-40" d="M172.74,99.34A11.88,11.88,0,0,1,167,94.13c-1.5-2.74-2.43-7-.12-10,2.71-3.52,7.32-3.91,9.18-3.91a10.23,10.23,0,0,1,1.45.12,6,6,0,0,0,.93.07l.4-.19a6.44,6.44,0,0,1,1.53-.59A6.84,6.84,0,0,1,185.93,81a12.24,12.24,0,0,1,4.83,7.84,10.08,10.08,0,0,1-5.49,9.84l-2.2-4.49a5.11,5.11,0,0,0,2.71-4.87A7.46,7.46,0,0,0,183,85a2.15,2.15,0,0,0-1.55-.54c-.07,0-.28.12-.43.19a5.9,5.9,0,0,1-1.74.63,7.75,7.75,0,0,1-2.43,0c-.31,0-.57,0-.8-.07-1.8,0-4.12.52-5.23,2-.62.82-.38,2.86.55,4.56a6.89,6.89,0,0,0,3.31,3Z" transform="translate(8.38)"/><path class="cls-40" d="M168.44,93.83a6.27,6.27,0,0,0,2.64,3.35,1.39,1.39,0,0,1,.68.95,1.12,1.12,0,0,1-.7,1.06,2.85,2.85,0,0,1-1.33.17A4.91,4.91,0,0,1,165.1,96a5.53,5.53,0,0,0-.47,3.47,2.76,2.76,0,0,0,1.75,2.28,8.47,8.47,0,0,0,5.29.64,7.29,7.29,0,0,0,3.94-1.71,3.75,3.75,0,0,0,1.21-3.33c-.28-1.18-1.39-2.07-1.72-3.28a3.44,3.44,0,0,1,.09-2.13.52.52,0,0,1,.1-.18.48.48,0,0,1,.26-.09c.62,0,1.08.58,1.37,1.14a16.89,16.89,0,0,1,1.34,5.14c.16.92.33,2.08,1.31,2.49a2.75,2.75,0,0,0,1.48.1,8.07,8.07,0,0,0,4.8-2.34c2.38-2.61,3-7.31,1.56-10.52a7.38,7.38,0,0,0-4.93-3.89A16.28,16.28,0,0,0,176,83.6a14.08,14.08,0,0,0-3.46.82,8.08,8.08,0,0,0-3.44,2.79A7.51,7.51,0,0,0,168.44,93.83Z" transform="translate(8.38)"/><path class="cls-41" d="M183.64,96a16.09,16.09,0,0,0-8.38.07c-1.41.39-3.85,1.34-4.1,3a1,1,0,0,0,.06.56,1.27,1.27,0,0,0,.76.55,23.4,23.4,0,0,0,11.5,1.52c1.3-.16,3.14-.57,3.8-1.86.87-1.7-1.4-3.08-2.72-3.56C184.26,96.2,184,96.11,183.64,96Z" transform="translate(8.38)"/><path class="cls-40" d="M172.76,99.3c4.26-.31,8.56-.62,12.77.12s8.37,2.64,11.07,6.07c3.12,4,3.9,9.36,3.81,14.47-.19,11-4.54,22.62-13.73,28.06a19.92,19.92,0,0,1-8.06,2.54c-6.62.75-12.23-5-15.46-10.48a46.73,46.73,0,0,1-5.88-19c-.45-4.7-.33-10,1.72-14.34C161.65,101.05,166.91,99.74,172.76,99.3Z" transform="translate(8.38)"/><path class="cls-35" d="M194.44,127.43a29.42,29.42,0,0,0-1.42-8.79c-3.73-10.89-17.41-13.4-25.52-5.43-9,8.89-5.23,29.78,4.53,37a10.85,10.85,0,0,0,9.25,1.69C190.72,149.21,194.64,137.48,194.44,127.43Z" transform="translate(8.38)"/><path class="cls-40" d="M197.44,122.85c.18-.72.33-1.44.46-2.16.25-1.37.86-3.34.63-4.72s-1.71-3.22-2.67-4.36A18.66,18.66,0,0,0,180.18,105c-2.3.19-4,1.3-6,2.23a59.92,59.92,0,0,1-6.36,2.1,19.22,19.22,0,0,0-6.76,3.27,12.44,12.44,0,0,0-3.12,4.51,12.79,12.79,0,0,0-.7,6.46,16.92,16.92,0,0,0,1.23,5.36,8.35,8.35,0,0,0,3.87,3.36c-.22-.12,0-2.7,0-3.09a21,21,0,0,1,.8-6.79,9.3,9.3,0,0,1,3.83-4.74,12.62,12.62,0,0,0,2-1.71c.3-.33,1.59-1.84,1.38-2.3,2.26,5,7.05,6.18,11.62,8.07a39.2,39.2,0,0,1,7.21,3.54c2.23,1.49,4.31,5.7,5.29,8.2C195.81,130.78,196.74,125.76,197.44,122.85Z" transform="translate(8.38)"/><path class="cls-35" d="M194.43,132.44c3.45-1.58,4.13,3.1,3.4,5.34a7.41,7.41,0,0,1-1.39,2.56c-.87,1-3.26,2.56-4.47,1.32a2.88,2.88,0,0,1-.51-2.24C191.56,137.31,192.08,133.5,194.43,132.44Z" transform="translate(8.38)"/><path class="cls-35" d="M162.81,132.44c-3.45-1.58-4.14,3.1-3.4,5.34a7.09,7.09,0,0,0,1.39,2.56c.86,1,3.25,2.56,4.47,1.32a2.92,2.92,0,0,0,.51-2.24C165.67,137.31,165.15,133.5,162.81,132.44Z" transform="translate(8.38)"/></g></g></svg>