<svg xmlns="http://www.w3.org/2000/svg" xmlns:xlink="http://www.w3.org/1999/xlink" viewBox="0 0 39.56 39.39"><defs><style>.cls-1{fill:url(#linear-gradient);}</style><linearGradient id="linear-gradient" y1="19.7" x2="39.56" y2="19.7" gradientUnits="userSpaceOnUse"><stop offset="0.1" stop-color="#767de7"/><stop offset="0.21" stop-color="#8880e6"/><stop offset="0.43" stop-color="#ab87e5"/><stop offset="0.65" stop-color="#c48be4"/><stop offset="0.84" stop-color="#d38ee3"/><stop offset="1" stop-color="#d88fe3"/></linearGradient></defs><g id="Layer_2" data-name="Layer 2"><g id="Layer_1-2" data-name="Layer 1"><path class="cls-1" d="M39.54,35.24l-1.2-11.16A6,6,0,0,0,32.43,19h-9l-.23-2.07a8,8,0,0,0,5.25-7.45V6.7A6.71,6.71,0,0,0,21.79,0h-4a6.71,6.71,0,0,0-6.7,6.7V9.48a8,8,0,0,0,5.25,7.45L16.08,19H7.14a6,6,0,0,0-5.92,5.11L0,35.24a3.75,3.75,0,0,0,3.73,4.15H35.81a3.75,3.75,0,0,0,3.73-4.15ZM21.68,22.68l-.22.21-.18.14L21,23.2l-.2.1-.29.1-.23.07c-.1,0-.22,0-.33,0a2.41,2.41,0,0,1-.38,0l-.33,0L19,23.4l-.29-.1-.2-.1L18.27,23a1.24,1.24,0,0,1-.18-.14l-.22-.21c-.06-.06-.11-.13-.16-.19a3.34,3.34,0,0,1-.51-2v0l.09-.75h0l.27-2.42h.14a7.26,7.26,0,0,0,1.31.12h1.53a7.15,7.15,0,0,0,1.3-.12H22l.28,2.42h0l.09.79a3.35,3.35,0,0,1-.52,2C21.78,22.55,21.74,22.62,21.68,22.68ZM12.34,9.48V6.7a5.42,5.42,0,0,1,5.42-5.42h4A5.42,5.42,0,0,1,27.21,6.7V9.48a6.7,6.7,0,0,1-6.67,6.67H19a6.8,6.8,0,0,1-1.83-.26h0A6.69,6.69,0,0,1,12.34,9.48ZM37.65,37.29a2.49,2.49,0,0,1-1.84.82H32.37L32,28.49a.64.64,0,0,0-1.28.05l.39,9.57H8.48l.4-9.57a.65.65,0,0,0-1.29-.05L7.2,38.11H3.75A2.46,2.46,0,0,1,1.3,35.38l1.2-11.1a4.66,4.66,0,0,1,4.64-4h8.79v.07h0v.12a3.88,3.88,0,0,0,.77,2.76c0,.06.08.14.12.19a1.42,1.42,0,0,1,.13.12.58.58,0,0,0,.1.12l.22.19.28.22a3.26,3.26,0,0,0,.4.24l.3.16c.14.06.29.1.44.15s.21.07.32.09a3.43,3.43,0,0,0,.56.06l.22,0a1.81,1.81,0,0,0,.23,0,3.31,3.31,0,0,0,.55-.06,3,3,0,0,0,.32-.09l.45-.15.3-.16a4.23,4.23,0,0,0,.4-.24c.1-.07.18-.15.27-.22s.16-.12.23-.19.06-.08.1-.12.09-.08.12-.12a1.22,1.22,0,0,0,.12-.19,3.84,3.84,0,0,0,.78-2.76l0-.12h0v-.07h8.82a4.64,4.64,0,0,1,4.63,4l1.2,11.13A2.47,2.47,0,0,1,37.65,37.29Z"/></g></g></svg>