<svg xmlns="http://www.w3.org/2000/svg" xmlns:xlink="http://www.w3.org/1999/xlink" viewBox="0 0 41.92 35.74"><defs><style>.cls-1{fill:url(#linear-gradient);}</style><linearGradient id="linear-gradient" y1="17.87" x2="41.92" y2="17.87" gradientUnits="userSpaceOnUse"><stop offset="0.1" stop-color="#767de7"/><stop offset="0.21" stop-color="#8880e6"/><stop offset="0.43" stop-color="#ab87e5"/><stop offset="0.65" stop-color="#c48be4"/><stop offset="0.84" stop-color="#d38ee3"/><stop offset="1" stop-color="#d88fe3"/></linearGradient></defs><g id="Layer_2" data-name="Layer 2"><g id="Layer_1-2" data-name="Layer 1"><path class="cls-1" d="M41.26,34.44H40V15.58a.65.65,0,0,0-.65-.65H33.59a.65.65,0,0,0-.65.65V34.44H29.67V25.93a.66.66,0,0,0-.65-.66H23.24a.66.66,0,0,0-.65.66v8.51H19.33V20.75a.65.65,0,0,0-.65-.65H12.89a.65.65,0,0,0-.65.65V34.44H9V25.93a.66.66,0,0,0-.65-.66H2.55a.66.66,0,0,0-.65.66v8.51H.65a.65.65,0,0,0,0,1.3H41.26a.65.65,0,1,0,0-1.3ZM7.68,34.33H3.2V26.58H7.68Zm10.34,0H13.55V21.41H18Zm10.35,0H23.89V26.58h4.48Zm10.35,0H34.24V16.23h4.48ZM5.44,23.41A2.66,2.66,0,0,0,8.1,20.75,2.6,2.6,0,0,0,8,19.91L14,15a2.64,2.64,0,0,0,3.5,0l6.11,4.13a2.73,2.73,0,0,0-.17.92A2.66,2.66,0,1,0,28,18.13L37.59,2.28,38.32,5a.64.64,0,0,0,.62.48l.17,0a.65.65,0,0,0,.46-.8L38.45.48a.64.64,0,0,0-.3-.4A.74.74,0,0,0,37.64,0L33.49,1.14a.65.65,0,0,0-.46.8.66.66,0,0,0,.8.46l2.58-.7L26.89,17.47a2.69,2.69,0,0,0-.76-.12,2.61,2.61,0,0,0-1.74.66l-6.12-4.12a2.61,2.61,0,0,0,.18-.93,2.67,2.67,0,1,0-5.16.9l-6,4.95a2.65,2.65,0,1,0-1.8,4.6Zm20.69-4.76A1.36,1.36,0,1,1,24.77,20,1.36,1.36,0,0,1,26.13,18.65Zm-10.34-7A1.36,1.36,0,1,1,14.43,13,1.36,1.36,0,0,1,15.79,11.61ZM5.44,19.4a1.36,1.36,0,1,1-1.36,1.35A1.36,1.36,0,0,1,5.44,19.4Z"/></g></g></svg>