<svg xmlns="http://www.w3.org/2000/svg" viewBox="0 0 28.44 28.44"><defs><style>.cls-1{fill:#fff;}</style></defs><g id="Layer_2" data-name="Layer 2"><g id="Layer_1-2" data-name="Layer 1"><path class="cls-1" d="M14.22,21.75a7.54,7.54,0,1,1,7.53-7.53A7.54,7.54,0,0,1,14.22,21.75Zm0-14.14a6.61,6.61,0,1,0,6.61,6.61A6.62,6.62,0,0,0,14.22,7.61Z"/><path class="cls-1" d="M15,28.44H13.41a2.12,2.12,0,0,1-2.12-2.12V24.93a11.35,11.35,0,0,1-2.57-1.07l-1,1a2.11,2.11,0,0,1-3,0L3.59,23.7a2.12,2.12,0,0,1,0-3l1-1a10.91,10.91,0,0,1-1.07-2.57H2.12A2.12,2.12,0,0,1,0,15V13.41a2.12,2.12,0,0,1,2.12-2.12H3.51A10.91,10.91,0,0,1,4.58,8.72l-1-1a2.11,2.11,0,0,1,0-3L4.74,3.59a2.11,2.11,0,0,1,3,0l1,1a10.91,10.91,0,0,1,2.57-1.07V2.12A2.12,2.12,0,0,1,13.41,0H15a2.12,2.12,0,0,1,2.12,2.12V3.51a10.91,10.91,0,0,1,2.57,1.07l1-1a2.12,2.12,0,0,1,3,0l1.15,1.15a2.12,2.12,0,0,1,0,3l-1,1a11.35,11.35,0,0,1,1.07,2.57h1.39a2.12,2.12,0,0,1,2.12,2.12V15a2.12,2.12,0,0,1-2.12,2.12H24.93a11.35,11.35,0,0,1-1.07,2.57l1,1a2.14,2.14,0,0,1,0,3L23.7,24.85a2.12,2.12,0,0,1-3,0l-1-1a11.35,11.35,0,0,1-2.57,1.07v1.39A2.12,2.12,0,0,1,15,28.44ZM8.64,22.82a.54.54,0,0,1,.25.06,10.06,10.06,0,0,0,3,1.24.46.46,0,0,1,.36.45v1.75a1.19,1.19,0,0,0,1.19,1.19H15a1.19,1.19,0,0,0,1.19-1.19V24.57a.46.46,0,0,1,.36-.45,10.06,10.06,0,0,0,3-1.24.47.47,0,0,1,.6.1l1.21,1.21a1.21,1.21,0,0,0,1.68,0L24.19,23a1.18,1.18,0,0,0,0-1.68L23,20.15a.48.48,0,0,1-.12-.56l0,0h0a10.06,10.06,0,0,0,1.24-3,.46.46,0,0,1,.45-.36h1.75A1.19,1.19,0,0,0,27.51,15V13.41a1.19,1.19,0,0,0-1.19-1.19H24.57a.46.46,0,0,1-.45-.36,10.31,10.31,0,0,0-1.23-3A.45.45,0,0,1,23,8.32l1.24-1.24a1.19,1.19,0,0,0,0-1.69L23,4.25a1.21,1.21,0,0,0-1.68,0L20.12,5.49a.45.45,0,0,1-.57.06,10.31,10.31,0,0,0-3-1.23.46.46,0,0,1-.36-.45V2.12A1.19,1.19,0,0,0,15,.93H13.41a1.19,1.19,0,0,0-1.19,1.19V3.87a.46.46,0,0,1-.36.45,10.31,10.31,0,0,0-3,1.23.47.47,0,0,1-.57-.06L7.08,4.25a1.23,1.23,0,0,0-1.69,0L4.25,5.39a1.19,1.19,0,0,0,0,1.69L5.49,8.32a.47.47,0,0,1,.06.57,10.31,10.31,0,0,0-1.23,3,.46.46,0,0,1-.45.36H2.12A1.19,1.19,0,0,0,.93,13.41V15a1.19,1.19,0,0,0,1.19,1.19H3.87a.46.46,0,0,1,.45.36,10.31,10.31,0,0,0,1.23,3h0a.05.05,0,0,1,0,0,.46.46,0,0,1-.11.56L4.25,21.36a1.18,1.18,0,0,0,0,1.68l1.14,1.15a1.23,1.23,0,0,0,1.69,0L8.3,23A.45.45,0,0,1,8.64,22.82Z"/></g></g></svg>