<?xml version="1.0" encoding="utf-8"?>
<!-- Generator: Adobe Illustrator 24.2.3, SVG Export Plug-In . SVG Version: 6.00 Build 0)  -->
<svg version="1.1" id="Layer_1" xmlns="http://www.w3.org/2000/svg" xmlns:xlink="http://www.w3.org/1999/xlink" x="0px" y="0px"
	 viewBox="0 0 60 60" style="enable-background:new 0 0 60 60;" xml:space="preserve">
<style type="text/css">
	.st0{fill:url(#SVGID_1_);}
	.st1{fill:url(#SVGID_2_);}
	.st2{fill:url(#SVGID_3_);}
	.st3{fill:url(#SVGID_4_);}
	.st4{fill:url(#SVGID_5_);}
	.st5{fill:url(#SVGID_6_);}
	.st6{fill:url(#SVGID_7_);}
</style>
<linearGradient id="SVGID_1_" gradientUnits="userSpaceOnUse" x1="19.2842" y1="33.0537" x2="32.7235" y2="33.0537" gradientTransform="matrix(1 0 0 -1 0 62)">
	<stop  offset="0.1" style="stop-color:#787DEB"/>
	<stop  offset="0.63" style="stop-color:#515ECF"/>
	<stop  offset="1" style="stop-color:#3B4CBF"/>
</linearGradient>
<path class="st0" d="M30.2,36.8V12.9C30.1,10.5,28,8.8,25.7,9c-2.1,0.2-3.7,1.8-3.9,3.9v23.9c-3,2.3-3.5,6.6-1.1,9.6
	s6.6,3.5,9.6,1.1c3-2.3,3.5-6.6,1.1-9.6C31,37.5,30.7,37.1,30.2,36.8z M26,47.3c-2.9,0-5.3-2.4-5.2-5.3c0-1.8,1-3.5,2.5-4.5V12.9
	c0.1-1.5,1.5-2.7,3-2.5c1.3,0.1,2.4,1.2,2.5,2.5v24.6c2.5,1.5,3.2,4.8,1.7,7.3C29.6,46.4,27.9,47.3,26,47.3z"/>
<linearGradient id="SVGID_2_" gradientUnits="userSpaceOnUse" x1="22.1899" y1="33.1647" x2="29.8631" y2="33.1647" gradientTransform="matrix(1 0 0 -1 0 62)">
	<stop  offset="0.1" style="stop-color:#787DEB"/>
	<stop  offset="0.63" style="stop-color:#515ECF"/>
	<stop  offset="1" style="stop-color:#3B4CBF"/>
</linearGradient>
<path class="st1" d="M27.3,38.4V12.9c-0.1-0.7-0.8-1.2-1.5-1.1c-0.6,0.1-1.1,0.5-1.1,1.1v25.5c-2,0.7-3,2.9-2.3,4.9
	c0.7,2,2.9,3,4.9,2.3c2-0.7,3-2.9,2.3-4.9C29.3,39.7,28.4,38.8,27.3,38.4z"/>
<linearGradient id="SVGID_3_" gradientUnits="userSpaceOnUse" x1="31.7019" y1="48.3251" x2="38.5805" y2="48.3251" gradientTransform="matrix(1 0 0 -1 0 62)">
	<stop  offset="0.1" style="stop-color:#787DEB"/>
	<stop  offset="0.63" style="stop-color:#515ECF"/>
	<stop  offset="1" style="stop-color:#3B4CBF"/>
</linearGradient>
<rect x="31.7" y="13" class="st2" width="6.9" height="1.4"/>
<linearGradient id="SVGID_4_" gradientUnits="userSpaceOnUse" x1="31.7019" y1="43.5577" x2="34.9482" y2="43.5577" gradientTransform="matrix(1 0 0 -1 0 62)">
	<stop  offset="0.1" style="stop-color:#787DEB"/>
	<stop  offset="0.63" style="stop-color:#515ECF"/>
	<stop  offset="1" style="stop-color:#3B4CBF"/>
</linearGradient>
<rect x="31.7" y="17.7" class="st3" width="3.2" height="1.4"/>
<linearGradient id="SVGID_5_" gradientUnits="userSpaceOnUse" x1="31.7019" y1="38.7564" x2="38.5805" y2="38.7564" gradientTransform="matrix(1 0 0 -1 0 62)">
	<stop  offset="0.1" style="stop-color:#787DEB"/>
	<stop  offset="0.63" style="stop-color:#515ECF"/>
	<stop  offset="1" style="stop-color:#3B4CBF"/>
</linearGradient>
<polyline class="st4" points="31.7,24 31.7,22.5 38.6,22.5 38.6,24 "/>
<linearGradient id="SVGID_6_" gradientUnits="userSpaceOnUse" x1="31.7019" y1="34.0004" x2="34.9482" y2="34.0004" gradientTransform="matrix(1 0 0 -1 0 62)">
	<stop  offset="0.1" style="stop-color:#787DEB"/>
	<stop  offset="0.63" style="stop-color:#515ECF"/>
	<stop  offset="1" style="stop-color:#3B4CBF"/>
</linearGradient>
<rect x="31.7" y="27.3" class="st5" width="3.2" height="1.4"/>
<linearGradient id="SVGID_7_" gradientUnits="userSpaceOnUse" x1="31.7019" y1="29.2331" x2="38.5805" y2="29.2331" gradientTransform="matrix(1 0 0 -1 0 62)">
	<stop  offset="0.1" style="stop-color:#787DEB"/>
	<stop  offset="0.63" style="stop-color:#515ECF"/>
	<stop  offset="1" style="stop-color:#3B4CBF"/>
</linearGradient>
<rect x="31.7" y="32.1" class="st6" width="6.9" height="1.4"/>
</svg>
